<svg width="180" height="50" xmlns="http://www.w3.org/2000/svg">

 <g>
  <title>background</title>
  <rect fill="none" id="canvas_background" height="52" width="182" y="-1" x="-1"/>
 </g>
 <g>
  <title>Layer 1</title>
  <g stroke="null" id="svgg">
   <path fill-rule="evenodd" fill="#7c7c7c" d="m6.47926,2.51037c-0.50881,0.64444 -0.61024,0.90319 -0.61024,1.54625c0,0.60351 -0.10143,0.89487 -0.46428,1.33467c-0.34223,0.41622 -0.47582,0.77278 -0.51046,1.3645c-0.02639,0.46755 -0.15586,0.90388 -0.30924,1.04609c-0.26966,0.25112 -0.32903,0.55704 -0.17482,0.89625c0.07174,0.15816 1.81175,0.18452 9.66403,0.14914c8.03453,-0.03607 9.83803,-0.00624 11.20776,0.18244c0.89804,0.12417 1.92555,0.25459 2.28427,0.28996c0.87495,0.08741 2.43023,1.19454 2.71144,1.93055c0.11215,0.29205 0.27543,0.60768 0.36367,0.70133c0.2441,0.25944 0.20286,0.91498 -0.10226,1.6177c-0.15091,0.34823 -0.27461,0.96979 -0.27461,1.38115c0,0.5716 -0.10143,0.86434 -0.42964,1.23825c-0.32161,0.36696 -0.43047,0.67288 -0.43459,1.2209c-0.00412,0.5175 -0.12864,0.89834 -0.42882,1.30831c-0.28863,0.39402 -0.42387,0.79012 -0.42387,1.24449c-0.00082,0.47171 -0.127,0.82203 -0.43047,1.19871c-0.31749,0.39333 -0.42964,0.72214 -0.42964,1.25906c0,0.52721 -0.12617,0.90805 -0.45933,1.386c-0.32491,0.46616 -0.46922,0.8907 -0.49231,1.44497c-0.02227,0.54316 -0.14596,0.91429 -0.39913,1.20287c-0.25894,0.29482 -0.36697,0.62918 -0.36697,1.13489c0,0.55842 -0.09731,0.8144 -0.43954,1.15639c-0.33563,0.33575 -0.46922,0.67843 -0.56736,1.44982c-0.08494,0.66664 -0.23832,1.11269 -0.45108,1.31039c-0.22678,0.21088 -0.32986,0.54386 -0.34883,1.12656c-0.01814,0.56467 -0.14431,0.98782 -0.3983,1.33259c-0.22101,0.30176 -0.37109,0.74433 -0.37192,1.09604c0,0.3413 -0.1806,0.88862 -0.42882,1.30068c-0.25399,0.42038 -0.42964,0.95799 -0.42964,1.31525c-0.00082,0.33297 -0.07587,0.7707 -0.1674,0.97325c-0.27131,0.60143 0.08411,0.64236 5.83355,0.67288c5.74366,0.02983 5.84344,0.01804 5.84344,-0.68398c0,-0.10197 0.19379,-0.54039 0.42964,-0.97534c0.24987,-0.45853 0.42964,-1.05442 0.42964,-1.42138c0,-0.44674 0.12535,-0.77486 0.42964,-1.12101c0.33893,-0.38708 0.42964,-0.66179 0.42964,-1.309c0,-0.62086 0.08989,-0.91568 0.37027,-1.21605c0.25729,-0.2747 0.40243,-0.69092 0.475,-1.35687c0.06762,-0.61739 0.24245,-1.14737 0.48902,-1.48312c0.25482,-0.34685 0.38346,-0.75058 0.38346,-1.20217c0,-0.4509 0.13772,-0.88238 0.40985,-1.28334c0.25976,-0.38223 0.44201,-0.93302 0.49809,-1.50116c0.05525,-0.55981 0.21606,-1.04817 0.42799,-1.30068c0.21771,-0.25944 0.36532,-0.72352 0.41397,-1.30137c0.04865,-0.58132 0.18142,-0.99684 0.37686,-1.17789c0.16575,-0.154 0.4049,-0.75821 0.53107,-1.3423c0.12617,-0.58409 0.38429,-1.30692 0.57313,-1.6066c0.23997,-0.38084 0.31666,-0.71034 0.25564,-1.09396c-0.06845,-0.4287 0.02886,-0.73254 0.44613,-1.39016c0.4082,-0.64306 0.53437,-1.02598 0.53437,-1.62186c0,-0.49877 0.12535,-0.98782 0.34883,-1.35548c0.57066,-0.94134 0.52447,-3.75705 -0.07752,-4.70811c-0.2441,-0.385 -0.44366,-0.91221 -0.44366,-1.17165c0,-0.25875 -0.08164,-0.47033 -0.18142,-0.47033c-0.09978,0 -0.34305,-0.30939 -0.54014,-0.68676c-0.37274,-0.71242 -2.37993,-2.49314 -2.81039,-2.49314c-0.12947,0 -0.49974,-0.19493 -0.82217,-0.43356c-0.35377,-0.26083 -0.77847,-0.43356 -1.06874,-0.43356c-0.26471,0 -0.65807,-0.13943 -0.87412,-0.31008c-0.29522,-0.23308 -0.72321,-0.33783 -1.72928,-0.42246c-0.73476,-0.06174 -1.82659,-0.24765 -2.42528,-0.41275c-1.05885,-0.29135 -1.41262,-0.29968 -12.66161,-0.29968l-11.57226,0l-0.61024,0.77347m140.26651,-0.6715c-0.72651,0.22337 -1.03081,0.6604 -1.03081,1.47965c0,0.61253 -0.09896,0.93025 -0.40738,1.31316c-0.23008,0.28441 -0.46263,0.85047 -0.53355,1.2979c-0.06927,0.43633 -0.27708,1.00239 -0.4618,1.25836c-0.18967,0.26152 -0.34058,0.73601 -0.34553,1.08425c-0.00825,0.62918 -0.1839,1.03638 -0.59787,1.38462c-0.24822,0.20811 -0.24739,0.20672 -0.29357,1.1883c-0.01979,0.42246 -0.174,0.82272 -0.43376,1.13003c-0.25069,0.29621 -0.44696,0.79359 -0.52035,1.31455c-0.06432,0.46131 -0.24739,1.00586 -0.40655,1.2105c-0.15916,0.20395 -0.33893,0.7485 -0.39995,1.2105c-0.07174,0.539 -0.23585,0.95452 -0.45933,1.16194c-0.25234,0.23378 -0.35955,0.55704 -0.39088,1.17928c-0.03216,0.64514 -0.15338,0.99476 -0.48819,1.40959c-0.30182,0.37321 -0.44613,0.74433 -0.44613,1.14737c0,0.35725 -0.17153,0.86643 -0.42964,1.27432c-0.26389,0.4183 -0.42964,0.91637 -0.42964,1.29444c0,0.4287 -0.12947,0.76306 -0.42882,1.10436c-0.31914,0.3635 -0.42964,0.67011 -0.42964,1.18899c0,0.45923 -0.14761,0.94412 -0.42964,1.41236c-0.40243,0.66872 -0.42964,0.85186 -0.42964,2.92947c0,2.13797 0.01567,2.23439 0.42964,2.7068c0.27131,0.30939 0.42964,0.6819 0.42964,1.01141c0,0.3302 0.15751,0.70271 0.42964,1.0121c0.23585,0.26915 0.42882,0.54802 0.42882,0.61878c0,0.26985 3.24086,2.8497 3.57979,2.8497c0.18967,0 0.5756,0.16232 0.85598,0.36142c0.33481,0.23655 0.72074,0.36072 1.12069,0.36072c0.33563,0 0.96896,0.16094 1.40767,0.35656l0.79743,0.35725l12.59812,0.00624c13.64624,0.00694 13.14156,0.03538 13.14156,-0.74364c0,-0.16094 0.15586,-0.47587 0.34553,-0.70063c0.18967,-0.22406 0.39171,-0.72144 0.44943,-1.10575c0.05773,-0.38431 0.28945,-0.97048 0.51458,-1.30276c0.26141,-0.38708 0.40902,-0.83521 0.40902,-1.24657c0,-0.40442 0.09813,-0.71242 0.26554,-0.82897c0.14679,-0.10197 0.24327,-0.32118 0.21523,-0.48767c-0.05113,-0.30106 -0.06432,-0.30176 -10.78884,-0.3739c-10.72782,-0.07214 -10.73854,-0.07214 -11.46093,-0.39749c-0.3983,-0.17828 -0.94504,-0.32465 -1.21553,-0.32465c-0.38841,0 -0.69518,-0.19423 -1.46705,-0.92886l-0.97556,-0.92886l0,-1.18206c0,-1.05025 0.04865,-1.22992 0.42964,-1.61145c0.33481,-0.33505 0.42964,-0.59103 0.42964,-1.16402c0,-0.52097 0.1237,-0.9129 0.42387,-1.34369c0.23337,-0.33505 0.475,-0.89348 0.53767,-1.24102c0.06185,-0.34823 0.26306,-0.84284 0.44696,-1.09951c0.1839,-0.25736 0.37686,-0.84284 0.42964,-1.30068c0.06267,-0.54316 0.21523,-0.94481 0.43871,-1.15153c0.2309,-0.21366 0.38016,-0.62363 0.4585,-1.25628c0.07587,-0.62224 0.22843,-1.0447 0.44943,-1.25004c0.22843,-0.21227 0.33893,-0.53484 0.34965,-1.02112c0.01237,-0.52721 0.11792,-0.80052 0.4082,-1.06066c0.28863,-0.25875 0.4049,-0.55773 0.44366,-1.1446c0.03546,-0.52998 0.174,-0.93233 0.41892,-1.2105c0.20781,-0.23724 0.42882,-0.79081 0.51128,-1.28264c0.07999,-0.47657 0.30759,-1.09049 0.50633,-1.3645c0.19874,-0.27332 0.36119,-0.69924 0.36119,-0.94551c0.00082,-0.24696 0.19379,-0.75405 0.43047,-1.12795c0.27708,-0.43772 0.42964,-0.9129 0.42964,-1.33744c0,-0.49114 0.10885,-0.76653 0.42964,-1.08702c0.31419,-0.31494 0.42882,-0.59866 0.42882,-1.06135c0,-0.3961 0.15998,-0.88446 0.42964,-1.31108c0.46592,-0.73601 0.54921,-1.34507 0.22348,-1.61908c-0.21111,-0.17759 -10.57031,-0.24418 -11.13272,-0.07145m-121.11988,8.36249c0.57725,0.10822 1.85133,0.12695 1.77711,0.02636c-0.04371,-0.05966 -0.51953,-0.10128 -1.0572,-0.09157c-0.53767,0.00902 -0.86176,0.03815 -0.71992,0.06521m130.09698,2.73593c0.00165,0.31771 0.03711,0.43078 0.07834,0.25112c0.04123,-0.17967 0.03958,-0.4398 -0.00412,-0.57785c-0.04288,-0.13874 -0.07587,0.00902 -0.07422,0.32673m-16.49292,4.33559c0.00165,0.31771 0.03711,0.43078 0.07834,0.25112c0.04123,-0.17967 0.03958,-0.4398 -0.00412,-0.57785c-0.04288,-0.13874 -0.07587,0.00902 -0.07422,0.32673m-112.74478,4.39941c0,0.24279 0.02969,0.44188 0.06597,0.44188c0.14514,0 0.22101,-0.73462 0.08246,-0.80677c-0.08164,-0.04232 -0.14844,0.1214 -0.14844,0.36488m13.69077,2.14005c-0.0503,0.21851 -0.02062,0.45923 0.06597,0.53484c0.09813,0.08463 0.15916,-0.06798 0.15916,-0.39749c0,-0.63265 -0.09566,-0.69092 -0.22513,-0.13735m-14.50635,0.83105c0.00165,0.31771 0.03711,0.43078 0.07752,0.25112c0.04123,-0.17967 0.03958,-0.4398 -0.0033,-0.57785c-0.04288,-0.13874 -0.07669,0.00902 -0.07422,0.32673m13.74025,2.23994c0,0.27817 0.03546,0.39194 0.07834,0.2532c0.04371,-0.13943 0.04371,-0.36696 0,-0.5064c-0.04288,-0.13874 -0.07834,-0.02497 -0.07834,0.2532m-0.93845,2.08594c-0.04453,0.19354 -0.01567,0.43772 0.06267,0.54247c0.09154,0.1207 0.14431,-0.00694 0.14596,-0.3524c0.0033,-0.61947 -0.09154,-0.70549 -0.20864,-0.19007m-0.8733,2.84207c-0.05195,0.16649 -0.02721,0.44258 0.05443,0.61392c0.1204,0.25042 0.15173,0.19146 0.15998,-0.30314c0.01237,-0.66942 -0.06762,-0.78526 -0.21441,-0.31078m-21.65026,12.3665c-0.39748,0.33367 -0.08989,0.62571 0.65889,0.62571l0.77269,0l0,1.86327c0,1.87714 0.07422,2.10051 0.64405,1.93333c0.15668,-0.04578 0.21523,-0.56606 0.21523,-1.92986l0,-1.86673l0.77269,0c0.71002,0 0.77352,-0.02914 0.77352,-0.36072l0,-0.36142l-1.86123,0c-1.02421,0 -1.91318,0.04301 -1.97585,0.09642m4.56277,2.17959c0.03958,1.90905 0.08906,2.27601 0.30512,2.27601c0.21606,0 0.26471,-0.36696 0.30512,-2.27601c0.04536,-2.2115 0.03711,-2.27601 -0.30512,-2.27601c-0.34223,0 -0.3513,0.06451 -0.30512,2.27601m1.45055,-2.17959c-0.39748,0.33367 -0.08989,0.62571 0.65807,0.62571l0.77352,0l0,1.86327c0,1.87714 0.07422,2.10051 0.64405,1.93333c0.15668,-0.04578 0.21441,-0.56606 0.21441,-1.92986l0,-1.86673l0.77352,0c0.71002,0 0.77269,-0.02914 0.77269,-0.36072l0,-0.36142l-1.86123,0c-1.02339,0 -1.91235,0.04301 -1.97503,0.09642m4.95942,0.14845c-1.08276,2.28087 -1.76474,4.21836 -1.51323,4.30022c0.34635,0.11168 0.59539,-0.09296 0.83537,-0.68606c0.29852,-0.73948 2.08635,-0.71451 2.3857,0.0333c0.23173,0.57785 0.67291,0.87752 0.94999,0.64444c0.36779,-0.30939 -1.54951,-4.4563 -2.08388,-4.50902c-0.30677,-0.02983 -0.48984,0.03954 -0.57395,0.21713m3.76286,-0.05758c-0.22595,0.49599 0.01155,4.36473 0.26801,4.36473c0.20946,0 0.27378,-0.31632 0.34388,-1.69123l0.08576,-1.69123l1.05307,1.61908c0.96649,1.4852 1.09843,1.62255 1.59404,1.66487l0.54014,0.04509l-0.047,-2.21289c-0.04536,-2.10398 -0.06432,-2.21358 -0.39088,-2.21358c-0.31996,0 -0.348,0.11099 -0.39583,1.58995l-0.05113,1.58926l-0.89309,-1.38739c-1.19491,-1.85563 -1.80433,-2.34053 -2.10697,-1.67666m7.08948,-0.09642c-0.0668,0.0555 -0.12122,1.06621 -0.12122,2.24549l0,2.14352l1.46045,0c1.34582,0 1.46045,-0.02289 1.46045,-0.28927c0,-0.25944 -0.11463,-0.28858 -1.11657,-0.28858l-1.11657,0l0,-0.72283l0,-0.72283l0.94504,0c0.82959,0 0.94422,-0.03468 0.94422,-0.28858c0,-0.25389 -0.11463,-0.28927 -0.94422,-0.28927l-0.94504,0l0,-0.57091l0,-0.5716l1.07369,-0.04301c0.94175,-0.03746 1.07369,-0.07839 1.07369,-0.33159c0,-0.2969 -2.39807,-0.53623 -2.71391,-0.27054m3.90635,0.09642c-0.22678,0.49599 0.01072,4.36473 0.26801,4.36473c0.20946,0 0.27378,-0.31632 0.34305,-1.69123l0.08659,-1.69123l1.05307,1.61908c0.96566,1.4852 1.0976,1.62255 1.59322,1.66487l0.54097,0.04509l-0.04783,-2.21289c-0.04536,-2.10398 -0.06432,-2.21358 -0.39088,-2.21358c-0.31996,0 -0.34718,0.11099 -0.39501,1.58995l-0.05195,1.58926l-0.89309,-1.38739c-1.19409,-1.85563 -1.8035,-2.34053 -2.10615,-1.67666m6.11228,0.0659c-2.60918,1.10228 -1.39613,4.65053 1.47694,4.31895c1.36974,-0.15816 1.4621,-0.25251 1.40437,-1.43734l-0.04948,-1.03916l-1.07451,-0.0437c-0.9838,-0.03885 -1.07369,-0.01804 -1.07369,0.2532c0,0.24904 0.10968,0.29621 0.68775,0.29621l0.68693,0l0,0.58132c0,0.9573 -1.29469,1.11199 -2.14903,0.25736c-1.32026,-1.3201 0.22265,-3.30129 2.06656,-2.65338c0.83207,0.29205 0.94175,0.28372 0.94175,-0.07145c0,-0.63196 -1.83071,-0.92192 -2.9176,-0.462m4.15869,2.02281c0.03958,1.90905 0.08906,2.27601 0.30512,2.27601c0.21606,0 0.26471,-0.36696 0.30512,-2.27601c0.04536,-2.2115 0.03711,-2.27601 -0.30512,-2.27601c-0.34223,0 -0.3513,0.06451 -0.30512,2.27601m2.09872,-2.08872c-0.22678,0.49599 0.01072,4.36473 0.26801,4.36473c0.20946,0 0.27378,-0.31632 0.34305,-1.69123l0.08659,-1.69123l1.05307,1.61908c0.96566,1.4852 1.0976,1.62255 1.59322,1.66487l0.54097,0.04509l-0.04783,-2.21289c-0.04536,-2.10398 -0.06432,-2.21358 -0.39088,-2.21358c-0.31996,0 -0.34718,0.11099 -0.39501,1.58995l-0.05195,1.58926l-0.89309,-1.38739c-1.19409,-1.85563 -1.8035,-2.34053 -2.10615,-1.67666m5.19939,-0.09642c-0.0668,0.0555 -0.12122,1.06621 -0.12122,2.24549l0,2.14352l1.46045,0c1.34582,0 1.46045,-0.02289 1.46045,-0.28927c0,-0.25944 -0.11463,-0.28858 -1.11657,-0.28858l-1.1174,0l0,-0.72283l0,-0.72283l0.94504,0c0.83042,0 0.94504,-0.03468 0.94504,-0.28858c0,-0.25389 -0.11463,-0.28927 -0.94504,-0.28927l-0.94504,0l0,-0.57091l0,-0.5716l1.07369,-0.04301c0.94257,-0.03746 1.07451,-0.07839 1.07451,-0.33159c0,-0.2969 -2.3989,-0.53623 -2.71391,-0.27054m4.12323,0c-0.0668,0.0555 -0.12122,1.06621 -0.12122,2.24549l0,2.14352l1.46045,0c1.34582,0 1.46045,-0.02289 1.46045,-0.28927c0,-0.25944 -0.11463,-0.28858 -1.11657,-0.28858l-1.1174,0l0,-0.72283l0,-0.72283l0.94504,0c0.83042,0 0.94504,-0.03468 0.94504,-0.28858c0,-0.25389 -0.11463,-0.28927 -0.94504,-0.28927l-0.94504,0l0,-0.57091l0,-0.5716l1.07369,-0.04301c0.94257,-0.03746 1.07451,-0.07839 1.07451,-0.33159c0,-0.2969 -2.3989,-0.53623 -2.71391,-0.27054m3.91459,0.07631c-0.23255,0.51056 -0.00412,4.38485 0.25894,4.38485c0.19874,0 0.26966,-0.22337 0.30842,-0.97534c0.07752,-1.48104 0.96319,-1.37074 1.66331,0.20741c0.30512,0.68815 0.69765,0.96493 1.00442,0.70688c0.17482,-0.14706 -0.21853,-1.22784 -0.66879,-1.8376c-0.19874,-0.26915 -0.18555,-0.34269 0.10638,-0.56467c0.5187,-0.39402 0.46592,-1.43248 -0.08824,-1.73771c-0.59457,-0.32742 -2.45827,-0.45992 -2.58444,-0.18383m4.2494,2.10883c0.03958,1.90905 0.08906,2.27601 0.30512,2.27601c0.21606,0 0.26471,-0.36696 0.30512,-2.27601c0.04536,-2.2115 0.03711,-2.27601 -0.30512,-2.27601c-0.34223,0 -0.3513,0.06451 -0.30512,2.27601m2.09872,-2.08872c-0.22678,0.49599 0.01072,4.36473 0.26801,4.36473c0.20946,0 0.27378,-0.31632 0.34305,-1.69123l0.08659,-1.69123l1.05307,1.61908c0.96566,1.4852 1.0976,1.62255 1.59322,1.66487l0.54097,0.04509l-0.04783,-2.21289c-0.04536,-2.10398 -0.06432,-2.21358 -0.39088,-2.21358c-0.31996,0 -0.34718,0.11099 -0.39501,1.58995l-0.05195,1.58926l-0.89309,-1.38739c-1.19409,-1.85563 -1.8035,-2.34053 -2.10615,-1.67666m6.2838,0.0659c-2.60836,1.10228 -1.3953,4.65053 1.47694,4.31895c1.36974,-0.15816 1.4621,-0.25251 1.4052,-1.43734l-0.0503,-1.03916l-1.07369,-0.0437c-0.98463,-0.03885 -1.07369,-0.01804 -1.07369,0.2532c0,0.24904 0.10885,0.29621 0.68693,0.29621l0.68693,0l0,0.58132c0,0.9573 -1.29387,1.11199 -2.14903,0.25736c-1.32026,-1.3201 0.22348,-3.30129 2.06656,-2.65338c0.83207,0.29205 0.94175,0.28372 0.94175,-0.07145c0,-0.63196 -1.83071,-0.92192 -2.9176,-0.462m6.96084,-0.00832c-1.08276,2.28087 -1.76474,4.21836 -1.5124,4.30022c0.34635,0.11168 0.59539,-0.09296 0.83454,-0.68606c0.29852,-0.73948 2.08635,-0.71451 2.3857,0.0333c0.23173,0.57785 0.67291,0.87752 0.95082,0.64444c0.36697,-0.30939 -1.54951,-4.4563 -2.08388,-4.50902c-0.30759,-0.02983 -0.49066,0.03954 -0.57478,0.21713m3.59133,-0.05758c-0.22595,0.49599 0.01155,4.36473 0.26801,4.36473c0.20946,0 0.27378,-0.31632 0.34388,-1.69123l0.08576,-1.69123l1.05307,1.61908c0.96649,1.4852 1.09843,1.62255 1.59404,1.66487l0.54014,0.04509l-0.047,-2.21289c-0.04536,-2.10398 -0.06432,-2.21358 -0.39088,-2.21358c-0.31996,0 -0.348,0.11099 -0.39583,1.58995l-0.05113,1.58926l-0.89309,-1.38739c-1.19491,-1.85563 -1.80433,-2.34053 -2.10697,-1.67666m5.37917,-0.10683c-0.07092,0.06174 -0.12864,1.08355 -0.12864,2.27116l0,2.15878l1.37221,-0.05203c2.22737,-0.08532 3.36456,-1.75089 2.33622,-3.42269c-0.43376,-0.70618 -3.06026,-1.40681 -3.57979,-0.95522m7.8663,0.16441c-1.08276,2.28087 -1.76474,4.21836 -1.51323,4.30022c0.34635,0.11168 0.59539,-0.09296 0.83537,-0.68606c0.29852,-0.73948 2.08635,-0.71451 2.3857,0.0333c0.23173,0.57785 0.67291,0.87752 0.94999,0.64444c0.36779,-0.30939 -1.54951,-4.4563 -2.08388,-4.50902c-0.30677,-0.02983 -0.48984,0.03954 -0.57395,0.21713m3.34394,1.57122c0,1.97009 0.09566,2.25936 0.85516,2.59026c1.16275,0.5057 2.58939,0.06937 2.92584,-0.89487c0.34058,-0.97672 0.15503,-3.43934 -0.25894,-3.43934c-0.31996,0 -0.34965,0.12001 -0.42964,1.71135c-0.09648,1.92154 -0.38841,2.39047 -1.36314,2.19c-0.85598,-0.1762 -0.95164,-0.38916 -1.01349,-2.2441c-0.05278,-1.59134 -0.08329,-1.72938 -0.38676,-1.72938c-0.30677,0 -0.32903,0.12278 -0.32903,1.81609m4.75326,-1.71967c-0.39748,0.33367 -0.08989,0.62571 0.65889,0.62571l0.77269,0l0,1.86327c0,1.87714 0.07422,2.10051 0.64405,1.93333c0.15668,-0.04578 0.21523,-0.56606 0.21523,-1.92986l0,-1.86673l0.77269,0c0.71002,0 0.77352,-0.02914 0.77352,-0.36072l0,-0.36142l-1.86123,0c-1.02421,0 -1.91318,0.04301 -1.97585,0.09642m4.90005,0.19632c-1.88597,0.96701 -1.25511,4.09072 0.86753,4.29189c2.13336,0.20187 3.42475,-1.7058 2.46404,-3.64051c-0.45438,-0.9136 -2.16717,-1.24865 -3.33157,-0.65138m4.68152,-0.10544c-0.22595,0.49599 0.01155,4.36473 0.26801,4.36473c0.21111,0 0.27378,-0.32604 0.34388,-1.78002l0.08576,-1.77933l0.77352,1.74117c1.09101,2.45776 1.26666,2.45637 2.42034,-0.02289l0.75785,-1.62741l0.04783,1.68429c0.04865,1.69192 0.174,1.99854 0.7026,1.72383c0.44448,-0.231 0.17565,-4.4119 -0.2878,-4.4667c-0.60117,-0.07214 -0.79908,0.14914 -1.59899,1.78765c-0.40573,0.83105 -0.79248,1.46162 -0.86011,1.40265c-0.06845,-0.05966 -0.4115,-0.7263 -0.7628,-1.48104c-0.3513,-0.75543 -0.7595,-1.45468 -0.90546,-1.55388c-0.34635,-0.23516 -0.87577,-0.23169 -0.98463,0.00694m8.09143,0.05758c-1.08276,2.28087 -1.76474,4.21836 -1.51323,4.30022c0.34635,0.11168 0.59539,-0.09296 0.83537,-0.68606c0.29852,-0.73948 2.08635,-0.71451 2.3857,0.0333c0.23173,0.57785 0.67291,0.87752 0.94999,0.64444c0.36779,-0.30939 -1.54951,-4.4563 -2.08388,-4.50902c-0.30677,-0.02983 -0.48984,0.03954 -0.57395,0.21713m2.25623,-0.14845c-0.39748,0.33367 -0.08989,0.62571 0.65807,0.62571l0.77352,0l0,1.86327c0,1.87714 0.07422,2.10051 0.64405,1.93333c0.15668,-0.04578 0.21441,-0.56606 0.21441,-1.92986l0,-1.86673l0.77352,0c0.71002,0 0.77269,-0.02914 0.77269,-0.36072l0,-0.36142l-1.86123,0c-1.02339,0 -1.91235,0.04301 -1.97503,0.09642m4.56194,2.17959c0.04041,1.90905 0.08906,2.27601 0.30512,2.27601c0.21606,0 0.26554,-0.36696 0.30512,-2.27601c0.04618,-2.2115 0.03711,-2.27601 -0.30512,-2.27601c-0.34223,0 -0.35047,0.06451 -0.30512,2.27601m2.7436,-1.98327c-1.88679,0.96701 -1.25511,4.09072 0.86753,4.29189c2.13336,0.20187 3.42393,-1.7058 2.46322,-3.64051c-0.45438,-0.9136 -2.16635,-1.24865 -3.33075,-0.65138m4.85304,-0.10544c-0.22678,0.49599 0.01155,4.36473 0.26801,4.36473c0.20946,0 0.27378,-0.31632 0.34388,-1.69123l0.08576,-1.69123l1.05307,1.61908c0.96566,1.4852 1.0976,1.62255 1.59404,1.66487l0.54014,0.04509l-0.04783,-2.21289c-0.04453,-2.10398 -0.06432,-2.21358 -0.39088,-2.21358c-0.31914,0 -0.34718,0.11099 -0.39501,1.58995l-0.05113,1.58926l-0.89392,-1.38739c-1.19409,-1.85563 -1.8035,-2.34053 -2.10615,-1.67666m6.96826,2.05264l0,2.23994l1.37468,0c1.25923,0 1.37386,-0.02428 1.37386,-0.28927c0,-0.25667 -0.11463,-0.28858 -1.03081,-0.28858l-1.03081,0l0,-1.95136c0,-1.85425 -0.01649,-1.95067 -0.34305,-1.95067c-0.32903,0 -0.34388,0.09642 -0.34388,2.23994m3.47423,0.03607c0.04041,1.90905 0.08906,2.27601 0.30512,2.27601c0.21606,0 0.26554,-0.36696 0.30512,-2.27601c0.04618,-2.2115 0.03711,-2.27601 -0.30512,-2.27601c-0.34223,0 -0.35047,0.06451 -0.30512,2.27601m2.09872,-2.08872c-0.22595,0.49599 0.01155,4.36473 0.26801,4.36473c0.21111,0 0.27378,-0.32604 0.34388,-1.78002l0.08576,-1.77933l0.77352,1.74117c1.09101,2.45776 1.26666,2.45637 2.42034,-0.02289l0.75785,-1.62741l0.04783,1.68429c0.04865,1.69192 0.174,1.99854 0.7026,1.72383c0.44448,-0.231 0.17565,-4.4119 -0.2878,-4.4667c-0.60117,-0.07214 -0.79908,0.14914 -1.59899,1.78765c-0.40573,0.83105 -0.79248,1.46162 -0.86011,1.40265c-0.06845,-0.05966 -0.4115,-0.7263 -0.7628,-1.48104c-0.3513,-0.75543 -0.7595,-1.45468 -0.90546,-1.55388c-0.34635,-0.23516 -0.87577,-0.23169 -0.98463,0.00694m6.83549,2.08872c0.03958,1.90905 0.08906,2.27601 0.30512,2.27601c0.21606,0 0.26471,-0.36696 0.30512,-2.27601c0.04536,-2.2115 0.03711,-2.27601 -0.30512,-2.27601c-0.34223,0 -0.3513,0.06451 -0.30512,2.27601m1.45055,-2.17959c-0.39748,0.33367 -0.08989,0.62571 0.65807,0.62571l0.77352,0l0,1.86327c0,1.87714 0.07422,2.10051 0.64405,1.93333c0.15668,-0.04578 0.21441,-0.56606 0.21441,-1.92986l0,-1.86673l0.77352,0c0.71002,0 0.77269,-0.02914 0.77269,-0.36072l0,-0.36142l-1.86123,0c-1.02339,0 -1.91235,0.04301 -1.97503,0.09642m4.64523,-0.00555c-0.0668,0.0555 -0.12122,1.06621 -0.12122,2.24549l0,2.14352l1.46045,0c1.345,0 1.45962,-0.02289 1.45962,-0.28927c0,-0.25944 -0.11463,-0.28858 -1.11657,-0.28858l-1.11657,0l0,-0.72283l0,-0.72283l0.94504,0c0.83042,0 0.94504,-0.03468 0.94504,-0.28858c0,-0.25389 -0.11463,-0.28927 -0.94504,-0.28927l-0.94504,0l0,-0.57091l0,-0.5716l1.07369,-0.04301c0.94257,-0.03746 1.07369,-0.07839 1.07369,-0.33159c0,-0.2969 -2.39807,-0.53623 -2.71309,-0.27054m3.95913,-0.01041c-0.07092,0.06174 -0.12947,1.08355 -0.12947,2.27116l0,2.15878l1.37221,-0.05203c2.22737,-0.08532 3.36456,-1.75089 2.33705,-3.42269c-0.43459,-0.70618 -3.06026,-1.40681 -3.57979,-0.95522m-54.70289,0.65762c1.47199,0.56467 0.94257,3.22152 -0.64157,3.22152c-1.03328,0 -1.39283,-0.43009 -1.39283,-1.66417c0,-1.41791 0.79991,-2.03045 2.0344,-1.55735m22.33389,0c1.47199,0.56467 0.94257,3.22152 -0.64157,3.22152c-1.03246,0 -1.39283,-0.43009 -1.39283,-1.66417c0,-1.41791 0.79991,-2.03045 2.0344,-1.55735m-71.55618,0.48281c0.06762,0.50362 -0.31749,0.80191 -1.03576,0.80191c-0.4585,0 -0.48242,-0.0326 -0.48242,-0.65832l0,-0.65901l0.72981,0.0444c0.66714,0.04093 0.73558,0.08186 0.78836,0.47102m28.62511,-0.40859c1.56765,0.5057 0.823,3.07376 -0.89392,3.08486l-0.73064,0.00486l0,-1.58995l0,-1.58995l0.67374,0c0.37027,0 0.79826,0.04093 0.95082,0.09018m77.48209,0c1.56765,0.5057 0.82382,3.07376 -0.89392,3.08486l-0.72981,0.00486l0,-1.58995l0,-1.58995l0.67291,0c0.37027,0 0.79826,0.04093 0.95082,0.09018m-147.41124,1.75297c0.11545,0.30523 0.07422,0.32465 -0.68033,0.32465c-0.57148,0 -0.77929,-0.05203 -0.72074,-0.18036c0.04536,-0.0992 0.2243,-0.56051 0.3983,-1.02459l0.31584,-0.84353l0.28203,0.69924c0.15586,0.38431 0.3381,0.84561 0.4049,1.02459m59.95919,0c0.11463,0.30523 0.07422,0.32465 -0.68033,0.32465c-0.5723,0 -0.78012,-0.05203 -0.72157,-0.18036c0.04536,-0.0992 0.2243,-0.56051 0.3983,-1.02459l0.31584,-0.84353l0.28285,0.69924c0.15503,0.38431 0.33728,0.84561 0.4049,1.02459m16.83597,0c0.11545,0.30523 0.07422,0.32465 -0.68033,0.32465c-0.57148,0 -0.77929,-0.05203 -0.72074,-0.18036c0.04536,-0.0992 0.2243,-0.56051 0.3983,-1.02459l0.31584,-0.84353l0.28203,0.69924c0.15586,0.38431 0.3381,0.84561 0.4049,1.02459m25.77019,0c0.11545,0.30523 0.07422,0.32465 -0.68033,0.32465c-0.57148,0 -0.77929,-0.05203 -0.72074,-0.18036c0.04536,-0.0992 0.2243,-0.56051 0.3983,-1.02459l0.31584,-0.84353l0.28203,0.69924c0.15586,0.38431 0.3381,0.84561 0.4049,1.02459" id="svg_1"/>
   <path fill-rule="evenodd" fill="#04b3c3" d="m52.12836,1.72303c0.1138,0.36627 -1.22542,1.60382 -1.73588,1.60382c-0.44613,0 -0.522,0.58132 -0.11298,0.86712c0.57066,0.39818 -0.10391,1.84037 -0.77682,1.66071c-0.30842,-0.08186 -0.33975,-0.0222 -0.33975,0.63681c0,0.56467 0.0536,0.71034 0.23997,0.65069c0.4082,-0.1318 0.4717,0.19146 0.15091,0.76584c-0.22925,0.41136 -0.42387,0.56051 -0.77764,0.5945c-0.62756,0.06105 -0.75125,1.47202 -0.12864,1.47202c0.44201,0 0.43459,0.2865 -0.02474,0.94134c-0.30265,0.43148 -0.44036,0.50987 -0.77269,0.43911c-0.35872,-0.07561 -0.40573,-0.03538 -0.40573,0.35101c0,0.29551 0.08494,0.43633 0.26306,0.43633c0.43624,0 0.46922,0.37113 0.08906,0.99753c-0.27461,0.45298 -0.45933,0.59242 -0.78506,0.59242c-0.48819,0 -0.60282,0.82966 -0.23585,1.71481c0.22678,0.54802 -0.15173,1.17512 -0.7092,1.17512c-0.40573,0 -0.49314,1.09812 -0.127,1.59134c0.17318,0.23308 0.15751,0.41622 -0.08576,0.99268c-0.16493,0.38847 -0.29852,0.84145 -0.29852,1.00586c0,0.6826 -0.7092,1.61284 -1.22955,1.61284c-0.36037,0 -0.44366,0.85879 -0.16246,1.6829c0.20369,0.59797 -0.11545,1.14876 -0.63745,1.10089c-0.44201,-0.04023 -0.54921,0.67288 -0.14431,0.95591c0.60776,0.42385 -0.15833,2.12479 -0.88649,1.97079c-0.40078,-0.08463 -0.41645,-0.06521 -0.30017,0.38778c0.35377,1.37768 0.33893,1.54 -0.15256,1.72869c-0.38181,0.14637 -0.49066,0.14151 -0.62013,-0.03122c-0.09813,-0.12972 -0.15751,0.84284 -0.15916,2.58332c-0.00247,2.59303 0.01814,2.78657 0.2977,2.71304c0.57973,-0.15192 1.07369,0.47796 1.07369,1.36935c0,0.27193 0.08824,0.42454 0.24657,0.42454c0.14101,0 0.26966,0.16996 0.30017,0.39749c0.03876,0.28441 0.1641,0.40997 0.44119,0.44327c0.36532,0.0437 0.4585,0.17065 0.40408,0.55218c-0.03876,0.26707 1.14131,0.31494 1.45138,0.05896c0.33233,-0.2754 0.78424,0.11446 0.64652,0.55842c-0.14101,0.45368 0.78754,0.50362 0.99122,0.05411l0.16081,-0.35656l0.56818,0.41067c0.35377,0.25597 0.54014,0.5057 0.49314,0.66317c-0.0668,0.22823 0.09483,0.2532 1.66414,0.2532l1.73835,0l0,-0.36142l0,-0.36142l11.42465,0l11.42465,0l0,0.36142c0,0.34199 0.0503,0.36142 0.95741,0.36142c0.82135,0 0.94834,-0.03607 0.89474,-0.2532c-0.04123,-0.16579 0.1138,-0.32742 0.44778,-0.46963c0.42552,-0.18036 0.54921,-0.36003 0.74136,-1.07592c0.12617,-0.47241 0.38346,-0.9795 0.56983,-1.12587c0.24904,-0.19493 0.34058,-0.45506 0.34058,-0.9677c0,-0.72491 0.15091,-0.87683 0.87248,-0.87683c0.27048,0 0.32986,-0.10475 0.32986,-0.57854c0,-0.48142 -0.0569,-0.57785 -0.34388,-0.57785c-0.18884,0 -0.34305,-0.06937 -0.34305,-0.154c0,-0.08879 0.14596,-0.11515 0.34305,-0.06313c0.30924,0.08324 0.34388,0.02636 0.34388,-0.56814l0,-0.6597l-3.44784,0c-3.34971,0 -3.44455,0.00763 -3.33982,0.28372c0.12535,0.33367 -0.36532,0.48906 -1.30624,0.41344c-0.45191,-0.03677 -0.59457,-0.12001 -0.63663,-0.37251c-0.04865,-0.2865 -0.15503,-0.32465 -0.90051,-0.32465c-0.77352,0 -0.84114,0.02705 -0.80403,0.32465c0.03299,0.25805 -0.0569,0.33505 -0.43129,0.37113c-0.40655,0.03954 -0.47252,-0.00555 -0.47252,-0.32534c0,-0.53484 -1.65919,-0.57785 -1.74907,-0.04578c-0.05278,0.31216 -0.13277,0.32742 -1.94452,0.36766c-2.29911,0.05064 -2.72298,-0.01595 -2.57537,-0.40859c0.10391,-0.27401 0.01402,-0.28372 -2.5729,-0.28372c-2.61825,0 -2.6834,-0.00763 -2.83513,-0.32534c-0.14926,-0.31147 -0.15586,-0.308 -0.16658,0.077c-0.01319,0.48906 -0.48407,0.69023 -0.79084,0.33714c-0.11792,-0.13596 -0.17482,-0.3739 -0.12617,-0.52929c0.05195,-0.16926 0.00082,-0.28233 -0.12864,-0.28233c-0.11875,0 -0.31831,-0.11377 -0.44366,-0.2532c-0.20699,-0.22892 -0.22925,-0.21505 -0.2342,0.15539c-0.00825,0.65069 -0.54839,0.43842 -0.80898,-0.31771c-0.11957,-0.34685 -0.34635,-0.70965 -0.50386,-0.80677c-0.82217,-0.5057 -0.3546,-2.96902 0.56323,-2.96902c0.44696,0 0.44943,-0.00486 0.34223,-0.86712l-0.10803,-0.86712l0.5352,0l0.53437,0l-0.1138,-0.72214c-0.10391,-0.66179 -0.08411,-0.72283 0.23585,-0.72283c0.24987,0 0.34965,-0.09434 0.34965,-0.33228c0,-0.68606 -0.08659,-0.67913 8.80722,-0.67913c5.74283,0 8.50622,-0.04995 8.7462,-0.15816c0.25317,-0.11446 0.40243,-0.11446 0.53849,0c0.59292,0.49946 3.55505,0.09226 3.55505,-0.48906c0,-0.48281 0.55664,-0.94412 1.01761,-0.84284c0.48737,0.10683 0.49561,-0.69994 0.01319,-1.21674c-0.54097,-0.57785 -0.22595,-1.05095 0.6993,-1.05095c0.67374,0 0.77847,-0.94689 0.11628,-1.05442l-0.38593,-0.06243l0.38593,-0.01942c0.33316,-0.01734 0.38676,-0.10059 0.38676,-0.59797l0,-0.57785l-10.79049,0c-12.17177,0 -11.54339,0.05688 -11.27209,-1.02806c0.13524,-0.54455 0.2243,-0.64028 0.63003,-0.67982c0.57395,-0.0555 0.74218,-1.61978 0.20204,-1.87367c-0.35707,-0.16857 -0.16328,-1.11199 0.31089,-1.51087c0.23337,-0.19632 0.30842,-0.40165 0.24327,-0.66664c-0.12617,-0.51958 0.35707,-1.56775 0.76445,-1.65724c0.19379,-0.04301 0.32656,-0.19909 0.32656,-0.38431c0,-0.93926 -1.07286,-0.87059 13.63882,-0.87059c14.37688,0 14.36451,0.00069 14.36451,-0.7367c0,-0.46963 0.58962,-1.05997 0.94422,-0.94551c0.29275,0.09434 0.43047,-0.2088 0.43047,-0.94551c0,-1.01765 0.64487,-1.82997 1.12977,-1.42277c0.30017,0.2532 1.15121,-0.04648 1.2213,-0.43009c0.03464,-0.19215 0.13607,-0.38639 0.22595,-0.43356c0.08906,-0.04648 0.21441,-0.55287 0.27791,-1.12587l0.11463,-1.04193l-1.04318,0c-0.95164,0 -1.04813,0.02914 -1.09843,0.32534l-0.05443,0.32534l-18.38301,0l-18.38301,0l0.04123,-0.32534c0.03711,-0.29482 -0.03216,-0.32534 -0.75043,-0.32534c-0.6927,0 -0.78012,0.03468 -0.7059,0.2754m54.39612,0.59311c-0.15256,0.07492 -1.24851,0.23169 -2.436,0.34823c-1.33263,0.13111 -2.41044,0.31841 -2.81534,0.48906c-0.36037,0.15192 -0.91618,0.31771 -1.2345,0.36905c-0.62756,0.10059 -1.90741,0.70965 -2.49208,1.18552c-0.20121,0.16371 -0.67456,0.4842 -1.05225,0.71173c-0.71497,0.43148 -1.6196,1.21952 -1.62785,1.41722c-0.00247,0.06313 -0.31419,0.36142 -0.69188,0.66387c-0.37769,0.30245 -0.68693,0.66872 -0.68693,0.8144c0,0.14498 -0.10308,0.36627 -0.2276,0.49183c-0.36944,0.36974 -1.31696,2.55488 -1.42994,3.29852c-0.05773,0.37806 -0.25894,0.90319 -0.44778,1.1668c-0.2441,0.3413 -0.34965,0.76376 -0.36614,1.47133c-0.01979,0.82966 -0.09071,1.05164 -0.43294,1.35826c-0.2878,0.25736 -0.43541,0.5938 -0.49561,1.13003c-0.04783,0.41969 -0.17977,0.89348 -0.29357,1.05234c-0.27048,0.37668 -0.68775,1.92639 -0.55086,2.04224c0.05855,0.04925 -0.05855,0.35725 -0.26059,0.68537c-0.20121,0.32812 -0.42552,0.94897 -0.49726,1.37976c-0.07422,0.44466 -0.30017,0.97534 -0.52365,1.22853c-0.29852,0.33783 -0.40902,0.68815 -0.45933,1.45676c-0.03628,0.55634 -0.13524,1.08355 -0.22018,1.17165c-0.24739,0.25875 -0.66302,1.53445 -0.66466,2.04363c-0.00165,0.36558 -0.07504,0.46963 -0.33068,0.46963c-0.37934,0 -0.56241,0.64097 -0.50798,1.77239c0.02639,0.54108 -0.0503,0.76306 -0.35707,1.03777c-0.29935,0.26846 -0.4115,0.57854 -0.48242,1.33536c-0.07422,0.78734 -0.17318,1.04887 -0.49644,1.30345c-0.33975,0.26777 -0.4049,0.45992 -0.4049,1.20772c0,0.73393 -0.07339,0.96285 -0.42222,1.31178c-0.46592,0.46547 -0.66466,1.10852 -0.5789,1.86881l0.0569,0.49599l1.03081,-0.06868c1.24851,-0.08394 1.77546,-0.077 5.43194,0.06937c4.40278,0.17689 5.30495,-0.32465 5.30495,-2.94612c0,-0.22614 0.16081,-0.5834 0.35707,-0.79289c0.19792,-0.21158 0.42222,-0.75197 0.50303,-1.21189c0.08082,-0.45715 0.30677,-1.08841 0.50221,-1.40265c0.2375,-0.38292 0.35625,-0.84423 0.35625,-1.39016c0,-0.62155 0.08989,-0.9129 0.37604,-1.21882c0.2845,-0.30453 0.39913,-0.67427 0.47335,-1.52335c0.07257,-0.82966 0.18637,-1.20287 0.43541,-1.43456c0.2243,-0.20811 0.34965,-0.55287 0.37274,-1.02181c0.01979,-0.38916 0.15091,-0.88793 0.29192,-1.10922c0.4651,-0.72907 0.76445,-1.55526 0.76445,-2.11091c0,-0.3191 0.12617,-0.66456 0.301,-0.82688c0.21111,-0.19632 0.32574,-0.61323 0.38593,-1.39918c0.06185,-0.81301 0.1806,-1.22715 0.43129,-1.51295c0.19049,-0.21713 0.40573,-0.76029 0.47747,-1.20703c0.07257,-0.44674 0.26059,-0.93302 0.41892,-1.08008c0.16823,-0.15608 0.37521,-0.76584 0.49891,-1.46855c0.11628,-0.6604 0.30182,-1.34299 0.41232,-1.51642c0.1105,-0.17412 0.20121,-0.45368 0.20121,-0.62155c0,-0.40928 0.48737,-1.18344 0.89804,-1.42762c0.23008,-0.13666 0.30182,-0.29898 0.23255,-0.52929c-0.10308,-0.34685 0.69848,-1.08008 1.18089,-1.08008c0.12287,0 0.31584,-0.09365 0.42799,-0.20741c0.11298,-0.11446 0.45108,-0.25181 0.75125,-0.30523c0.301,-0.05341 0.71167,-0.22476 0.91453,-0.38084c0.21523,-0.16579 0.76197,-0.32881 1.32026,-0.39263c0.52365,-0.05966 1.0572,-0.18105 1.18502,-0.27054c0.43789,-0.30592 16.07153,-0.29551 16.75268,0.0111c0.88979,0.39957 0.98875,1.64961 0.18802,2.36619c-0.28368,0.25459 -0.37934,0.50224 -0.35955,0.93025c0.01567,0.32118 -0.15338,1.01765 -0.37521,1.54833c-0.22183,0.52998 -0.43954,1.26807 -0.48407,1.6399c-0.04618,0.38223 -0.23997,0.84492 -0.44778,1.0669c-0.21276,0.22753 -0.36614,0.60005 -0.36614,0.89001c0,0.27401 -0.2276,0.97742 -0.50633,1.5629c-0.31172,0.65415 -0.49561,1.29097 -0.47912,1.65238c0.02309,0.48697 -0.06762,0.66872 -0.52695,1.05511l-0.55499,0.46755l-8.54416,0.07631c-4.69883,0.04232 -8.56312,0.09157 -8.58704,0.10891c-0.02391,0.01734 -0.04288,0.38361 -0.04288,0.81509c0,0.62502 -0.08659,0.87059 -0.42964,1.21327c-0.36037,0.36003 -0.42964,0.57785 -0.42964,1.35687c0,0.63126 -0.10968,1.11824 -0.34305,1.52544c-0.65807,1.14529 -1.06709,1.09326 8.2778,1.05442l8.02051,-0.03399l0.20369,0.5723c0.1773,0.49738 0.15503,0.68051 -0.16493,1.40057c-0.24987,0.56189 -0.33398,0.98505 -0.26059,1.31247c0.08989,0.40512 0.03134,0.54316 -0.36119,0.84978c-0.37356,0.29135 -0.49479,0.54941 -0.59622,1.27085c-0.07009,0.49877 -0.29192,1.16402 -0.49314,1.47826c-0.25317,0.39541 -0.36697,0.83105 -0.36697,1.40404c0,0.64791 -0.07587,0.8907 -0.348,1.10367c-1.37881,1.08008 -0.74301,1.82927 1.44148,1.69886c0.95741,-0.05758 2.08965,-0.09989 2.51435,-0.09434c0.42552,0.00555 1.92802,0.01249 3.33899,0.01595l2.5663,0.00624l0.37851,-0.39957c0.41892,-0.44188 0.93185,-1.67389 0.93185,-2.23855c0,-0.19978 0.19379,-0.66942 0.42964,-1.04262c0.23667,-0.3739 0.42964,-0.89695 0.42964,-1.16125c0,-0.26499 0.18555,-0.96077 0.41232,-1.54625c0.22595,-0.58548 0.4552,-1.31594 0.50798,-1.62394c0.05278,-0.308 0.21028,-0.66664 0.35047,-0.79706c0.14019,-0.12972 0.33151,-0.63681 0.42469,-1.12587c0.09401,-0.48906 0.2944,-1.09049 0.44531,-1.33536c0.15091,-0.24557 0.34058,-0.8907 0.42139,-1.43317c0.08082,-0.54247 0.22843,-1.1113 0.32821,-1.26391c0.31089,-0.47726 0.71744,-1.6829 0.71744,-2.12895c0,-0.23447 0.16658,-0.65346 0.37109,-0.93163c0.23832,-0.32396 0.36119,-0.71034 0.34388,-1.08078c-0.01979,-0.42454 0.08576,-0.68745 0.40243,-1.00447c0.24245,-0.2421 0.42882,-0.61184 0.42882,-0.84908c0,-0.231 0.23173,-1.00725 0.5154,-1.72522c0.28368,-0.71797 0.51705,-1.48312 0.51788,-1.70025c0.00165,-0.21713 0.35377,-1.24102 0.78176,-2.27393c0.42882,-1.03361 0.84856,-2.26075 0.93267,-2.72761c0.09318,-0.5168 0.2911,-0.97256 0.50633,-1.16541c0.24904,-0.22268 0.35377,-0.50987 0.35377,-0.96632c0,-0.35795 0.19297,-1.06482 0.42964,-1.57191c0.23585,-0.50709 0.42964,-1.18275 0.42964,-1.50116c0,-0.38569 0.14679,-0.75682 0.44036,-1.11338c0.57478,-0.69855 0.54509,-1.69747 -0.05855,-1.94998c-0.49974,-0.20811 -32.7937,-0.26569 -33.21592,-0.05896m-51.89662,22.10113c0.04288,0.10891 -0.02144,0.16302 -0.15009,0.12695c-0.1237,-0.03538 -0.25894,-0.14914 -0.301,-0.2532c-0.04288,-0.10822 0.02144,-0.16232 0.15091,-0.12625c0.1237,0.03468 0.25894,0.14845 0.30017,0.25251" id="svg_2"/>
   <path fill-rule="evenodd" fill="#4bb9b8" d="m104.26248,1.78199c0.10143,0.44605 -0.28038,0.68606 -1.18584,0.74503c-1.30871,0.08532 -2.19026,0.25251 -2.38735,0.45229c-0.10638,0.10752 -0.475,0.23794 -0.8197,0.28927c-0.3447,0.05203 -0.7463,0.18175 -0.89227,0.28927c-0.475,0.34685 -1.90411,0.93094 -2.06821,0.84492c-0.37274,-0.19354 -0.87577,0.09989 -0.77104,0.45021c0.07752,0.26152 0.00082,0.39957 -0.32244,0.57715c-1.54869,0.85394 -4.21971,4.89541 -4.24115,6.41737c-0.0066,0.45506 -0.14266,0.82203 -0.44531,1.19801c-0.35377,0.43842 -0.44201,0.73324 -0.46592,1.54971c-0.02309,0.82342 -0.09896,1.07107 -0.4115,1.35062c-0.25564,0.22961 -0.41562,0.60074 -0.48324,1.12379c-0.05608,0.4294 -0.20534,0.92123 -0.33151,1.09188c-0.12617,0.17065 -0.32574,0.7478 -0.44283,1.28264c-0.23337,1.06482 -0.52035,1.42624 -1.02586,1.29097c-0.40243,-0.10683 -0.41315,0.66317 -0.01567,1.19246c0.301,0.40165 0.14101,1.08494 -0.41562,1.77378c-0.31337,0.38778 -0.40655,0.69786 -0.40655,1.35062c0,0.60143 -0.09483,0.95938 -0.32656,1.23408c-0.1806,0.21227 -0.38429,0.71034 -0.45356,1.10575c-0.07422,0.41899 -0.29605,0.8907 -0.5319,1.12864c-0.3447,0.34685 -0.40573,0.56675 -0.40573,1.46162c0,0.8477 -0.07009,1.12795 -0.35707,1.43456c-0.20616,0.22129 -0.4181,0.74642 -0.50221,1.24726c-0.08411,0.50085 -0.29522,1.02667 -0.50221,1.24726c-0.27708,0.29621 -0.35625,0.58895 -0.35625,1.31108c0,0.75266 -0.07752,1.01696 -0.4082,1.38947c-0.89144,1.00655 -0.65065,2.96485 0.33893,2.75605c0.29028,-0.06105 0.54014,-0.00347 0.78341,0.18036c0.34883,0.2643 0.3546,0.2636 0.29192,-0.01942c-0.05195,-0.23239 -0.22348,-0.2976 -0.87907,-0.33297l-0.81475,-0.0437l0,-0.94689c0,-0.79914 0.06762,-1.01418 0.42964,-1.37629c0.35955,-0.35933 0.42964,-0.57924 0.42964,-1.34646c0,-0.75266 0.07257,-0.9906 0.40655,-1.32565c0.29028,-0.29205 0.42882,-0.64722 0.48654,-1.24449c0.05525,-0.56744 0.20864,-0.98088 0.47994,-1.28889c0.32574,-0.37043 0.40243,-0.6486 0.4181,-1.50462c0.01649,-0.87406 0.08411,-1.10783 0.40243,-1.39363c0.21111,-0.18869 0.38346,-0.46131 0.38346,-0.6056c0,-0.41622 0.38099,-1.43109 0.63085,-1.68082c0.13277,-0.1325 0.22925,-0.58756 0.2309,-1.08425c0.00247,-0.68676 0.10391,-0.99823 0.51293,-1.57816c0.39748,-0.56467 0.50963,-0.89764 0.51211,-1.52127c0.00247,-0.61808 0.08082,-0.85533 0.34635,-1.04679c0.32491,-0.23378 0.42552,-0.50501 0.35295,-0.95036c-0.03464,-0.21366 0.44448,-1.51642 0.72321,-1.96801c0.09566,-0.15539 0.19297,-0.59797 0.21441,-0.98227c0.02886,-0.5057 0.15338,-0.80052 0.44696,-1.06343c0.33233,-0.2976 0.42469,-0.57438 0.50633,-1.50671c0.07092,-0.80954 0.19049,-1.22576 0.40985,-1.4304c0.19462,-0.18036 0.35295,-0.63473 0.42469,-1.21743c0.06267,-0.51056 0.19792,-1.01696 0.29935,-1.12448c0.10226,-0.10752 0.28203,-0.45576 0.40078,-0.77347c0.65312,-1.75574 2.19768,-3.70294 3.76204,-4.74418c0.25482,-0.16926 0.36532,-0.3628 0.30924,-0.54178c-0.09813,-0.31563 0.05773,-0.36142 0.36119,-0.10614c0.15916,0.13388 0.31419,0.08532 0.68858,-0.21643c0.26554,-0.21435 0.55993,-0.38916 0.65477,-0.38916c0.09483,0 0.43376,-0.16302 0.75373,-0.36142c0.32079,-0.19909 0.78754,-0.36142 1.03905,-0.36142c0.25069,0 0.8197,-0.16232 1.26418,-0.36142c0.47994,-0.21505 1.10008,-0.3635 1.52889,-0.36627c2.51847,-0.01873 4.47041,-0.90319 2.66443,-1.20703c-1.03328,-0.17412 -1.30129,-0.12001 -1.21883,0.24557m36.16238,0.83035c-0.03051,1.06482 -0.09566,1.30415 -0.4651,1.72591c-0.2977,0.33922 -0.42964,0.67635 -0.42964,1.09743c0,0.34477 -0.18555,0.94343 -0.42799,1.38115c-0.25894,0.46894 -0.42799,1.03499 -0.42964,1.43942c-0.00082,0.47865 -0.12782,0.82342 -0.45026,1.22298c-0.31089,0.38431 -0.44613,0.7374 -0.43789,1.14043c0.0066,0.32049 -0.13854,0.82758 -0.32161,1.12656c-0.1839,0.29898 -0.44531,0.99337 -0.5822,1.54347c-0.13607,0.5501 -0.36944,1.15708 -0.5187,1.34924c-0.14926,0.19146 -0.30512,0.71242 -0.34553,1.15778c-0.04041,0.44535 -0.19956,0.97187 -0.35377,1.16888c-0.15338,0.1977 -0.39088,0.89695 -0.52695,1.55388c-0.15998,0.77139 -0.36944,1.30415 -0.58962,1.50116c-0.24327,0.21713 -0.3414,0.5057 -0.3414,0.99823c0,0.5279 -0.10226,0.79428 -0.42964,1.1217c-0.32821,0.32812 -0.42964,0.5938 -0.42964,1.12656c0,0.4398 -0.15833,0.98297 -0.42799,1.46994c-0.29935,0.54178 -0.42799,1.02389 -0.42964,1.61007c-0.00082,0.63196 -0.09318,0.94134 -0.37604,1.26391c-0.23008,0.26152 -0.42222,0.7589 -0.49561,1.2868c-0.07504,0.53276 -0.25894,1.00794 -0.48407,1.24865c-0.21853,0.23378 -0.36367,0.59797 -0.36367,0.9136c0,0.28858 -0.15998,0.77555 -0.35542,1.08216c-0.21771,0.3413 -0.39253,0.95799 -0.45191,1.58787c-0.07174,0.77139 -0.19874,1.14529 -0.50303,1.48936c-0.27461,0.31008 -0.40738,0.65485 -0.40738,1.0558c0,0.32742 -0.15668,0.88446 -0.348,1.23755c-0.59869,1.10644 -0.67703,1.3534 -0.57148,1.79945c0.13607,0.57299 0.36614,0.56051 0.26636,-0.01457c-0.0503,-0.2865 0.06185,-0.68398 0.31172,-1.10506c0.21523,-0.36211 0.44036,-1.05927 0.50056,-1.54902c0.07339,-0.59588 0.23585,-1.02667 0.49066,-1.2986c0.26306,-0.28164 0.38099,-0.6056 0.38099,-1.04817c0,-0.3517 0.09401,-0.78179 0.20946,-0.95591c0.2944,-0.44258 0.6325,-1.53099 0.64157,-2.06652c0.00412,-0.24765 0.16823,-0.62155 0.36449,-0.83174c0.21606,-0.231 0.41974,-0.75682 0.51705,-1.33536c0.09401,-0.55981 0.30182,-1.10506 0.50221,-1.31941c0.24574,-0.26291 0.34223,-0.58548 0.34223,-1.14945c0,-0.53484 0.13524,-1.02528 0.42552,-1.54208c0.25152,-0.44674 0.45026,-1.09465 0.48489,-1.58232c0.04041,-0.5723 0.1773,-0.96077 0.44613,-1.26599c0.25729,-0.29343 0.3983,-0.67566 0.42139,-1.14668c0.02474,-0.49599 0.14596,-0.80607 0.40573,-1.03916c0.23997,-0.21574 0.41067,-0.61253 0.48489,-1.12725c0.0635,-0.43772 0.30017,-1.19662 0.52695,-1.68707c0.22678,-0.49044 0.41232,-1.14252 0.41232,-1.44913c0,-0.30661 0.11957,-0.70133 0.26636,-0.87683c0.14596,-0.1762 0.36944,-0.72699 0.49644,-1.22507c0.127,-0.49738 0.39336,-1.21882 0.59292,-1.60244c0.19874,-0.38431 0.36202,-0.97325 0.36202,-1.309c0,-0.42385 0.13112,-0.7596 0.42964,-1.1002c0.29687,-0.33852 0.42964,-0.67635 0.42964,-1.09396c0,-0.33228 0.19297,-0.97187 0.42964,-1.42138c0.25564,-0.48697 0.42882,-1.08633 0.42882,-1.4852c0,-0.49322 0.11463,-0.79497 0.43624,-1.14945c0.40655,-0.44882 0.43211,-0.5716 0.37934,-1.82026l-0.0569,-1.33953l-0.03546,1.23686m-90.17339,-0.07076c-0.0569,0.12417 -0.02144,0.29551 0.07917,0.38014c0.26719,0.22476 0.72157,0.02775 0.72157,-0.31286c0,-0.35656 -0.64405,-0.41067 -0.80073,-0.06729m-0.57313,1.925c-0.7529,0.17481 -0.72486,1.06274 0.03051,1.0017c0.52365,-0.04232 0.57478,-0.09087 0.62343,-0.58825c0.05608,-0.56606 0.04206,-0.57507 -0.65394,-0.41344m40.20314,0.59172c-0.22843,0.35864 -0.1641,1.38808 0.08411,1.34785c0.09401,-0.01526 0.22183,-0.17759 0.28368,-0.36142c0.06102,-0.18314 0.11875,-0.27678 0.12864,-0.20741c0.00907,0.06937 0.1204,0.05341 0.24739,-0.03468c0.127,-0.08879 0.2878,-0.11307 0.3579,-0.05411c0.07009,0.05896 0.10143,-0.1207 0.07009,-0.39887c-0.07092,-0.62641 -0.83784,-0.81717 -1.17182,-0.29135m-41.06242,2.35718c-0.5187,0.22129 -0.60117,0.86504 -0.1204,0.94343c0.45356,0.07284 0.80733,-0.24002 0.80733,-0.71451c0,-0.46547 -0.07339,-0.48975 -0.68693,-0.22892m39.74381,0.03954c-0.15256,0.33436 0.18472,0.55565 0.44531,0.29205c0.22018,-0.22337 0.1204,-0.51819 -0.17482,-0.51819c-0.09236,0 -0.21358,0.10197 -0.27048,0.22614m-14.26885,1.03846c-15.03824,0.04093 -14.40327,0.00486 -14.03795,0.80538c0.05773,0.12695 -0.15091,0.42177 -0.51623,0.72838c-0.33646,0.28372 -0.61271,0.60768 -0.61271,0.71936c0,0.27401 0.45933,0.59727 0.54427,0.38361c0.03381,-0.08602 0.22925,-0.16718 0.43459,-0.18036c0.20451,-0.01318 0.36779,-0.05896 0.36367,-0.10197c-0.00495,-0.04301 0,-0.35517 0.01155,-0.693l0.02062,-0.61392l13.82354,0c13.73365,0 13.82519,-0.00208 14.01156,-0.29482c0.18555,-0.29205 0.08082,-0.89348 -0.14431,-0.82619c-0.06432,0.01942 -6.31844,0.05272 -13.89858,0.07353m35.29732,0.23932c-0.13277,0.11168 -0.69188,0.25042 -1.24109,0.30869c-0.59704,0.06243 -1.24109,0.2421 -1.59899,0.44674c-0.32903,0.18799 -0.73806,0.34199 -0.90876,0.34199c-0.35542,0 -0.84444,0.52027 -0.84444,0.89903c0,0.14151 0.10885,0.25667 0.24162,0.25667c0.15091,0 0.21028,-0.10059 0.15833,-0.26707c-0.09731,-0.31424 0.3546,-0.74433 0.78176,-0.74433c0.16328,0 0.55993,-0.16232 0.8799,-0.36142c0.63498,-0.39402 1.67156,-0.48697 2.0344,-0.18175c0.16988,0.1429 0.24245,0.13943 0.35625,-0.01526c0.09978,-0.13596 0.17895,-0.14637 0.26059,-0.03538c0.24904,0.33852 15.68889,0.21296 15.81753,-0.12903c0.0602,-0.15886 0.20451,-0.28858 0.32079,-0.28858c0.73723,0 0.8634,1.23616 0.19462,1.90489c-0.31831,0.31841 -0.42964,0.59727 -0.42964,1.07661c0,0.35587 -0.16575,0.95244 -0.36862,1.32565c-0.20369,0.37321 -0.4181,1.07315 -0.47829,1.55526c-0.07257,0.58062 -0.23832,1.01418 -0.48984,1.28403c-0.24492,0.26152 -0.38099,0.60768 -0.38099,0.96909c0,0.30869 -0.19379,0.96146 -0.42964,1.45052c-0.23667,0.48906 -0.42964,1.1772 -0.42964,1.5289c0,0.53484 -0.09566,0.72006 -0.58385,1.13142l-0.58467,0.49114l-8.33717,0c-9.46364,0 -8.87731,-0.07769 -8.87731,1.17998c0,0.5175 -0.10885,0.85533 -0.37851,1.17443c-0.2309,0.27262 -0.42717,0.78734 -0.50138,1.31594c-0.13112,0.93996 -0.52035,1.38045 -0.95247,1.0787c-0.18307,-0.12764 -0.22925,-0.05827 -0.22925,0.34823c0,0.59033 1.14956,0.92678 1.20563,0.35309c0.17565,-1.78349 0.36532,-2.61315 0.67456,-2.94335c0.25564,-0.27332 0.35377,-0.58964 0.35377,-1.14321c0,-1.30415 -0.62343,-1.21952 8.93669,-1.21952l8.39737,0l0.52365,-0.46963c0.4082,-0.36627 0.52365,-0.60074 0.52365,-1.06552c0.00082,-0.32812 0.19462,-0.96424 0.43047,-1.41375c0.25399,-0.48281 0.42964,-1.08702 0.42964,-1.47826c0,-0.4946 0.10803,-0.76931 0.42964,-1.09049c0.31831,-0.31841 0.42964,-0.59727 0.42964,-1.078c0,-0.385 0.174,-0.96979 0.42964,-1.43872c0.25646,-0.47241 0.42882,-1.05303 0.42882,-1.44497c0,-0.65485 0.19379,-1.10922 0.62838,-1.4748c0.5319,-0.44743 0.26719,-1.87853 -0.40243,-2.17543c-0.60447,-0.26777 -16.09956,-0.23239 -16.42035,0.03746m-61.57384,1.64544c-0.38429,0.04856 -0.64735,0.38986 -0.47747,0.62086c0.16575,0.22545 0.74383,0.14429 0.91701,-0.12903c0.21606,-0.33922 0.02804,-0.5501 -0.43954,-0.49183m56.01161,0.90527c0.09401,0.39402 0.04948,0.45784 -0.4115,0.59311c-0.54839,0.16094 -0.85268,0.50293 -0.85268,0.9573c0,0.15261 -0.19379,0.5827 -0.42964,0.95661c-0.31254,0.4946 -0.42964,0.90319 -0.43047,1.50254c-0.00082,0.62155 -0.10473,0.96562 -0.42387,1.40196c-0.2878,0.39263 -0.42552,0.79428 -0.42882,1.25281c-0.00412,0.5057 -0.1138,0.78388 -0.43459,1.10506c-0.35295,0.35309 -0.42964,0.5827 -0.42964,1.29027c0,0.64097 -0.1105,1.0343 -0.42964,1.54c-0.26141,0.41414 -0.42964,0.91706 -0.42964,1.28611c0,0.37945 -0.19956,0.95869 -0.5319,1.54625c-0.45108,0.79636 -0.5187,1.05511 -0.44201,1.69817c0.06762,0.56675 0.03299,0.7589 -0.13442,0.7589c-0.43376,0 -0.63168,0.42315 -0.66631,1.42624c-0.02639,0.76653 -0.12205,1.11199 -0.39171,1.4193c-0.24574,0.27887 -0.38676,0.7152 -0.45108,1.3971c-0.06762,0.70202 -0.20451,1.11685 -0.47087,1.4193c-0.25399,0.28858 -0.39253,0.68468 -0.42799,1.21674c-0.03711,0.56536 -0.17977,0.94412 -0.50138,1.33467c-0.29522,0.35864 -0.44943,0.7367 -0.44943,1.10575c0,0.52582 -0.1674,1.10991 -0.55911,1.95345c-0.37769,0.8137 -0.16575,0.77139 -3.6705,0.73532c-3.51217,-0.03538 -3.94758,0.04717 -3.51959,0.66595c0.1641,0.23724 0.1806,0.23169 0.18472,-0.06451c0.0033,-0.17897 0.10226,-0.33089 0.22018,-0.33783c0.11792,-0.00763 1.60229,-0.02359 3.29776,-0.03607l3.08335,-0.02359l0.4684,-0.57785c0.45108,-0.55704 0.67126,-1.26183 0.76197,-2.43279c0.02556,-0.33783 0.19379,-0.68884 0.43211,-0.9018c0.28038,-0.25181 0.41232,-0.57993 0.47087,-1.17859c0.05113,-0.5168 0.21276,-0.9788 0.42882,-1.22437c0.23997,-0.27332 0.37851,-0.72283 0.45108,-1.47133c0.07504,-0.77555 0.19874,-1.16471 0.43954,-1.38878c0.24904,-0.23169 0.35295,-0.57924 0.40243,-1.34924c0.07422,-1.15292 0.25399,-1.45121 0.8197,-1.36034c0.42634,0.06868 0.45191,-0.1977 0.09154,-0.95036c-0.25069,-0.52235 -0.27543,-0.40304 0.31996,-1.54417c0.32986,-0.63196 0.5154,-1.22923 0.5154,-1.65793c0,-0.47657 0.12452,-0.82342 0.42964,-1.20148c0.35212,-0.43633 0.42964,-0.70549 0.42964,-1.49908c0,-0.80469 0.06762,-1.03499 0.40655,-1.3756c0.28698,-0.28858 0.42882,-0.64652 0.48407,-1.21952c0.05195,-0.53831 0.20451,-0.9462 0.45273,-1.21189c0.29357,-0.31424 0.37439,-0.5945 0.37439,-1.30068c0,-0.68051 0.08411,-0.9899 0.34305,-1.26669c0.18802,-0.20187 0.40078,-0.71451 0.47252,-1.13974c0.1138,-0.67982 0.19544,-0.79914 0.67374,-0.9899c0.89309,-0.35587 1.41839,-1.30068 0.72321,-1.30068c-0.31584,0 -0.3513,0.05966 -0.26059,0.44188m-45.38274,1.03222c-0.2441,0.20464 -0.27626,0.92955 -0.04618,1.04887c0.08741,0.04578 0.20781,0.01734 0.26719,-0.06382c0.05937,-0.08047 0.25811,-0.14706 0.44201,-0.14706c0.25317,0 0.33316,-0.10059 0.33316,-0.4176c0,-0.53831 -0.57066,-0.77902 -0.99617,-0.42038m-11.20199,0.08602c0,0.05827 -0.174,0.16996 -0.38593,0.24834c-0.53932,0.1984 -0.60529,0.73809 -0.1072,0.87128c0.67786,0.18105 1.4085,-0.93025 0.75125,-1.14252c-0.14184,-0.04578 -0.25811,-0.03538 -0.25811,0.02289m-1.37798,3.18337c-0.14349,0.05341 -0.24987,0.17897 -0.23585,0.27887c0.01402,0.0992 0.03464,0.23932 0.04618,0.31216c0.01237,0.07214 0.15668,0.1096 0.32244,0.08324c0.16493,-0.02636 0.35872,-0.05341 0.42964,-0.05966c0.07092,-0.00555 0.12864,-0.17342 0.12864,-0.37182c0,-0.36072 -0.19544,-0.4294 -0.69105,-0.24279m11.73389,0.85186c-0.2309,0.50709 0.37604,0.66803 2.35766,0.62571c0.81722,-0.01804 17.60784,-0.15261 18.85553,-0.15192c0.73558,0.00069 0.83702,-0.06729 0.58962,-0.39471c-0.19544,-0.25944 -21.68489,-0.33714 -21.80282,-0.07908m21.04084,3.23193c-0.40078,0.19632 -0.42717,1.07176 -0.02886,0.94343c0.14926,-0.04856 0.42057,-0.0881 0.60117,-0.0881c0.42222,0 0.4717,-0.79012 0.05773,-0.924c-0.32409,-0.10475 -0.26224,-0.11099 -0.63003,0.06868m-33.97377,0.83729c0,0.07839 -0.174,0.16371 -0.38593,0.18869c-0.51788,0.06174 -0.649,0.76861 -0.16246,0.87544c0.69105,0.15261 1.31201,-0.81093 0.72074,-1.11824c-0.09483,-0.04925 -0.17235,-0.02497 -0.17235,0.05411m33.09634,1.34507c-0.17647,0.08324 -0.28203,0.3191 -0.28203,0.63126c0,0.48073 0.14514,0.61739 0.4148,0.39055c0.07092,-0.05966 0.20039,-0.11654 0.28698,-0.12695c0.08659,-0.00971 0.21771,-0.02567 0.29275,-0.03607c0.07422,-0.00971 0.15173,-0.20533 0.17235,-0.43425c0.04206,-0.45992 -0.37934,-0.66248 -0.88485,-0.42454m-3.08335,1.51156c-0.06102,0.05064 -4.3063,0.09989 -9.43477,0.10822l-9.3251,0.01595l-0.05443,0.39749l-0.05443,0.39749l8.95566,0c4.92479,0 8.91772,-0.05133 8.87154,-0.11377c-0.04618,-0.06243 0.06597,-0.11307 0.24739,-0.11307c0.18225,0 0.33151,0.05064 0.33151,0.11307c0,0.06243 0.46345,0.11377 1.03081,0.11377c0.9805,0 1.03081,-0.01734 1.03081,-0.35656c0,-0.49877 -1.18089,-0.91429 -1.59899,-0.56259m-31.45942,0.37251c-0.35212,0.16579 -0.348,0.49114 0.00825,0.6056c0.34388,0.11099 0.75125,-0.15261 0.75125,-0.48628c0,-0.26915 -0.33151,-0.32118 -0.7595,-0.11932m-0.31007,1.92778c-0.05608,0.04717 -0.2441,0.10336 -0.4181,0.12487c-0.56241,0.06937 -0.45438,1.45676 0.11298,1.45676c0.37604,0 0.44943,-0.08602 0.58797,-0.69023c0.14761,-0.64306 -0.00495,-1.12448 -0.28285,-0.8914m10.38807,2.06305c-0.22101,0.11793 -0.4115,2.21844 -0.22348,2.45915c0.09483,0.1214 0.77352,0.45576 0.92443,0.45576c0.04206,0 0.11215,-0.15678 0.15586,-0.34754c0.10308,-0.45437 -0.14349,-0.80885 -0.56323,-0.80885c-0.25729,0 -0.33481,-0.09989 -0.33481,-0.43356c0,-0.33436 0.07669,-0.43356 0.33728,-0.43356c0.43789,0 0.71909,-0.43078 0.49891,-0.76237c-0.17895,-0.26915 -0.45108,-0.31286 -0.79496,-0.12903m49.09365,0.56467c0,0.06035 3.69771,0.09087 8.21677,0.06798c9.95018,-0.05133 9.64259,-0.11099 8.86824,1.72175c-0.15009,0.35517 -0.2243,0.82827 -0.16905,1.07939c0.07752,0.35378 -0.0099,0.5612 -0.41974,0.99545c-0.41892,0.44327 -0.5187,0.68537 -0.5187,1.2653c0,0.50778 -0.1105,0.847 -0.38016,1.1661c-0.27131,0.32049 -0.4016,0.72144 -0.45273,1.39502c-0.05195,0.68468 -0.18307,1.08355 -0.47829,1.44844c-1.06627,1.3201 -0.43459,2.11369 1.58002,1.98536c1.28892,-0.08186 1.66331,0.03122 1.5091,0.45576c-0.06597,0.18105 -0.03958,0.1755 0.11298,-0.02497c0.37356,-0.49114 -0.06185,-0.66456 -1.77794,-0.70965l-1.5726,-0.04162l0.01484,-0.616c0.0099,-0.40651 0.13442,-0.72561 0.36779,-0.93926c0.26306,-0.24071 0.37109,-0.5723 0.42222,-1.29582c0.0503,-0.70202 0.17235,-1.0891 0.43871,-1.39294c0.25069,-0.28511 0.39665,-0.70896 0.45273,-1.3208c0.06597,-0.71381 0.17482,-0.98227 0.52447,-1.28889c0.3579,-0.31424 0.44201,-0.52998 0.44201,-1.13489c0,-0.47726 0.13772,-0.98574 0.38181,-1.40889c0.35212,-0.60976 0.36202,-0.69231 0.12287,-1.05164l-0.26059,-0.38986l-8.71238,-0.03746c-4.79119,-0.02081 -8.71238,0.01179 -8.71238,0.07214m-61.04607,0.56744c-0.32491,0.27262 -0.10308,0.64444 0.3579,0.60005c0.64405,-0.06243 0.79826,-0.69647 0.16905,-0.69647c-0.22678,0 -0.46428,0.0437 -0.52695,0.09642m14.22432,3.09943c-0.13029,0.34546 0.2878,0.80052 0.59127,0.64306c0.10308,-0.05411 0.18802,-0.28927 0.18802,-0.52305c0,-0.5168 -0.59457,-0.60837 -0.77929,-0.12001m22.98453,3.11469c-0.25482,0.08602 -0.28945,1.00378 -0.04288,1.1328c0.09483,0.04856 0.17153,0.03538 0.17153,-0.02983c0,-0.06521 0.174,-0.18314 0.38676,-0.26152c0.93267,-0.34407 0.43129,-1.16333 -0.5154,-0.84145m-37.20885,0.14498c-0.34635,0.29066 0.01979,0.7707 0.58632,0.7707c0.27213,0 0.17153,-0.68745 -0.1138,-0.77971c-0.33646,-0.10822 -0.33316,-0.10822 -0.47252,0.00902m36.49306,2.26145c-0.32079,0.27054 -0.23337,0.82619 0.11463,0.72491c0.30842,-0.09018 0.72981,-0.45784 0.72981,-0.63681c0,-0.18036 -0.65394,-0.24834 -0.84444,-0.0881m-30.73621,1.76892c0.07752,0.31355 0.38264,0.33297 0.45191,0.02844c0.03628,-0.15816 -0.04783,-0.2532 -0.2243,-0.2532c-0.16575,0 -0.25976,0.09365 -0.2276,0.22476m75.76847,0.09296c-0.32161,0.27054 -0.24245,0.47449 0.09401,0.24487c0.58632,-0.39957 3.85934,-0.26638 4.11993,0.16718c0.19297,0.32049 0.21358,0.32604 0.21606,0.05758c0.00412,-0.55287 -0.31914,-0.64306 -2.31726,-0.64306c-1.25429,0 -1.9775,0.05966 -2.11274,0.17342" id="svg_3"/>
   <path fill-rule="evenodd" fill="#a9b8b8" d="m5.52514,1.29363c0,0.07353 -0.174,0.15469 -0.38676,0.18036c-0.57643,0.06868 -0.70672,2.34538 -0.14101,2.46955c0.70755,0.15608 0.41727,0.539 -0.4082,0.539l-0.76445,0l0.04288,1.03291c0.03793,0.8914 0.00082,1.04193 -0.26636,1.10089c-0.27213,0.05966 -0.30924,0.24141 -0.30924,1.4963l0,1.42832l10.38147,0l10.38147,0l0.32903,0.3517c0.31172,0.33367 0.3983,0.34754 1.64105,0.26846c1.2749,-0.08116 1.90576,0.19493 1.56848,0.68676c-0.02969,0.04301 0.10391,0.0881 0.29687,0.10059c0.42552,0.02705 0.43624,0.03538 0.51128,0.39887c0.03216,0.15886 0.21358,0.32465 0.40243,0.36905c0.32079,0.07423 0.33975,0.18036 0.2845,1.60521c-0.05608,1.44844 -0.04123,1.5296 0.30017,1.60452c0.48819,0.10752 0.46757,0.53623 -0.02639,0.55565c-1.12729,0.0444 -1.07616,0.00694 -1.03905,0.77347c0.02639,0.55634 0.12122,0.77208 0.42634,0.96562c0.49891,0.31632 0.36614,0.42246 -0.57066,0.45784l-0.74878,0.02775l-0.01155,0.83105c-0.0066,0.45715 0.05195,0.83105 0.12864,0.83105c0.07752,0 0.14019,0.09018 0.14019,0.20117c0,0.16996 -0.73064,0.45715 -1.04235,0.40928c-0.17235,-0.02636 -0.1806,1.24033 -0.00825,1.32981c0.10143,0.05272 0.10885,0.25528 0.01897,0.51819c-0.10968,0.32257 -0.08989,0.43148 0.07752,0.43148c0.24739,0 0.70672,0.40165 0.58055,0.50709c-0.04371,0.03677 -0.44036,0.07839 -0.88155,0.09226l-0.80156,0.02567l0.08576,1.08702c0.05608,0.71797 0.17977,1.17581 0.36449,1.34646c0.30842,0.28719 0.13359,0.41067 -0.68528,0.4842c-0.60529,0.0548 -0.6292,0.06382 -0.6292,0.23308c0,0.10683 0.10226,0.09504 0.301,-0.03399c0.28615,-0.1866 0.28615,-0.18175 0,0.10197c-0.29275,0.28996 -0.43211,1.37629 -0.17153,1.3423c0.35377,-0.04717 0.55829,0.03815 0.55829,0.23378c0,0.13735 -0.17235,0.2206 -0.47252,0.22684c-0.98628,0.0215 -1.43571,0.88585 -0.89886,1.73008c0.2375,0.37251 0.06845,0.55842 -0.54509,0.60074c-0.61848,0.0437 -0.75125,2.01102 -0.15421,2.27948c0.77764,0.35032 0.28368,0.68676 -0.87165,0.59311c-0.63085,-0.05133 -0.68775,1.45815 -0.06432,1.69678c0.63828,0.24487 0.52035,0.45992 -0.25152,0.45992c-0.87165,0 -1.0374,0.24973 -1.0374,1.56706c0,0.95244 0.01979,1.00308 0.36119,0.92816c0.28615,-0.06313 0.34718,-0.02289 0.2944,0.19423c-0.04041,0.16441 -0.18472,0.25667 -0.36284,0.23031c-0.25811,-0.03677 -0.29357,0.08047 -0.27296,0.90319l0.02474,0.9462l7.02186,0c7.36161,0 7.37728,-0.00139 6.80663,-0.6056c-0.11792,-0.12556 -0.33068,-0.26291 -0.47252,-0.30523c-0.14184,-0.04301 0.05608,-0.08324 0.43871,-0.08949c0.97061,-0.01595 1.1075,-0.19077 1.1075,-1.41306c0,-0.82203 -0.05443,-1.05511 -0.24739,-1.05511c-0.8098,0 -0.42304,-0.55912 0.42717,-0.61739c0.62426,-0.04232 0.92278,-1.14529 0.45108,-1.66487c-0.21441,-0.23655 0.01155,-0.43703 0.5756,-0.50987c0.38593,-0.04995 0.42222,-0.11446 0.38841,-0.69092c-0.02062,-0.34962 -0.04453,-0.87961 -0.05195,-1.1772c-0.0099,-0.35101 -0.09566,-0.54247 -0.24492,-0.54247c-0.12617,0 -0.27461,-0.09712 -0.32903,-0.21643c-0.07752,-0.17065 0.04783,-0.21713 0.58302,-0.21713c0.37521,0 0.68198,-0.06868 0.68198,-0.15261c0,-0.08463 0.06185,-0.1207 0.13772,-0.08116c0.18142,0.09365 0.21441,-0.93441 0.03793,-1.19871c-0.07422,-0.11307 -0.07504,-0.38361 -0.00082,-0.60143c0.1105,-0.32326 0.07504,-0.40928 -0.19132,-0.46824c-0.40325,-0.08879 -0.43459,-0.38778 -0.04041,-0.38778c0.15833,0 0.44201,-0.11377 0.63085,-0.2532c0.19214,-0.14082 0.28203,-0.16441 0.20451,-0.05341c-0.09566,0.13666 -0.06432,0.17828 0.09896,0.1325c0.29522,-0.08324 0.29275,-1.46162 -0.00247,-1.7606c-0.2276,-0.23031 0.07339,-0.37806 0.77104,-0.37806c0.43871,0 0.65065,-1.16125 0.24904,-1.37005c-0.09154,-0.04717 -0.1204,-0.27748 -0.06515,-0.51195c0.07504,-0.31355 0.02804,-0.44951 -0.1773,-0.51542c-0.59539,-0.19215 -0.20946,-0.60698 0.46922,-0.50501c0.70755,0.10683 1.09431,-1.03499 0.5855,-1.72661c-0.25152,-0.3413 0.01979,-0.56744 0.68528,-0.57091c0.57395,-0.00347 0.58467,-1.90211 0.01402,-2.41337c-0.45768,-0.40997 -0.39336,-0.4731 0.51623,-0.50362l0.71579,-0.02359l0,-1.20425c0,-0.97464 -0.04948,-1.20495 -0.25811,-1.20495c-0.58797,0 -0.23832,-0.4176 0.38676,-0.46131c0.40243,-0.02775 0.62838,-0.11238 0.60117,-0.22545c-0.02391,-0.0992 0.03464,-0.18036 0.12864,-0.18036c0.10885,0 0.17235,-1.05997 0.17235,-2.89063c0,-1.83066 -0.0635,-2.88993 -0.17235,-2.88993c-0.09401,0 -0.15256,-0.08186 -0.12864,-0.18105c0.02804,-0.11654 -0.21523,-0.19632 -0.68693,-0.22476c-0.80403,-0.04925 -0.98298,-0.33783 -0.37851,-0.60976c0.33068,-0.14845 0.49314,-1.58787 0.17647,-1.56012c-0.71332,0.06243 -0.80321,-0.02497 -0.76362,-0.74503c0.02144,-0.39541 -0.01319,-0.71312 -0.07752,-0.70549c-0.45933,0.05411 -0.72651,-0.07076 -0.81887,-0.38153c-0.09236,-0.30939 -0.20616,-0.36142 -0.78671,-0.36142c-0.48654,0 -0.64817,0.05064 -0.56983,0.18036c0.05937,0.0992 -0.01072,0.05064 -0.15586,-0.10822c-0.14596,-0.15886 -0.34223,-0.36558 -0.43706,-0.45923c-0.11792,-0.11585 -0.10638,-0.19077 0.03711,-0.23516c0.11463,-0.03538 0.00082,-0.11168 -0.25317,-0.16857c-0.29275,-0.0659 -0.48242,-0.21851 -0.5154,-0.41552c-0.04453,-0.26152 -0.1839,-0.31841 -0.86918,-0.35517c-0.73641,-0.04023 -0.81557,-0.07839 -0.81557,-0.39749c0,-0.35032 -0.01484,-0.35378 -1.58909,-0.34199c-0.87412,0.00624 -1.49261,0.0444 -1.37468,0.08394c0.30265,0.10336 0.26719,0.43495 -0.05855,0.53969c-0.39171,0.12695 -0.63003,-0.0437 -0.52612,-0.37668c0.07092,-0.23031 0.02144,-0.27193 -0.25399,-0.21158c-0.20451,0.04509 -0.38016,-0.00763 -0.43624,-0.13041c-0.11133,-0.24557 -27.02942,-0.31632 -27.02942,-0.07076m139.84594,0.00971c0,0.07977 -0.15009,0.14429 -0.33316,0.14429c-0.18307,0 -0.38841,0.07561 -0.45603,0.16718c-0.08246,0.11168 -0.04288,0.12833 0.11875,0.05064c0.19544,-0.09365 0.20039,-0.07839 0.02639,0.07908c-0.35212,0.31979 -0.26966,1.26183 0.12864,1.47133c0.59952,0.31494 0.4115,0.54455 -0.44448,0.54455l-0.78836,0l0.05608,1.03361c0.05525,1.00447 -0.21276,1.4408 -0.73229,1.19177c-0.05855,-0.02775 -0.11957,0.49252 -0.13772,1.1557c-0.02556,0.99337 0.01814,1.22298 0.24574,1.29652c0.44448,0.14359 0.11545,0.38014 -0.52777,0.38014l-0.59127,0l0,0.74988c0,0.57022 0.08906,0.82897 0.37356,1.08355l0.37356,0.33436l-0.68281,0c-0.37604,0 -0.77599,0.07839 -0.88897,0.17342c-0.23997,0.20187 -0.27955,1.36103 -0.05113,1.48035c0.31337,0.16302 -0.01732,0.64236 -0.47335,0.68676c-0.66466,0.06451 -0.79991,2.0464 -0.16658,2.44805l0.39006,0.24765l-0.42469,0.07769c-0.2342,0.04301 -0.58055,0.0985 -0.76939,0.12278c-0.41974,0.0555 -0.4049,1.54 0.01814,1.74395c0.43789,0.21088 0.24822,0.37321 -0.49066,0.4176l-0.72981,0.04509l0.02969,1.11962c0.03134,1.16125 -0.01402,1.22507 -0.823,1.1439c-0.27378,-0.02775 -0.15833,2.11785 0.12782,2.35856c0.39501,0.33228 -0.01649,0.58617 -0.83784,0.51542c-0.16575,-0.01387 -0.301,0.04717 -0.301,0.13666c0,0.08879 0.09731,0.11585 0.21523,0.06035c0.17153,-0.08186 0.17153,-0.06313 0,0.09226c-0.36779,0.33297 -0.27543,1.39016 0.12864,1.47965c0.50551,0.11099 0.4181,0.38916 -0.12864,0.40789c-0.25976,0.00971 -0.5888,0.02567 -0.73064,0.03607c-0.22101,0.01734 -0.26471,0.58964 -0.30759,4.01996l-0.04948,4.00054l0.47912,0.04578c0.45603,0.0444 0.47829,0.08047 0.44778,0.74225c-0.02227,0.48351 0.02969,0.67635 0.17153,0.63334c0.49314,-0.14914 0.76032,0.16857 0.70095,0.83382c-0.0569,0.64167 -0.047,0.65554 0.45273,0.65554c0.42964,0 0.51046,0.05688 0.51046,0.36142c0,0.28858 0.08576,0.36072 0.42964,0.36072c0.25729,0 0.43789,0.08671 0.45108,0.21713c0.01155,0.11932 0.03051,0.29829 0.04288,0.39749c0.01155,0.0992 0.17565,0.18036 0.36532,0.18036c0.22843,0 0.37192,0.1207 0.42964,0.36142c0.07587,0.31632 0.18967,0.36696 0.90216,0.40512c0.44861,0.02428 0.82465,0.10544 0.83702,0.18105c0.01155,0.07492 0.03051,0.21366 0.04288,0.308c0.01402,0.11099 0.44531,0.18383 1.21883,0.20464c0.67456,0.01873 1.22542,0.10128 1.26006,0.18938c0.04371,0.11099 4.27084,0.15678 14.47913,0.15678c15.4316,0 14.86754,0.02844 14.06681,-0.69508c-0.36367,-0.32812 -0.24657,-0.4072 0.48324,-0.32604c0.59622,0.0659 0.99287,-1.14598 0.56158,-1.71967c-0.21358,-0.28441 0.09648,-0.5827 0.60529,-0.5827c0.38758,0 0.39665,-0.02983 0.32821,-1.08425c-0.05773,-0.88307 -0.02391,-1.08355 0.18142,-1.08355c0.20451,0 0.25234,-0.27123 0.25234,-1.44566l0,-1.44497l-11.16158,0c-10.98511,0 -11.16406,-0.00486 -11.34465,-0.28927c-0.10143,-0.15886 -0.12287,-0.29898 -0.04865,-0.31147c0.07422,-0.01249 -0.25234,-0.06105 -0.72404,-0.10822c-0.77104,-0.077 -0.85351,-0.11932 -0.80485,-0.41414c0.02969,-0.18105 -0.00907,-0.3191 -0.08576,-0.308c-0.43459,0.06243 -0.73146,-0.04856 -0.83124,-0.31147c-0.06102,-0.16371 -0.30017,-0.35725 -0.53025,-0.43148c-0.33563,-0.10683 -0.3983,-0.20325 -0.31419,-0.48559c0.07917,-0.2643 0.01567,-0.39194 -0.25399,-0.51333c-0.78176,-0.3517 -0.21771,-0.71173 0.94257,-0.60143c0.40573,0.03885 0.2944,-1.46786 -0.12864,-1.73632c-0.49396,-0.31355 -0.38511,-0.40859 0.50386,-0.43772l0.7026,-0.02359l-0.01814,-0.95869c-0.02144,-1.08841 0.07834,-1.31039 0.54427,-1.20772c0.301,0.0659 0.32738,-0.01526 0.32326,-0.98297c-0.00412,-0.97395 0.02639,-1.06621 0.40243,-1.20148c0.73723,-0.26569 1.00112,-1.94651 0.38593,-2.46401c-0.33646,-0.28303 -0.25317,-0.36905 0.48489,-0.4946c0.76692,-0.13111 0.97061,-1.74881 0.22018,-1.74881c-0.48324,0 -0.27378,-0.43287 0.21771,-0.45021c1.00937,-0.03538 0.98793,-0.01804 0.98793,-0.77763c0,-0.58964 -0.07917,-0.78179 -0.42964,-1.04262l-0.42964,-0.32049l0.42964,-0.0215c0.23585,-0.01179 0.56488,-0.01041 0.72981,0.00347c0.16575,0.01457 0.301,-0.04717 0.301,-0.13596c0,-0.08949 0.06515,-0.12833 0.14514,-0.08671c0.07917,0.04093 0.11628,-0.41067 0.08164,-1.00308c-0.06597,-1.1224 -0.00165,-1.20634 0.84444,-1.09673c0.06927,0.00902 0.10803,-0.45437 0.08576,-1.03083c-0.03958,-1.03014 -0.03299,-1.04748 0.40738,-1.09049c0.67951,-0.06659 0.73476,-2.48551 0.05608,-2.48551c-0.41315,0 -0.27791,-0.43217 0.14019,-0.44882c1.12152,-0.0444 1.07122,-0.00555 1.12647,-0.8692c0.04536,-0.71659 0.0099,-0.82064 -0.301,-0.88932c-0.74548,-0.16441 -0.26966,-0.43911 0.97885,-0.56467c0.43459,-0.0437 0.27791,-1.80083 -0.17153,-1.92639l-0.38676,-0.10752l0.38676,-0.06382c0.31089,-0.05133 0.38593,-0.16094 0.38593,-0.55981l0,-0.4953l-6.95754,0c-4.52401,0 -6.95836,0.05064 -6.95836,0.14429m-41.62483,0.43564c0.11545,0.37113 -0.05608,0.41136 -1.89834,0.44882c-0.91783,0.01804 -1.57507,0.08186 -1.46127,0.14151c0.43871,0.22823 -0.20204,0.56397 -1.07616,0.56397c-0.7562,0 -0.84444,0.03468 -0.94669,0.37737c-0.10473,0.34893 -0.16905,0.37251 -0.84691,0.30869c-0.78671,-0.07492 -1.34665,0.07284 -0.86588,0.22823c0.15009,0.04856 0.27213,0.2199 0.27213,0.38153c0,0.16163 0.03464,0.29343 0.07669,0.29343c0.14844,0 1.71361,-0.73254 1.9775,-0.9247c0.14596,-0.10752 0.54756,-0.23724 0.89227,-0.28927c0.3447,-0.05133 0.71332,-0.18175 0.8197,-0.28927c0.19709,-0.19978 1.07864,-0.36696 2.38735,-0.45229c1.1009,-0.07145 1.76887,-0.78318 0.91206,-0.97187c-0.24162,-0.05272 -0.30182,-0.00763 -0.24245,0.18383m36.93177,-0.19701c-0.06432,0.05411 -0.1171,0.64514 -0.1171,1.31247c0,1.07245 -0.0503,1.26946 -0.42964,1.68776c-0.31501,0.34754 -0.42964,0.65207 -0.42964,1.14252c0,0.39887 -0.17318,0.99823 -0.42882,1.4852c-0.23667,0.44951 -0.42964,1.0891 -0.42964,1.42138c0,0.4176 -0.13277,0.75543 -0.42964,1.09396c-0.29852,0.3406 -0.42964,0.67635 -0.42964,1.1002c0,0.33575 -0.16328,0.9247 -0.36202,1.309c-0.19956,0.38361 -0.46592,1.10506 -0.59292,1.60244c-0.127,0.49807 -0.35047,1.04887 -0.49644,1.22507c-0.14679,0.1755 -0.26636,0.57022 -0.26636,0.87683c0,0.30661 -0.18555,0.95869 -0.41232,1.44913c-0.22678,0.49044 -0.46345,1.24934 -0.52695,1.68707c-0.07422,0.51472 -0.24492,0.91152 -0.48489,1.12725c-0.25976,0.23308 -0.38099,0.54316 -0.40573,1.03916c-0.02309,0.47102 -0.1641,0.85324 -0.42139,1.14668c-0.26883,0.30523 -0.40573,0.6937 -0.44613,1.26599c-0.03464,0.48767 -0.23337,1.13558 -0.48489,1.58232c-0.29028,0.5168 -0.42552,1.00725 -0.42552,1.54208c0,0.56397 -0.09648,0.88654 -0.34223,1.14945c-0.20039,0.21435 -0.4082,0.7596 -0.50221,1.31941c-0.09731,0.57854 -0.301,1.10436 -0.51705,1.33536c-0.19627,0.21019 -0.36037,0.58409 -0.36449,0.83174c-0.00907,0.53553 -0.34718,1.62394 -0.64157,2.06652c-0.11545,0.17412 -0.20946,0.60421 -0.20946,0.95591c0,0.44258 -0.11792,0.76653 -0.38099,1.04817c-0.25646,0.27332 -0.41727,0.70341 -0.49231,1.31039c-0.06102,0.49669 -0.27626,1.16957 -0.47829,1.49491c-0.38923,0.62918 -0.48242,1.37352 -0.19049,1.52544c0.09648,0.04995 0.16493,0.03746 0.15091,-0.02775c-0.07752,-0.37668 0.0635,-0.60351 0.42222,-0.67913c0.48819,-0.10336 0.68858,-0.95938 0.51458,-2.20179c-0.11133,-0.79914 0.00247,-0.90735 0.84031,-0.79636c0.07092,0.00971 0.09483,-0.47033 0.05278,-1.06621c-0.07422,-1.04887 -0.0635,-1.08425 0.31172,-1.08425c0.42057,0 0.40902,0.04925 0.47665,-1.98744c0.02721,-0.82272 0.06267,-0.90319 0.40325,-0.90319c0.20534,0 0.38346,-0.08116 0.39583,-0.18036c0.02639,-0.21019 0.18967,-1.86327 0.19956,-2.02351c0.00412,-0.05966 0.15256,-0.10822 0.32986,-0.10822c0.39418,0 0.53684,-0.50293 0.53684,-1.89656c0,-0.87683 0.03793,-0.99407 0.32326,-0.99407c0.39253,0 0.49974,-0.38361 0.49891,-1.79528c-0.00082,-1.00655 0.00742,-1.02389 0.48077,-1.09465c0.26471,-0.04023 0.46592,-0.1214 0.44778,-0.18105c-0.24904,-0.8137 0.00082,-2.13173 0.40408,-2.13173c0.24987,0 0.42469,-0.077 0.40902,-0.18036c-0.14926,-0.96493 0.03464,-1.98744 0.35625,-1.98744c0.18967,0 0.35542,-0.08116 0.37027,-0.18036c0.01402,-0.0992 0.04371,-0.24557 0.06597,-0.32534c0.02144,-0.07908 0.04865,-0.64375 0.05937,-1.2542c0.01897,-1.03569 0.04618,-1.11338 0.40655,-1.15639c0.35377,-0.04232 0.39088,-0.13319 0.43624,-1.07315c0.04536,-0.93163 0.08989,-1.04262 0.47252,-1.18969c0.40573,-0.15539 0.42304,-0.21713 0.42304,-1.52821l0,-1.36658l0.47252,-0.04578c0.47087,-0.04509 0.4717,-0.04856 0.43211,-1.09326c-0.03876,-1.02667 -0.03134,-1.04748 0.38511,-1.04748c0.47829,0 0.47994,-0.00832 0.4585,-1.76199c-0.01402,-1.10298 -0.01072,-1.1113 0.45026,-1.1557l0.46428,-0.04509l0.0536,-1.71759c0.04948,-1.57469 -0.05937,-2.13173 -0.36614,-1.87367m-109.35466,0.4946c0.59869,0.1651 1.69052,0.35101 2.42528,0.41275c1.00607,0.08463 1.43406,0.18938 1.72928,0.42246c0.21606,0.17065 0.60941,0.31008 0.87412,0.31008c0.29028,0 0.71497,0.17273 1.06874,0.43356c0.32244,0.23863 0.6927,0.43356 0.82217,0.43356c0.43047,0 2.43765,1.78072 2.81039,2.49314c0.19709,0.37737 0.44036,0.68676 0.54014,0.68676c0.09978,0 0.18142,0.21158 0.18142,0.47033c0,0.25944 0.19956,0.78665 0.44366,1.17165c0.60199,0.95106 0.64817,3.76676 0.07752,4.70811c-0.22348,0.36766 -0.34883,0.85671 -0.34883,1.35548c0,0.59588 -0.12617,0.9788 -0.53437,1.62186c-0.41727,0.65762 -0.51458,0.96146 -0.44613,1.39016c0.06102,0.38361 -0.01567,0.71312 -0.25564,1.09396c-0.18884,0.29968 -0.44696,1.02251 -0.57313,1.6066c-0.12617,0.58409 -0.36532,1.1883 -0.53107,1.3423c-0.19544,0.18105 -0.32821,0.59658 -0.37686,1.17789c-0.04865,0.57785 -0.19627,1.04193 -0.41397,1.30137c-0.21193,0.25251 -0.37274,0.74087 -0.42799,1.30068c-0.05608,0.56814 -0.23832,1.11893 -0.49809,1.50116c-0.27213,0.40096 -0.40985,0.83243 -0.40985,1.28334c0,0.4516 -0.12864,0.85533 -0.38346,1.20217c-0.24657,0.33575 -0.42139,0.86573 -0.48902,1.48312c-0.07257,0.66595 -0.21771,1.08216 -0.475,1.35687c-0.28038,0.30037 -0.37027,0.59519 -0.37027,1.21605c0,0.64722 -0.09071,0.92192 -0.42964,1.309c-0.30429,0.34615 -0.42964,0.67427 -0.42964,1.12101c0,0.36696 -0.17977,0.96285 -0.42964,1.42138c-0.23585,0.43495 -0.42964,0.87336 -0.42964,0.97534c0,0.70202 -0.09978,0.71381 -5.84344,0.68398c-5.74943,-0.03052 -6.10485,-0.07145 -5.83355,-0.67288c0.09154,-0.20256 0.16658,-0.64028 0.1674,-0.97325c0,-0.35725 0.17565,-0.89487 0.42964,-1.31525c0.24822,-0.41205 0.42882,-0.95938 0.42882,-1.30068c0.00082,-0.3517 0.15091,-0.79428 0.37192,-1.09604c0.25399,-0.34477 0.38016,-0.76792 0.3983,-1.33259c0.01897,-0.5827 0.12205,-0.91568 0.34883,-1.12656c0.21276,-0.1977 0.36614,-0.64375 0.45108,-1.31039c0.09813,-0.77139 0.23173,-1.11407 0.56736,-1.44982c0.34223,-0.34199 0.43954,-0.59797 0.43954,-1.15639c0,-0.5057 0.10803,-0.84006 0.36697,-1.13489c0.25317,-0.28858 0.37686,-0.6597 0.39913,-1.20287c0.02309,-0.55426 0.1674,-0.9788 0.49231,-1.44497c0.33316,-0.47796 0.45933,-0.85879 0.45933,-1.386c0,-0.53692 0.11215,-0.86573 0.42964,-1.25906c0.30347,-0.37668 0.42964,-0.72699 0.43047,-1.19871c0,-0.45437 0.13524,-0.85047 0.42387,-1.24449c0.30017,-0.40997 0.42469,-0.79081 0.42882,-1.30831c0.00412,-0.54802 0.11298,-0.85394 0.43459,-1.2209c0.32821,-0.3739 0.42964,-0.66664 0.42964,-1.23825c0,-0.41136 0.1237,-1.03291 0.27461,-1.38115c0.30512,-0.70271 0.34635,-1.35826 0.10226,-1.6177c-0.08824,-0.09365 -0.25152,-0.40928 -0.36367,-0.70133c-0.2812,-0.73601 -1.83649,-1.84315 -2.71144,-1.93055c-0.35872,-0.03538 -1.38623,-0.16579 -2.28427,-0.28996c-1.36974,-0.18869 -3.17324,-0.21851 -11.20776,-0.18244c-7.85228,0.03538 -9.59228,0.00902 -9.66403,-0.14914c-0.15421,-0.33922 -0.09483,-0.64514 0.17482,-0.89625c0.15338,-0.14221 0.28285,-0.57854 0.30924,-1.04609c0.03464,-0.59172 0.16823,-0.94828 0.51046,-1.3645c0.36284,-0.4398 0.46428,-0.73115 0.46428,-1.33467c0,-0.64306 0.10143,-0.9018 0.61024,-1.54625l0.61024,-0.77347l11.57226,0c11.249,0 11.60277,0.00832 12.66161,0.29968m126.55512,-0.12625c0.32574,0.27401 0.24245,0.88307 -0.22348,1.61908c-0.26966,0.42662 -0.42964,0.91498 -0.42964,1.31108c0,0.46269 -0.11463,0.74642 -0.42882,1.06135c-0.32079,0.32049 -0.42964,0.59588 -0.42964,1.08702c0,0.42454 -0.15256,0.89972 -0.42964,1.33744c-0.23667,0.3739 -0.42964,0.88099 -0.43047,1.12795c0,0.24626 -0.16246,0.67219 -0.36119,0.94551c-0.19874,0.27401 -0.42634,0.88793 -0.50633,1.3645c-0.08246,0.49183 -0.30347,1.0454 -0.51128,1.28264c-0.24492,0.27817 -0.38346,0.68051 -0.41892,1.2105c-0.03876,0.58687 -0.15503,0.88585 -0.44366,1.1446c-0.29028,0.26014 -0.39583,0.53345 -0.4082,1.06066c-0.01072,0.48628 -0.12122,0.80885 -0.34965,1.02112c-0.22101,0.20533 -0.37356,0.62779 -0.44943,1.25004c-0.07834,0.63265 -0.2276,1.04262 -0.4585,1.25628c-0.22348,0.20672 -0.37604,0.60837 -0.43871,1.15153c-0.05278,0.45784 -0.24574,1.04332 -0.42964,1.30068c-0.1839,0.25667 -0.38511,0.75127 -0.44696,1.09951c-0.06267,0.34754 -0.30429,0.90597 -0.53767,1.24102c-0.30017,0.43078 -0.42387,0.82272 -0.42387,1.34369c0,0.57299 -0.09483,0.82897 -0.42964,1.16402c-0.38099,0.38153 -0.42964,0.5612 -0.42964,1.61145l0,1.18206l0.97556,0.92886c0.77187,0.73462 1.07864,0.92886 1.46705,0.92886c0.27048,0 0.81722,0.14637 1.21553,0.32465c0.72239,0.32534 0.73311,0.32534 11.46093,0.39749c10.72452,0.07214 10.73772,0.07284 10.78884,0.3739c0.02804,0.16649 -0.06845,0.38569 -0.21523,0.48767c-0.1674,0.11654 -0.26554,0.42454 -0.26554,0.82897c0,0.41136 -0.14761,0.85949 -0.40902,1.24657c-0.22513,0.33228 -0.45685,0.91845 -0.51458,1.30276c-0.05773,0.38431 -0.25976,0.88169 -0.44943,1.10575c-0.18967,0.22476 -0.34553,0.53969 -0.34553,0.70063c0,0.77902 0.50468,0.75058 -13.14156,0.74364l-12.59812,-0.00624l-0.79743,-0.35725c-0.43871,-0.19562 -1.07204,-0.35656 -1.40767,-0.35656c-0.39995,0 -0.78589,-0.12417 -1.12069,-0.36072c-0.28038,-0.19909 -0.66631,-0.36142 -0.85598,-0.36142c-0.33893,0 -3.57979,-2.57985 -3.57979,-2.8497c0,-0.07076 -0.19297,-0.34962 -0.42882,-0.61878c-0.27213,-0.30939 -0.42964,-0.6819 -0.42964,-1.0121c0,-0.32951 -0.15833,-0.70202 -0.42964,-1.01141c-0.41397,-0.47241 -0.42964,-0.56883 -0.42964,-2.7068c0,-2.07762 0.02721,-2.26075 0.42964,-2.92947c0.28203,-0.46824 0.42964,-0.95314 0.42964,-1.41236c0,-0.51888 0.1105,-0.8255 0.42964,-1.18899c0.29935,-0.3413 0.42882,-0.67566 0.42882,-1.10436c0,-0.37806 0.16575,-0.87614 0.42964,-1.29444c0.25811,-0.40789 0.42964,-0.91706 0.42964,-1.27432c0,-0.40304 0.14431,-0.77416 0.44613,-1.14737c0.33481,-0.41483 0.45603,-0.76445 0.48819,-1.40959c0.03134,-0.62224 0.13854,-0.94551 0.39088,-1.17928c0.22348,-0.20741 0.38758,-0.62294 0.45933,-1.16194c0.06102,-0.462 0.2408,-1.00655 0.39995,-1.2105c0.15916,-0.20464 0.34223,-0.74919 0.40655,-1.2105c0.07339,-0.52097 0.26966,-1.01834 0.52035,-1.31455c0.25976,-0.30731 0.41397,-0.70757 0.43376,-1.13003c0.04618,-0.98158 0.04536,-0.98019 0.29357,-1.1883c0.41397,-0.34823 0.58962,-0.75543 0.59787,-1.38462c0.00495,-0.34823 0.15586,-0.82272 0.34553,-1.08425c0.18472,-0.25597 0.39253,-0.82203 0.4618,-1.25836c0.07092,-0.44743 0.30347,-1.01349 0.53355,-1.2979c0.30842,-0.38292 0.40738,-0.70063 0.40738,-1.31316c0,-0.81925 0.30429,-1.25628 1.03081,-1.47965c0.56241,-0.17273 10.92161,-0.10614 11.13272,0.07145m-62.11976,2.92184c-0.13937,0.25736 -0.33646,0.37321 -0.6358,0.37321c-0.34718,0 -0.43294,0.07145 -0.43294,0.36142c0,0.29482 -0.08411,0.36142 -0.4585,0.36142c-0.25152,0 -0.40902,0.04093 -0.34965,0.09087c0.22513,0.18938 -0.24657,0.63126 -0.67374,0.63126c-0.41645,0 -0.43624,0.03468 -0.38016,0.67913c0.04948,0.57924 0.00742,0.69092 -0.28533,0.7589c-0.37109,0.08602 -0.45273,0.26985 -0.58962,1.32704c-0.0066,0.05064 -0.17647,0.12833 -0.37769,0.17204c-0.2441,0.05411 -0.33151,0.15539 -0.26306,0.30592c0.05608,0.12417 0.02804,0.22545 -0.0635,0.22545c-0.09401,0 -0.16658,0.52721 -0.16658,1.21327c0,1.17304 -0.01402,1.21535 -0.42964,1.30345c-0.42057,0.0881 -0.42964,0.11932 -0.42964,1.46023c0,1.36519 -0.00165,1.37074 -0.42882,1.37074c-0.41974,0 -0.42964,0.02428 -0.42964,1.07384c0,1.00308 -0.02556,1.07661 -0.38676,1.11962c-0.34965,0.04162 -0.39171,0.13666 -0.43706,0.98574c-0.06267,1.16888 -0.11628,1.30068 -0.52365,1.30068c-0.39088,0 -0.4684,0.6604 -0.09154,0.78179c0.61189,0.1977 0.76692,-0.00208 1.10338,-1.42624c0.11133,-0.47379 0.301,-0.99407 0.42057,-1.15639c0.11957,-0.16232 0.26306,-0.64652 0.31914,-1.07592c0.06762,-0.52305 0.2276,-0.89417 0.48324,-1.12379c0.31254,-0.27956 0.38841,-0.52721 0.4115,-1.35062c0.02391,-0.81648 0.11215,-1.1113 0.46592,-1.54971c0.30265,-0.37598 0.43871,-0.74295 0.44531,-1.19801c0.02062,-1.48035 2.03193,-4.63666 3.92284,-6.15516c0.61189,-0.49183 0.71827,-0.65346 0.60282,-0.91498c-0.13937,-0.31702 -0.14019,-0.31702 -0.3414,0.0548m29.78786,4.35918c-0.15091,0.33159 -0.13854,0.34962 0.23915,0.34962c0.58385,0 0.4651,0.69161 -0.12864,0.74919l-0.47252,0.04578l0.04123,1.11962c0.03958,1.09326 0.03051,1.12032 -0.36779,1.12032c-0.48407,0 -0.61766,0.51403 -0.5187,1.98744l0.06102,0.90319l-0.53272,0l-0.5319,0l0.08164,1.07661c0.07669,1.00239 0.05855,1.07939 -0.27048,1.11962c-0.45438,0.05619 -0.68281,0.88238 -0.56653,2.04779c0.07092,0.71381 0.03793,0.85741 -0.20864,0.91152c-0.16081,0.03607 -0.36697,0.19562 -0.45768,0.35656c-0.16246,0.2865 -0.32326,0.29205 -8.92679,0.31632l-8.76186,0.02428l0.02556,1.12032c0.02556,1.09188 0.01649,1.11962 -0.38676,1.11962c-0.44119,0 -0.48242,0.13805 -0.46098,1.55388c0.00825,0.53623 -0.03793,0.61392 -0.36449,0.61392c-0.42469,0 -0.55911,0.46408 -0.20534,0.71104c0.41892,0.29274 0.81145,-0.16024 0.94092,-1.08702c0.07422,-0.5286 0.27048,-1.04332 0.50138,-1.31594c0.26966,-0.3191 0.37851,-0.65693 0.37851,-1.17443c0,-1.25767 -0.58632,-1.17998 8.87731,-1.17998l8.33717,0l0.58467,-0.49114c0.48819,-0.41136 0.58385,-0.59658 0.58385,-1.13142c0,-0.3517 0.19297,-1.03985 0.42964,-1.5289c0.23585,-0.48906 0.42964,-1.14182 0.42964,-1.45052c0,-0.36142 0.13607,-0.70757 0.38099,-0.96909c0.25152,-0.26985 0.41727,-0.70341 0.48984,-1.28403c0.0602,-0.48212 0.27461,-1.18206 0.47829,-1.55526c0.20286,-0.37321 0.36862,-0.96979 0.36862,-1.32565c0,-0.47934 0.11133,-0.75821 0.42964,-1.07661c0.66549,-0.66525 0.54344,-1.90489 -0.18802,-1.90489c-0.11298,0 -0.25152,0.10267 -0.30924,0.22823m-18.38053,0.36211c-0.25069,0.16579 -0.71992,0.3628 -1.044,0.43772c-0.58632,0.13596 -0.91536,0.54941 -0.68611,0.86226c0.07174,0.09712 0.19462,0.02844 0.31914,-0.17967c0.17153,-0.2858 0.32656,-0.33575 1.00277,-0.32187c0.73888,0.01457 0.80321,-0.01249 0.85103,-0.36142c0.04618,-0.33228 0.13937,-0.38223 0.78589,-0.42177c0.89392,-0.05411 0.79496,-0.31702 -0.11957,-0.31702c-0.40243,0 -0.82877,0.11585 -1.10915,0.30176m-3.82306,2.65477c-0.24904,0.14706 -0.38841,0.43148 -0.46015,0.94481c-0.05773,0.40581 -0.26059,0.9025 -0.45438,1.10991c-0.26801,0.2865 -0.3513,0.58756 -0.3513,1.27571c0,0.70618 -0.08082,0.98643 -0.37439,1.30068c-0.24822,0.26569 -0.40078,0.67358 -0.45273,1.21189c-0.05525,0.57299 -0.19709,0.93094 -0.48407,1.21952c-0.33893,0.3406 -0.40655,0.57091 -0.40655,1.3756c0,0.79359 -0.07752,1.06274 -0.42964,1.49908c-0.30512,0.37806 -0.42964,0.72491 -0.42964,1.20148c0,0.4294 -0.18637,1.02736 -0.51953,1.66626c-0.35295,0.67705 -0.48489,1.11338 -0.41067,1.36242c0.17895,0.59727 0.4148,0.56814 0.4148,-0.05203c0,-0.48767 0.05937,-0.5834 0.38676,-0.62224c0.45685,-0.0548 0.5319,-0.32604 0.50633,-1.81679c-0.01732,-0.99337 0.00165,-1.04748 0.36697,-1.04748c0.45603,0 0.55169,-0.36974 0.5154,-1.98744c-0.02391,-1.08355 0.05937,-1.18483 0.87,-1.05789c0.08741,0.01387 0.11215,-0.4509 0.05608,-1.0669c-0.09648,-1.07315 -0.09154,-1.09049 0.30759,-1.09049c0.46098,0 0.4618,-0.00277 0.49066,-1.69817c0.01897,-1.11754 0.04371,-1.19246 0.38841,-1.19246c0.4148,0 0.56818,-0.48281 0.49066,-1.54555c-0.03793,-0.52235 0.0066,-0.61253 0.32079,-0.65069c0.39913,-0.04786 0.62508,-0.54941 0.24739,-0.54941c-0.127,0 -0.39253,0.09434 -0.5888,0.21019m-15.69136,10.00447c-0.00495,0.51472 -0.06267,0.61115 -0.39171,0.64999c-0.36697,0.0437 -0.38923,0.11862 -0.43624,1.45537c-0.047,1.35271 -0.06432,1.40889 -0.43541,1.40889c-0.42469,0 -0.54592,0.37598 -0.49974,1.55388c0.01979,0.50778 -0.03134,0.61392 -0.29357,0.61392c-0.44366,0 -0.52612,0.27262 -0.52612,1.74603c0,1.27848 -0.0033,1.28889 -0.42882,1.28889c-0.46263,0 -0.51293,0.16441 -0.47582,1.55388c0.01484,0.55704 -0.02227,0.61392 -0.3983,0.61392c-0.26141,0 -0.4148,0.08394 -0.4148,0.22545c0,0.12764 0.08246,0.18244 0.18967,0.12695c0.10391,-0.05411 0.07009,0.0555 -0.07669,0.24418c-0.18637,0.24071 -0.25317,0.63126 -0.22348,1.31178c0.04123,0.94134 0.02969,0.96979 -0.39583,1.01141c-0.43459,0.04301 -0.43871,0.05688 -0.48737,1.51642c-0.04371,1.31802 -0.08411,1.48243 -0.38676,1.5629c-0.24657,0.0659 -0.33398,0.21435 -0.32574,0.5501c0.01072,0.38847 0.03546,0.41483 0.15998,0.17134c0.12617,-0.24696 0.14926,-0.25251 0.15998,-0.03607c0.01567,0.33505 2.58856,0.38847 2.58856,0.05341c0,-0.32396 -0.47665,-0.56259 -0.93185,-0.46686c-0.98628,0.20811 -1.22377,-1.75297 -0.33481,-2.75674c0.33068,-0.37251 0.4082,-0.63681 0.4082,-1.38947c0,-0.72214 0.07917,-1.01488 0.35625,-1.31108c0.20699,-0.2206 0.4181,-0.74642 0.50221,-1.24726c0.08411,-0.50085 0.29605,-1.02598 0.50221,-1.24726c0.28698,-0.30661 0.35707,-0.58687 0.35707,-1.43456c0,-0.89487 0.06102,-1.11477 0.40573,-1.46162c0.23585,-0.23794 0.45768,-0.70965 0.5319,-1.12864c0.06927,-0.39541 0.27296,-0.89348 0.45356,-1.10575c0.23173,-0.2747 0.32656,-0.63265 0.32656,-1.23408c0,-0.65901 0.09318,-0.96216 0.41645,-1.36311c0.55911,-0.69092 0.71002,-1.41861 0.37192,-1.79112c-0.24739,-0.27401 -0.26224,-0.25667 -0.26719,0.31494m10.34931,5.42261c-0.09896,0.10267 -0.21028,0.65415 -0.24739,1.22437c-0.04948,0.77 -0.15338,1.11754 -0.40243,1.34924c-0.2408,0.22406 -0.36449,0.61323 -0.43954,1.38878c-0.07257,0.7485 -0.21111,1.19801 -0.45108,1.47133c-0.21606,0.24557 -0.37769,0.70757 -0.42882,1.22437c-0.05855,0.59866 -0.19049,0.92678 -0.47087,1.17859c-0.23832,0.21296 -0.40655,0.56397 -0.43211,0.9018c-0.09071,1.17096 -0.31089,1.87575 -0.76197,2.43279l-0.4684,0.57785l-3.08335,0.02359c-1.69547,0.01249 -3.17983,0.02844 -3.29776,0.03607c-0.11792,0.00694 -0.21441,0.1429 -0.21441,0.30176c0,0.27887 0.11463,0.28858 3.43548,0.28858c2.63309,0 3.43712,-0.04232 3.43877,-0.18036c0.00165,-0.12556 0.0503,-0.11723 0.15833,0.02636c0.11463,0.15192 0.17153,0.07631 0.21276,-0.28303c0.04371,-0.38569 0.14761,-0.50917 0.48572,-0.57577c0.47417,-0.09365 0.47005,-0.07908 0.49726,-1.84107c0.01732,-1.17165 0.02556,-1.19246 0.44778,-1.19246c0.41892,0 0.42882,-0.02497 0.42882,-1.07384c0,-1.00378 0.02556,-1.07661 0.38676,-1.12032c0.36614,-0.0437 0.38923,-0.11862 0.43541,-1.44566c0.04618,-1.3201 0.07092,-1.40196 0.42964,-1.44497c0.43376,-0.05203 0.41645,0.01526 0.44531,-1.69747c0.01979,-1.22229 0.04206,-1.29305 0.40738,-1.33675c0.21276,-0.02567 0.38676,-0.11168 0.38676,-0.19077c0,-0.22198 -0.69353,-0.25528 -0.89804,-0.04301m4.80686,0.79151c-0.8799,0.28719 0.50716,0.34407 8.0271,0.32951c8.57467,-0.01595 8.70826,-0.00902 8.42293,0.43842c-0.09483,0.14914 -0.17235,0.76306 -0.17235,1.3645c0,1.06968 -0.00907,1.09326 -0.42882,1.09326c-0.41974,0 -0.42964,0.02497 -0.42964,1.07384c0,1.00378 -0.02556,1.07661 -0.38676,1.12032c-0.43211,0.05133 -0.42552,0.02636 -0.45273,1.6614c-0.01897,1.11061 -0.04371,1.18552 -0.40655,1.22853c-0.35625,0.04301 -0.39006,0.13111 -0.43624,1.13419c-0.04371,0.96354 -0.09236,1.10436 -0.42882,1.22853c-0.25646,0.09434 -0.39171,0.28233 -0.41397,0.57438c-0.03216,0.41552 -0.02804,0.4183 0.11133,0.07214c0.14019,-0.34823 0.14679,-0.34962 0.16328,-0.03607c0.02062,0.40234 4.18508,0.52235 4.36568,0.12556c0.17482,-0.38361 -0.24162,-0.50015 -1.50333,-0.41969c-2.01461,0.12833 -2.64629,-0.66525 -1.58002,-1.98536c0.29522,-0.36488 0.42634,-0.76376 0.47829,-1.44844c0.05113,-0.67358 0.18142,-1.07453 0.45273,-1.39502c0.26966,-0.3191 0.38016,-0.65832 0.38016,-1.1661c0,-0.57993 0.09978,-0.82203 0.5187,-1.2653c0.40985,-0.43425 0.49726,-0.64167 0.41974,-0.99545c-0.05525,-0.25112 0.01897,-0.72422 0.16905,-1.07939c0.4082,-0.96632 0.3546,-1.44219 -0.18142,-1.61353c-0.44943,-0.14359 -16.2546,-0.18175 -16.68836,-0.04023m20.39267,11.09496c-0.50386,0.42385 -0.15833,0.51264 1.9841,0.51264c2.12181,0 2.66691,-0.14637 1.94204,-0.52305c-0.30512,-0.15886 -3.73647,-0.14984 -3.92614,0.01041" id="svg_4"/>
   <path fill-rule="evenodd" fill="#2db4b3" d="m51.15693,1.79864c-0.05773,0.19285 -0.23997,0.38014 -0.4049,0.41691c-0.27626,0.06035 -0.27543,0.06729 0.01155,0.08255c0.45603,0.02428 0.31996,0.66733 -0.14019,0.66733c-0.2441,0 -0.34058,-0.09296 -0.33151,-0.31841c0.00742,-0.17481 -0.05113,-0.28441 -0.12864,-0.24418c-0.33563,0.17481 -0.14926,0.924 0.22925,0.924c0.51046,0 1.84968,-1.23755 1.73588,-1.60382c-0.12947,-0.41691 -0.84114,-0.36142 -0.97143,0.07561m2.39972,-0.1096c-0.21441,0.46894 0.35542,0.48212 18.46465,0.44605l18.28817,-0.03677l0.05443,-0.32534l0.05525,-0.32534l-18.37641,0c-16.99513,0 -18.38466,0.01804 -18.48609,0.24141m38.83505,0.79081c-0.06267,0.56814 -0.07917,1.06274 -0.03628,1.09881c0.15586,0.1318 0.44448,-0.1318 0.44448,-0.40512c0,-0.19978 0.11875,-0.28025 0.4115,-0.28025c0.89639,0 0.70837,-1.35617 -0.19627,-1.41444l-0.50881,-0.0326l-0.11463,1.03361m13.23639,-0.93163c0.51211,0.08394 0.66714,0.49322 0.2812,0.74364c-0.27791,0.18036 -0.25646,0.18869 0.20534,0.08324c0.85186,-0.19423 33.15654,-0.19562 33.62247,-0.00139c0.58385,0.24418 0.64405,1.27501 0.10885,1.87991c-0.2441,0.27609 -0.43459,0.74919 -0.49974,1.24102c-0.05855,0.43703 -0.16246,0.9247 -0.2309,1.08355c-0.07917,0.18452 -0.02886,0.15816 0.13937,-0.07214c0.14431,-0.1984 0.26636,-0.65762 0.26966,-1.01973c0.00412,-0.46963 0.12864,-0.79844 0.43541,-1.14807c0.37686,-0.43009 0.42964,-0.63681 0.42964,-1.68984l0,-1.20079l-17.56661,0.02012c-9.66238,0.01041 -17.39921,0.04717 -17.19469,0.08047m-55.28344,3.11053c0.07917,0.40165 0.10308,0.42177 0.15751,0.1325c0.03546,-0.18799 -0.0066,-0.40165 -0.09318,-0.47449c-0.09566,-0.07977 -0.1204,0.0548 -0.06432,0.34199m39.46838,0.17134c-0.5154,0.9136 -0.22101,2.41891 0.32656,1.6725c0.0602,-0.08186 0.0066,-0.13041 -0.11875,-0.10822c-0.29522,0.05133 -0.40243,-0.92331 -0.14514,-1.32773c0.11463,-0.18036 0.36037,-0.29482 0.6325,-0.29482c0.37521,0 0.4115,-0.0333 0.23008,-0.21643c-0.33728,-0.34269 -0.62508,-0.25667 -0.92525,0.2747m6.66314,0.2199l-0.01732,0.42177l0.48984,-0.30523c0.54097,-0.33644 0.61354,-0.42524 0.24987,-0.308c-0.13194,0.04232 -0.2911,0.00832 -0.35377,-0.077c-0.20121,-0.27332 -0.35047,-0.16441 -0.36862,0.26846m-47.31324,0.57369c0,0.24973 0.57725,0.31424 0.84031,0.09296c0.2375,-0.19978 0.20864,-0.22198 -0.28863,-0.22198c-0.30347,0 -0.55169,0.05758 -0.55169,0.12903m45.85362,0.77416c-0.87165,0.88446 -0.96978,1.04262 -0.5187,0.84006c0.20039,-0.09018 0.36367,-0.231 0.36367,-0.31286c0,-0.08186 0.20286,-0.37251 0.45026,-0.64514c0.63415,-0.69994 0.42964,-0.61808 -0.29522,0.11793m-6.50068,0.67705c-0.19627,0.1651 -0.3546,0.48697 -0.3546,0.72006c0,0.32465 -0.10803,0.45715 -0.47252,0.57924c-0.45768,0.15331 -0.45438,0.15539 0.1204,0.08186c0.32656,-0.04162 0.6358,-0.1318 0.68775,-0.20117c0.05195,-0.06937 0.24904,-0.15053 0.43789,-0.18036c0.27378,-0.0437 0.34388,-0.16926 0.34388,-0.61878c0,-0.66248 -0.26883,-0.79636 -0.7628,-0.38084m-39.04781,0.38847c0.07257,0.31632 0.11215,0.3406 0.24327,0.14359c0.15998,-0.24071 0.0569,-0.52305 -0.19132,-0.52305c-0.07587,0 -0.09896,0.17065 -0.05195,0.37945m39.64321,-0.08394c0.16081,0.21921 -0.27543,0.61878 -0.48407,0.44327c-0.19297,-0.16232 -0.04288,-0.5938 0.20616,-0.5938c0.09154,0 0.21688,0.06798 0.27791,0.15053m49.43753,0.93302c0.00082,0.39749 0.03464,0.54316 0.07339,0.32326c0.03958,-0.2199 0.03876,-0.54455 -0.00165,-0.72283c-0.04123,-0.17759 -0.07339,0.00208 -0.07174,0.39957m-89.30999,-0.05827c-0.06432,0.08671 -0.301,0.12833 -0.52612,0.09226c-0.22513,-0.03677 -0.40902,-0.00971 -0.40902,0.05827c0,0.21019 0.80403,0.13805 1.03081,-0.09226c0.11792,-0.11932 0.1707,-0.21643 0.1171,-0.21643c-0.0536,0 -0.14926,0.07076 -0.21276,0.15816m71.69967,0.23724c0.49891,0.02914 1.27243,0.02914 1.71774,-0.00069c0.44613,-0.02983 0.03711,-0.05341 -0.90711,-0.05341c-0.94504,0.00069 -1.31036,0.02497 -0.81063,0.05411m-11.72152,0.25944c-0.18719,0.11862 -0.23832,0.21227 -0.11628,0.21227c0.11957,0 0.33316,-0.09781 0.475,-0.21713c0.32903,-0.27678 0.07917,-0.27401 -0.35872,0.00486m17.47507,1.07939c0,0.35725 0.03299,0.50362 0.07422,0.32465c0.04123,-0.17828 0.04123,-0.47102 0,-0.64999c-0.04123,-0.17897 -0.07422,-0.0326 -0.07422,0.32534m-66.906,-0.04717c-0.15751,0.03468 -0.32903,0.15747 -0.38099,0.27262c-0.07834,0.16996 -0.01649,0.1651 0.32821,-0.02497c0.33398,-0.18383 0.60117,-0.41414 0.38181,-0.32812c-0.02391,0.00902 -0.17153,0.04509 -0.32903,0.08047m45.38357,0.2636c-0.1171,0.11932 -0.31419,0.21713 -0.43706,0.21713c-0.44861,0 -1.29717,0.74087 -1.18584,1.03499c0.05773,0.15331 0.01072,0.37529 -0.10473,0.49183c-0.17895,0.18175 -0.14926,0.19354 0.20121,0.08255c0.33151,-0.10475 0.39995,-0.21643 0.35625,-0.58062c-0.04453,-0.3739 0.0066,-0.4509 0.30017,-0.4509c0.39336,0 0.44448,0.16787 0.1773,0.58756c-0.13772,0.21643 -0.12205,0.27956 0.07092,0.27956c0.15916,0 0.29028,-0.2199 0.36614,-0.61392c0.06432,-0.33783 0.2276,-0.76098 0.36202,-0.93996c0.27873,-0.36905 0.21523,-0.43356 -0.10638,-0.10822m-56.66308,0.32951c0.0503,0.55565 -0.1674,0.79359 -0.65229,0.71589c-0.45768,-0.07353 -0.55993,0.10405 -0.13772,0.24002c0.45438,0.14637 0.54014,0.10683 0.91371,-0.42662c0.42552,-0.60698 0.46098,-0.93094 0.10061,-0.93094c-0.17895,0 -0.24904,0.12556 -0.2243,0.40165m89.0329,0.8248c-0.09566,0.34893 -0.11545,0.60351 -0.04371,0.56606c0.14844,-0.07769 0.39501,-1.05234 0.2878,-1.14182c-0.03793,-0.03191 -0.14761,0.22684 -0.2441,0.57577m-78.4931,0.12001c0.09483,0.42315 0.05855,0.58617 -0.15833,0.72006c-0.2408,0.14914 -0.20781,0.1755 0.2375,0.18869c0.65394,0.01942 0.75455,-0.72907 0.15833,-1.18275l-0.35955,-0.27332l0.12205,0.54733m32.82998,-0.11238c-0.05855,0.12903 -0.10061,0.34338 -0.09236,0.47587c0.00825,0.1325 0.08329,0.04925 0.16658,-0.18522c0.16163,-0.45645 0.10473,-0.6819 -0.07422,-0.29066m-44.16144,1.20425c0.37192,0.30384 0.50963,0.28511 0.3579,-0.04786c-0.05608,-0.12209 -0.2342,-0.22268 -0.39501,-0.22268c-0.26306,0 -0.25894,0.02775 0.03711,0.27054m54.82989,0.35517c-0.06762,0.14568 -0.11875,0.40581 -0.11298,0.57854c0.01072,0.2969 0.01979,0.29551 0.17812,-0.03885c0.09236,-0.19423 0.14266,-0.45437 0.11298,-0.57854c-0.04453,-0.18522 -0.07587,-0.17828 -0.17812,0.03885m34.01005,0.93788c-0.16823,0.4516 -0.34965,0.91845 -0.4016,1.03777c-0.05195,0.11932 0.02474,0.08047 0.17153,-0.08532c0.26883,-0.30592 0.72981,-1.61215 0.60529,-1.7169c-0.03711,-0.03122 -0.20616,0.31286 -0.37521,0.76445m-78.28694,-0.45021c0,0.1651 0.11628,0.33852 0.25811,0.38431c0.32244,0.10405 0.32079,-0.04232 -0.00577,-0.40512c-0.24739,-0.2754 -0.25234,-0.2754 -0.25234,0.02081m-11.68194,0.3524c0,0.15261 0.80815,0.16579 0.91783,0.01526c0.04371,-0.05966 -0.14514,-0.11515 -0.41974,-0.12348c-0.27378,-0.00832 -0.49809,0.04023 -0.49809,0.10822m78.38755,1.42485c0,0.35725 0.03381,0.50362 0.07504,0.32465c0.04041,-0.17828 0.04041,-0.47102 0,-0.64999c-0.04123,-0.17897 -0.07504,-0.0326 -0.07504,0.32534m10.81111,1.31871c-0.09896,0.32812 -0.1171,0.539 -0.03958,0.46963c0.16081,-0.14429 0.4181,-1.06621 0.2977,-1.06621c-0.04288,0 -0.15916,0.26846 -0.25811,0.59658m-90.04475,-0.05411c-0.01567,0.38639 0.50963,0.44882 0.85268,0.10128c0.19132,-0.19423 0.16163,-0.21505 -0.22678,-0.15608c-0.25234,0.03885 -0.48324,-0.00555 -0.52942,-0.10128c-0.04536,-0.09296 -0.08906,-0.02289 -0.09648,0.15608m11.95572,-0.15678c-0.15586,0.13111 -0.14514,0.73809 0.01402,0.81995c0.07092,0.03677 0.13524,-0.15469 0.14184,-0.42524c0.01402,-0.53345 0.01237,-0.53692 -0.15586,-0.39471m8.60436,0.15608c2.19686,0.02289 5.79149,0.02289 7.98835,0c2.19686,-0.02289 0.39995,-0.04162 -3.99376,-0.04162c-4.39371,0 -6.19144,0.01873 -3.99459,0.04162m57.83655,0.38431c-0.05113,0.11168 -0.06597,0.42038 -0.03299,0.68606c0.05278,0.42385 0.07092,0.39887 0.14266,-0.20256c0.08411,-0.7041 0.05278,-0.84076 -0.10968,-0.48351m-65.8686,0.3746c-0.18637,0.10128 -0.04371,0.13805 0.5154,0.1325c0.5888,-0.00624 0.69105,-0.03746 0.42964,-0.1325c-0.46015,-0.16579 -0.6391,-0.16579 -0.94504,0m2.9209,0.00208c-0.23585,0.06243 3.84203,0.12001 9.06286,0.12833c6.12382,0.00902 9.49168,-0.03607 9.49168,-0.12764c0,-0.17273 -17.90719,-0.17342 -18.55453,-0.00069m39.68609,0.94689c0,0.28372 -0.08164,0.65762 -0.18142,0.83105c-0.17482,0.30523 -0.17235,0.30592 0.08576,0.03538c0.24162,-0.2532 0.38923,-1.38184 0.18142,-1.38184c-0.047,0 -0.08576,0.23239 -0.08576,0.51542m-55.1482,0.16302c0,0.08671 -0.19297,0.1984 -0.42964,0.24834c-0.51293,0.10822 -0.62673,1.46717 -0.18225,2.18722l0.24739,0.40165l0.08576,-0.34893c0.04783,-0.19146 0.12452,-0.51125 0.17235,-0.70965c0.047,-0.1984 0.1839,-0.63751 0.30347,-0.97464c0.16905,-0.47865 0.17153,-0.65207 0.0099,-0.78804c-0.13772,-0.11585 -0.20699,-0.1207 -0.20699,-0.01595m89.20443,0.76723c0,0.27817 0.03546,0.39194 0.07917,0.25251c0.04288,-0.13874 0.04288,-0.36627 0,-0.5057c-0.04371,-0.13874 -0.07917,-0.02497 -0.07917,0.2532m-56.46434,0.80469c-0.31254,0.2636 -0.32491,0.34477 -0.09813,0.64028c0.13029,0.16926 0.1674,0.1318 0.16905,-0.17342c0.00165,-0.21713 0.13607,-0.45576 0.30347,-0.53761c0.16575,-0.08116 0.20946,-0.14914 0.09813,-0.15192c-0.11133,-0.00208 -0.32409,0.09781 -0.47252,0.22268m21.60408,0.64028c0,0.5168 0.03134,0.72769 0.06927,0.46963c0.03793,-0.25805 0.03793,-0.68121 0,-0.93926c-0.03793,-0.25805 -0.06927,-0.04717 -0.06927,0.46963m34.33661,-0.41622c-0.26801,0.27817 -0.37439,0.54386 -0.32656,0.81232l0.07174,0.39887l0.02556,-0.42454c0.01484,-0.23308 0.19379,-0.57438 0.39913,-0.75821c0.20534,-0.18314 0.34058,-0.35795 0.30017,-0.38778c-0.03958,-0.02914 -0.25069,0.1325 -0.47005,0.35933m-45.35388,0.35032c0.01319,0.28164 0.07587,0.4398 0.14101,0.3517c0.11133,-0.15123 0.02639,-0.86365 -0.10308,-0.86365c-0.03299,0 -0.0503,0.23031 -0.03793,0.51195m-0.60529,1.02944c-0.0635,0.05272 -0.10473,0.42662 -0.09154,0.83105l0.02227,0.73462l0.1105,-0.65069c0.06102,-0.35725 0.1707,-0.73115 0.24492,-0.83105c0.13937,-0.1873 -0.08494,-0.2532 -0.28615,-0.08394m45.37532,0.45715l-0.29522,0.51264l0.3546,-0.29829c0.19544,-0.16441 0.32821,-0.39471 0.29522,-0.51264c-0.03628,-0.12972 -0.17647,-0.01179 -0.3546,0.29829m-89.81467,-0.11862c0,0.16926 0.6292,0.19354 0.75043,0.02914c0.04618,-0.06243 -0.10391,-0.12695 -0.33398,-0.1429c-0.22925,-0.01595 -0.41645,0.03538 -0.41645,0.11377m61.22007,0.25389c-0.17977,0.09573 8.59858,0.09157 14.37193,-0.00763c1.27573,-0.0215 -1.39118,-0.05272 -5.92673,-0.06937c-4.53555,-0.01595 -8.33635,0.01873 -8.4452,0.077m-27.72872,0.68398c-0.06597,0.37668 -0.17647,0.45437 -0.83866,0.58825c-0.53272,0.10822 -0.67539,0.18314 -0.47252,0.24834c0.16905,0.0548 0.29028,0.24973 0.29028,0.46824c0,0.76515 1.4456,0.4509 1.51323,-0.32951c0.02886,-0.33922 -0.02391,-0.61392 -0.11792,-0.61392c-0.09318,0 -0.19874,-0.17897 -0.2342,-0.39749l-0.0635,-0.39749l-0.07669,0.43356m27.37742,0.36142c0,0.43703 0.03216,0.616 0.07174,0.39749c0.03958,-0.21851 0.03958,-0.57646 0,-0.79497c-0.03958,-0.21851 -0.07174,-0.03954 -0.07174,0.39749m-31.49076,0.14429c-0.15751,0.08602 -3.54103,0.14151 -8.68517,0.14221c-8.99276,0.00277 -8.85835,-0.00832 -8.81876,0.71797c0.01897,0.34199 0.02886,0.33714 0.13112,-0.06521l0.10968,-0.43356l9.32345,-0.01595c5.12765,-0.00832 9.3721,-0.05758 9.43313,-0.10822c0.0602,-0.05064 -0.09154,-0.09226 -0.3381,-0.09226c-0.24657,0 -0.49561,-0.06521 -0.55416,-0.14498c-0.13194,-0.17897 -0.27131,-0.17897 -0.60117,0m59.73653,0.74572c-0.06597,0.21088 -0.1641,0.50362 -0.21771,0.64999c-0.0536,0.14637 0.02804,0.08394 0.18142,-0.13943c0.15338,-0.22337 0.25152,-0.51542 0.21771,-0.64999c-0.04288,-0.17204 -0.09731,-0.13041 -0.18142,0.13943m-89.19783,0.4072c-0.06515,0.08741 -0.26554,0.12001 -0.44696,0.07214c-0.40408,-0.10822 -0.44201,0.15331 -0.04123,0.28233c0.29357,0.09434 0.89474,-0.27123 0.70672,-0.4294c-0.05525,-0.04717 -0.15421,-0.01318 -0.21853,0.07492m10.25117,0.01249c0.04206,0.10405 0.1773,0.21782 0.301,0.2532c0.12864,0.03607 0.19297,-0.01804 0.15009,-0.12695c-0.04123,-0.10405 -0.17647,-0.21782 -0.30017,-0.25251c-0.12947,-0.03607 -0.19379,0.01804 -0.15091,0.12625m33.18046,1.00239c0,0.5168 0.03134,0.72838 0.06927,0.46963c0.03876,-0.25805 0.03876,-0.68051 0,-0.93926c-0.03793,-0.25805 -0.06927,-0.04648 -0.06927,0.46963m16.60755,0.53553c-0.04618,0.49322 -0.02062,0.84353 0.05525,0.77902c0.07587,-0.06382 0.1138,-0.46755 0.08329,-0.89625l-0.05525,-0.77902l-0.08329,0.89625m28.38184,0.26083c-0.01732,0.31841 -0.10885,0.80261 -0.20204,1.07661c-0.15256,0.44882 -0.14349,0.47587 0.09566,0.2754c0.19544,-0.1651 0.24822,-0.44605 0.20204,-1.07731c-0.04371,-0.59658 -0.07257,-0.67982 -0.09566,-0.2747m-45.44129,0.46824c-0.04041,0.05966 -0.16905,0.46616 -0.28615,0.90319c-0.1171,0.43772 -0.28203,0.90874 -0.36697,1.04817c-0.11463,0.1866 -0.08741,0.25251 0.10391,0.25251c0.1773,0 0.25976,-0.14776 0.26141,-0.46963c0.00082,-0.25805 0.11298,-0.77833 0.24904,-1.1557c0.22265,-0.616 0.23915,-0.87336 0.03876,-0.57854m11.01232,0.53068c-0.29192,0.33783 -0.2911,0.33922 0.12782,0.1762c0.23173,-0.09087 0.42222,-0.24626 0.42304,-0.34546c0.00165,-0.27748 -0.22513,-0.20741 -0.55086,0.16926m-55.62732,0.26915c0,0.22268 0.54674,0.28372 0.78094,0.08741c0.20286,-0.17134 0.16246,-0.20048 -0.27131,-0.20048c-0.28038,0 -0.50963,0.05064 -0.50963,0.11307m60.30224,0.41691c0,0.40373 0.01402,0.40928 0.98793,0.3961c0.92855,-0.01179 0.95329,-0.0215 0.41232,-0.15261c-0.43047,-0.10405 -0.55581,-0.20395 -0.49644,-0.3961c0.06267,-0.20187 -0.02474,-0.25736 -0.4115,-0.25736c-0.42552,0 -0.49231,0.0555 -0.49231,0.40997m-49.04747,-0.17065c-0.06267,0.08463 0.01402,0.10475 0.18637,0.04925c0.18307,-0.05966 0.37769,0.00486 0.52447,0.17342c0.22183,0.25528 0.23255,0.2532 0.23255,-0.04856c0,-0.33505 -0.72651,-0.46894 -0.9434,-0.17412m59.59799,0.54386c4.65183,0.02775 6.75632,0.08949 6.9196,0.20256c0.1839,0.12903 0.21111,0.11307 0.12535,-0.07353c-0.09813,-0.21574 -0.73971,-0.23447 -6.91878,-0.20325l-6.81075,0.03468l6.68458,0.03954m-15.66085,0.68676c0.00165,0.31771 0.03711,0.43078 0.07834,0.25112c0.04123,-0.17967 0.03958,-0.4398 -0.00412,-0.57854c-0.04288,-0.13805 -0.07587,0.00902 -0.07422,0.32742m33.9985,0c-0.01649,0.23794 -0.07009,0.59588 -0.11875,0.79428l-0.08824,0.36142l0.18472,-0.35587c0.10226,-0.19632 0.15503,-0.55357 0.11875,-0.79497l-0.0668,-0.43842l-0.02969,0.43356m-90.15112,0.55357c0.05608,0.14568 0.10226,0.29205 0.10226,0.32534c0,0.13388 0.46922,0.04786 0.77929,-0.1429c0.30759,-0.18938 0.29687,-0.1977 -0.15668,-0.12487c-0.31089,0.04995 -0.54921,0.00555 -0.65724,-0.12209c-0.13029,-0.15331 -0.14596,-0.13874 -0.06762,0.06451m44.30163,0.67427c0,0.35795 0.03381,0.50432 0.07422,0.32534c0.04123,-0.17897 0.04123,-0.47171 0,-0.64999c-0.04041,-0.17897 -0.07422,-0.0326 -0.07422,0.32465m-31.72083,0.83521c0.32409,1.12725 0.81557,1.42901 0.96154,0.59103c0.06185,-0.3524 0.00907,-0.46824 -0.23832,-0.52305c-0.174,-0.03815 -0.31666,-0.12001 -0.31666,-0.18175c0,-0.06174 -0.1171,-0.14984 -0.25976,-0.19632c-0.20781,-0.06659 -0.2375,-0.00416 -0.14679,0.31008m42.72079,0.32118c0,0.43703 0.03216,0.616 0.07174,0.39749c0.03958,-0.21851 0.03958,-0.57646 0,-0.79497c-0.03958,-0.21851 -0.07174,-0.03954 -0.07174,0.39749m34.0051,0c0,0.27817 0.03546,0.39194 0.07834,0.2532c0.04371,-0.13943 0.04371,-0.36696 0,-0.5064c-0.04288,-0.13874 -0.07834,-0.02497 -0.07834,0.2532m-45.80249,1.04748c-0.0569,0.17897 -0.10473,0.58132 -0.10555,0.89417c-0.00165,0.38916 -0.12452,0.67843 -0.38923,0.91498c-0.37521,0.33575 -0.77764,2.57708 -0.42964,2.39602c0.07092,-0.03677 0.12864,-0.48906 0.12864,-1.00447c0,-0.79844 0.0602,-0.98505 0.4049,-1.25628c0.32244,-0.25389 0.42222,-0.51611 0.49561,-1.29374c0.09566,-1.02251 0.06845,-1.19316 -0.10473,-0.65069m-22.68766,0.35032c-0.1839,0.40304 0.24327,0.48281 2.39312,0.44535c1.99152,-0.03538 2.06326,-0.04786 2.11604,-0.36211c0.07422,-0.43911 -4.3096,-0.52097 -4.50916,-0.08324m6.25824,0.12001c0,0.2865 0.08659,0.36072 0.41974,0.36072c0.48489,0 0.65642,-0.16649 0.50716,-0.49252c-0.18142,-0.39749 -0.9269,-0.29135 -0.9269,0.1318m2.60836,-0.03677c0.04618,0.2754 0.17318,0.33089 0.82794,0.3628c0.89392,0.0437 1.26006,-0.10405 1.1042,-0.44605c-0.19297,-0.42315 -2.00471,-0.34477 -1.93215,0.08324m8.0436,0.97603c0,0.07908 0.174,0.14359 0.38593,0.14221c0.31254,-0.00208 0.33728,-0.02914 0.12947,-0.14221c-0.33316,-0.18105 -0.5154,-0.18105 -0.5154,0m50.67779,0.53484c-0.04536,0.41344 -0.01979,0.69855 0.0569,0.63404c0.07752,-0.06521 0.11463,-0.40373 0.08329,-0.75197l-0.0569,-0.63404l-0.08329,0.75197m-88.25939,0.71659c-0.11792,0.04023 -0.21523,0.21019 -0.21523,0.37806c0,0.28233 0.01649,0.2858 0.21936,0.05203c0.40738,-0.46824 0.81145,-0.14706 0.81145,0.64583c0,0.38916 0.07752,0.70757 0.17235,0.70757c0.39995,0 0.05773,-1.52197 -0.39748,-1.76545c-0.22678,-0.1214 -0.2812,-0.12278 -0.59045,-0.01804m76.462,1.42207c0.00082,0.47657 0.03299,0.65415 0.07092,0.39471c0.03793,-0.25944 0.03711,-0.64999 -0.00165,-0.86712c-0.03958,-0.21713 -0.07092,-0.00486 -0.06927,0.47241m10.96202,0.02636c-0.01155,0.2532 -0.09731,0.63126 -0.19132,0.83937c-0.10555,0.23378 -0.10803,0.34615 -0.0066,0.29343c0.21028,-0.1096 0.40655,-0.97603 0.29935,-1.32565c-0.04865,-0.15816 -0.08989,-0.07908 -0.10143,0.19285m-50.35783,-0.04093c0,0.1214 -0.15338,0.33991 -0.34058,0.48628c-0.18637,0.14637 -0.44366,0.65346 -0.56983,1.12587c-0.19214,0.71589 -0.31584,0.89556 -0.74136,1.07592c-0.7496,0.31841 -0.5888,0.72283 0.28615,0.72283c0.55829,0 0.68528,-0.0548 0.75125,-0.32534c0.1707,-0.693 0.20204,-1.24588 0.06762,-1.17651c-0.07752,0.04023 -0.14101,-0.08879 -0.14101,-0.28788c0,-0.40234 0.27626,-0.60906 0.73064,-0.54594c0.33893,0.04648 0.45438,-1.03569 0.12864,-1.20495c-0.09483,-0.04925 -0.17153,0.00902 -0.17153,0.12972m-33.21757,1.94096c-0.46345,0.43148 -0.25976,0.74711 0.48324,0.74711c0.29192,0 0.43376,-0.47171 0.23255,-0.77416c-0.20286,-0.30592 -0.36449,-0.29968 -0.71579,0.02705m1.75072,0.55357c-0.35542,0.72214 -0.29192,0.84006 0.47665,0.88724c0.95989,0.05896 1.08358,-0.31632 0.29357,-0.88724l-0.56818,-0.41067l-0.20204,0.41067m80.77325,-0.09573c-0.15833,0.24904 -0.37934,0.29343 -1.59487,0.31771l-1.41097,0.02844l1.16275,0.05064c0.9269,0.04023 1.20563,0.10752 1.37304,0.33297c0.40243,0.54178 0.79084,0.35309 0.75785,-0.36835c-0.03381,-0.74433 -0.03958,-0.75058 -0.2878,-0.36142m-33.8311,-0.05411c-0.00742,0.08949 -0.26471,0.2088 -0.57148,0.26499c-0.54592,0.09989 -0.55004,0.10544 -0.16493,0.25944c0.45108,0.18036 1.00689,-0.14429 0.84196,-0.49183c-0.0503,-0.10752 -0.09813,-0.12209 -0.10555,-0.0326m-9.46281,0.33089c-0.59869,0.07631 -0.67621,0.11307 -0.34305,0.16371c0.3447,0.05272 0.42304,0.14359 0.39748,0.45992l-0.03216,0.39402l0.36202,-0.28303c0.24162,-0.18938 0.42717,-0.23724 0.55911,-0.14498c0.31089,0.21643 1.35242,0.09989 1.60064,-0.17967c0.12947,-0.14637 0.45026,-0.2532 0.75867,-0.2532c1.02586,0 0.38016,-0.1103 -1.06874,-0.18244c-0.80321,-0.04023 -1.80845,-0.02844 -2.23397,0.02567m35.73521,0.02705c-0.42552,0.04786 -0.60859,0.09642 -0.4082,0.10822c0.48654,0.02914 0.78671,0.35448 0.63498,0.69023c-0.1138,0.25251 -0.10226,0.25459 0.16493,0.03191c0.36037,-0.30037 1.95688,-0.27678 2.21088,0.0333c0.12617,0.154 0.14349,0.12972 0.06762,-0.0992c-0.10885,-0.32742 0.12535,-0.55981 0.67951,-0.67427c0.31007,-0.06451 -0.05113,-0.09296 -1.97585,-0.15678c-0.33068,-0.0111 -0.94917,0.01873 -1.37386,0.06659m-72.53339,0.23863c-0.06927,0.30453 -0.37439,0.28511 -0.45191,-0.02844c-0.03216,-0.13111 0.06185,-0.22476 0.2276,-0.22476c0.17647,0 0.26059,0.09504 0.2243,0.2532m3.98469,0.10822l0,0.36142l11.42465,0l11.42465,0l0,-0.36142l0,-0.36142l-11.42465,0l-11.42465,0l0,0.36142" id="svg_5"/>
  </g>
 </g>
</svg>