<svg id="svg" version="1.1" xmlns="http://www.w3.org/2000/svg" xmlns:xlink="http://www.w3.org/1999/xlink" width="400" height="225" viewBox="0, 0, 400,225"><g id="svgg"><path id="path0" d="M101.157 56.115 C 100.540 57.044,100.417 57.417,100.417 58.344 C 100.417 59.214,100.294 59.634,99.854 60.268 C 99.439 60.868,99.277 61.382,99.235 62.235 C 99.203 62.909,99.046 63.538,98.860 63.743 C 98.533 64.105,98.461 64.546,98.648 65.035 C 98.735 65.263,100.845 65.301,110.367 65.250 C 120.110 65.198,122.297 65.241,123.958 65.513 C 125.047 65.692,126.293 65.880,126.728 65.931 C 127.789 66.057,129.675 67.653,130.016 68.714 C 130.152 69.135,130.350 69.590,130.457 69.725 C 130.753 70.099,130.703 71.044,130.333 72.057 C 130.150 72.559,130.000 73.455,130.000 74.048 C 130.000 74.872,129.877 75.294,129.479 75.833 C 129.089 76.362,128.957 76.803,128.952 77.593 C 128.947 78.339,128.796 78.888,128.432 79.479 C 128.082 80.047,127.918 80.618,127.918 81.273 C 127.917 81.953,127.764 82.458,127.396 83.001 C 127.011 83.568,126.875 84.042,126.875 84.816 C 126.875 85.576,126.722 86.125,126.318 86.814 C 125.924 87.486,125.749 88.098,125.721 88.897 C 125.694 89.680,125.544 90.215,125.237 90.631 C 124.923 91.056,124.792 91.538,124.792 92.267 C 124.792 93.072,124.674 93.441,124.259 93.934 C 123.852 94.418,123.690 94.912,123.571 96.024 C 123.468 96.985,123.282 97.628,123.024 97.913 C 122.749 98.217,122.624 98.697,122.601 99.537 C 122.579 100.351,122.426 100.961,122.118 101.458 C 121.850 101.893,121.668 102.531,121.667 103.038 C 121.667 103.530,121.448 104.319,121.147 104.913 C 120.839 105.519,120.626 106.294,120.626 106.809 C 120.625 107.289,120.534 107.920,120.423 108.212 C 120.094 109.079,120.525 109.138,127.497 109.182 C 134.462 109.225,134.583 109.208,134.583 108.196 C 134.583 108.049,134.818 107.417,135.104 106.790 C 135.407 106.129,135.625 105.270,135.625 104.741 C 135.625 104.097,135.777 103.624,136.146 103.125 C 136.557 102.567,136.667 102.171,136.667 101.238 C 136.667 100.343,136.776 99.918,137.116 99.485 C 137.428 99.089,137.604 98.489,137.692 97.529 C 137.774 96.639,137.986 95.875,138.285 95.391 C 138.594 94.891,138.750 94.309,138.750 93.658 C 138.750 93.008,138.917 92.386,139.247 91.808 C 139.562 91.257,139.783 90.463,139.851 89.644 C 139.918 88.837,140.113 88.133,140.370 87.769 C 140.634 87.395,140.813 86.726,140.872 85.893 C 140.931 85.055,141.092 84.456,141.329 84.195 C 141.530 83.973,141.820 83.102,141.973 82.260 C 142.126 81.418,142.439 80.376,142.668 79.944 C 142.959 79.395,143.052 78.920,142.978 78.367 C 142.895 77.749,143.013 77.311,143.519 76.363 C 144.014 75.436,144.167 74.884,144.167 74.025 C 144.167 73.306,144.319 72.601,144.590 72.071 C 145.282 70.714,145.226 66.655,144.496 65.284 C 144.200 64.729,143.958 63.969,143.958 63.595 C 143.958 63.222,143.859 62.917,143.738 62.917 C 143.617 62.917,143.322 62.471,143.083 61.927 C 142.631 60.900,140.197 58.333,139.675 58.333 C 139.518 58.333,139.069 58.052,138.678 57.708 C 138.249 57.332,137.734 57.083,137.382 57.083 C 137.061 57.083,136.584 56.882,136.322 56.636 C 135.964 56.300,135.445 56.149,134.225 56.027 C 133.334 55.938,132.010 55.670,131.284 55.432 C 130.000 55.012,129.571 55.000,115.930 55.000 L 101.897 55.000 101.157 56.115 M271.250 55.147 C 270.369 55.469,270.000 56.099,270.000 57.280 C 270.000 58.163,269.880 58.621,269.506 59.173 C 269.227 59.583,268.945 60.399,268.859 61.044 C 268.775 61.673,268.523 62.489,268.299 62.858 C 268.069 63.235,267.886 63.919,267.880 64.421 C 267.870 65.328,267.657 65.915,267.155 66.417 C 266.854 66.717,266.855 66.715,266.799 68.130 C 266.775 68.739,266.588 69.316,266.273 69.759 C 265.969 70.186,265.731 70.903,265.642 71.654 C 265.564 72.319,265.342 73.104,265.149 73.399 C 264.956 73.693,264.738 74.478,264.664 75.144 C 264.577 75.921,264.378 76.520,264.107 76.819 C 263.801 77.156,263.671 77.622,263.633 78.519 C 263.594 79.449,263.447 79.953,263.041 80.551 C 262.675 81.089,262.500 81.624,262.500 82.205 C 262.500 82.720,262.292 83.454,261.979 84.042 C 261.659 84.645,261.458 85.363,261.458 85.908 C 261.458 86.526,261.301 87.008,260.938 87.500 C 260.551 88.024,260.417 88.466,260.417 89.214 C 260.417 89.876,260.238 90.575,259.896 91.250 C 259.408 92.214,259.375 92.478,259.375 95.473 C 259.375 98.555,259.394 98.694,259.896 99.375 C 260.225 99.821,260.417 100.358,260.417 100.833 C 260.417 101.309,260.608 101.846,260.938 102.292 C 261.224 102.680,261.458 103.082,261.458 103.184 C 261.458 103.573,265.388 107.292,265.799 107.292 C 266.029 107.292,266.497 107.526,266.837 107.813 C 267.243 108.154,267.711 108.333,268.196 108.333 C 268.603 108.333,269.371 108.565,269.903 108.847 L 270.870 109.362 286.147 109.371 C 302.695 109.381,302.083 109.422,302.083 108.299 C 302.083 108.067,302.272 107.613,302.502 107.289 C 302.732 106.966,302.977 106.249,303.047 105.695 C 303.117 105.141,303.398 104.296,303.671 103.817 C 303.988 103.259,304.167 102.613,304.167 102.020 C 304.167 101.437,304.286 100.993,304.489 100.825 C 304.667 100.678,304.784 100.362,304.750 100.122 C 304.688 99.688,304.672 99.687,291.667 99.583 C 278.658 99.479,278.645 99.479,277.769 99.010 C 277.286 98.753,276.623 98.542,276.295 98.542 C 275.824 98.542,275.452 98.262,274.516 97.203 L 273.333 95.864 273.333 94.160 C 273.333 92.646,273.392 92.387,273.854 91.837 C 274.260 91.354,274.375 90.985,274.375 90.159 C 274.375 89.408,274.525 88.843,274.889 88.222 C 275.172 87.739,275.465 86.934,275.541 86.433 C 275.616 85.931,275.860 85.218,276.083 84.848 C 276.306 84.477,276.540 83.633,276.604 82.973 C 276.680 82.190,276.865 81.611,277.136 81.313 C 277.416 81.005,277.597 80.414,277.692 79.502 C 277.784 78.605,277.969 77.996,278.237 77.700 C 278.514 77.394,278.648 76.929,278.661 76.228 C 278.676 75.468,278.804 75.074,279.156 74.699 C 279.506 74.326,279.647 73.895,279.694 73.049 C 279.737 72.285,279.905 71.705,280.202 71.304 C 280.454 70.962,280.722 70.164,280.822 69.455 C 280.919 68.768,281.195 67.883,281.436 67.488 C 281.677 67.094,281.874 66.480,281.874 66.125 C 281.875 65.769,282.109 65.038,282.396 64.499 C 282.732 63.868,282.917 63.183,282.917 62.571 C 282.917 61.863,283.049 61.466,283.438 61.004 C 283.819 60.550,283.958 60.141,283.958 59.474 C 283.958 58.903,284.152 58.199,284.479 57.584 C 285.044 56.523,285.145 55.645,284.750 55.250 C 284.494 54.994,271.932 54.898,271.250 55.147 M124.375 67.202 C 125.075 67.358,126.620 67.385,126.530 67.240 C 126.477 67.154,125.900 67.094,125.248 67.108 C 124.596 67.121,124.203 67.163,124.375 67.202 M282.136 71.146 C 282.138 71.604,282.181 71.767,282.231 71.508 C 282.281 71.249,282.279 70.874,282.226 70.675 C 282.174 70.475,282.134 70.688,282.136 71.146 M262.136 77.396 C 262.138 77.854,262.181 78.017,262.231 77.758 C 262.281 77.499,262.279 77.124,262.226 76.925 C 262.174 76.725,262.134 76.938,262.136 77.396 M125.417 83.738 C 125.417 84.088,125.453 84.375,125.497 84.375 C 125.673 84.375,125.765 83.316,125.597 83.212 C 125.498 83.151,125.417 83.387,125.417 83.738 M142.019 86.823 C 141.958 87.138,141.994 87.485,142.099 87.594 C 142.218 87.716,142.292 87.496,142.292 87.021 C 142.292 86.109,142.176 86.025,142.019 86.823 M124.428 88.021 C 124.430 88.479,124.473 88.642,124.522 88.383 C 124.572 88.124,124.570 87.749,124.518 87.550 C 124.466 87.350,124.425 87.563,124.428 88.021 M141.090 91.250 C 141.090 91.651,141.133 91.815,141.185 91.615 C 141.238 91.414,141.238 91.086,141.185 90.885 C 141.133 90.685,141.090 90.849,141.090 91.250 M139.952 94.257 C 139.898 94.536,139.933 94.888,140.028 95.039 C 140.139 95.213,140.203 95.029,140.205 94.531 C 140.209 93.638,140.094 93.514,139.952 94.257 M138.893 98.354 C 138.830 98.594,138.860 98.992,138.959 99.239 C 139.105 99.600,139.143 99.515,139.153 98.802 C 139.168 97.837,139.071 97.670,138.893 98.354 M112.639 116.181 C 112.157 116.662,112.530 117.083,113.438 117.083 L 114.375 117.083 114.375 119.769 C 114.375 122.475,114.465 122.797,115.156 122.556 C 115.346 122.490,115.417 121.740,115.417 119.774 L 115.417 117.083 116.354 117.083 C 117.215 117.083,117.292 117.041,117.292 116.563 L 117.292 116.042 115.035 116.042 C 113.793 116.042,112.715 116.104,112.639 116.181 M118.172 119.323 C 118.220 122.075,118.280 122.604,118.542 122.604 C 118.804 122.604,118.863 122.075,118.912 119.323 C 118.967 116.135,118.957 116.042,118.542 116.042 C 118.127 116.042,118.116 116.135,118.172 119.323 M119.931 116.181 C 119.449 116.662,119.822 117.083,120.729 117.083 L 121.667 117.083 121.667 119.769 C 121.667 122.475,121.757 122.797,122.448 122.556 C 122.638 122.490,122.708 121.740,122.708 119.774 L 122.708 117.083 123.646 117.083 C 124.507 117.083,124.583 117.041,124.583 116.563 L 124.583 116.042 122.326 116.042 C 121.085 116.042,120.007 116.104,119.931 116.181 M125.945 116.395 C 124.632 119.683,123.805 122.476,124.110 122.594 C 124.530 122.755,124.832 122.460,125.123 121.605 C 125.485 120.539,127.653 120.575,128.016 121.653 C 128.297 122.486,128.832 122.918,129.168 122.582 C 129.614 122.136,127.289 116.158,126.641 116.082 C 126.269 116.039,126.047 116.139,125.945 116.395 M130.508 116.312 C 130.234 117.027,130.522 122.604,130.833 122.604 C 131.087 122.604,131.165 122.148,131.250 120.166 L 131.354 117.728 132.631 120.062 C 133.803 122.203,133.963 122.401,134.564 122.462 L 135.219 122.527 135.162 119.337 C 135.107 116.304,135.084 116.146,134.688 116.146 C 134.300 116.146,134.266 116.306,134.208 118.438 L 134.146 120.729 133.063 118.729 C 131.614 116.054,130.875 115.355,130.508 116.312 M139.105 116.173 C 139.024 116.253,138.958 117.710,138.958 119.410 L 138.958 122.500 140.729 122.500 C 142.361 122.500,142.500 122.467,142.500 122.083 C 142.500 121.709,142.361 121.667,141.146 121.667 L 139.792 121.667 139.792 120.625 L 139.792 119.583 140.938 119.583 C 141.944 119.583,142.083 119.533,142.083 119.167 C 142.083 118.801,141.944 118.750,140.938 118.750 L 139.792 118.750 139.792 117.927 L 139.792 117.103 141.094 117.041 C 142.236 116.987,142.396 116.928,142.396 116.563 C 142.396 116.135,139.488 115.790,139.105 116.173 M143.842 116.312 C 143.567 117.027,143.855 122.604,144.167 122.604 C 144.421 122.604,144.499 122.148,144.583 120.166 L 144.688 117.728 145.965 120.062 C 147.136 122.203,147.296 122.401,147.897 122.462 L 148.553 122.527 148.495 119.337 C 148.440 116.304,148.417 116.146,148.021 116.146 C 147.633 116.146,147.600 116.306,147.542 118.438 L 147.479 120.729 146.396 118.729 C 144.948 116.054,144.209 115.355,143.842 116.312 M151.254 116.407 C 148.090 117.996,149.561 123.111,153.045 122.633 C 154.706 122.405,154.818 122.269,154.748 120.561 L 154.688 119.063 153.385 119.000 C 152.192 118.944,152.083 118.974,152.083 119.365 C 152.083 119.724,152.216 119.792,152.917 119.792 L 153.750 119.792 153.750 120.630 C 153.750 122.010,152.180 122.233,151.144 121.001 C 149.543 119.098,151.414 116.242,153.650 117.176 C 154.659 117.597,154.792 117.585,154.792 117.073 C 154.792 116.162,152.572 115.744,151.254 116.407 M156.297 119.323 C 156.345 122.075,156.405 122.604,156.667 122.604 C 156.929 122.604,156.988 122.075,157.037 119.323 C 157.092 116.135,157.082 116.042,156.667 116.042 C 156.252 116.042,156.241 116.135,156.297 119.323 M158.842 116.312 C 158.567 117.027,158.855 122.604,159.167 122.604 C 159.421 122.604,159.499 122.148,159.583 120.166 L 159.688 117.728 160.965 120.062 C 162.136 122.203,162.296 122.401,162.897 122.462 L 163.553 122.527 163.495 119.337 C 163.440 116.304,163.417 116.146,163.021 116.146 C 162.633 116.146,162.600 116.306,162.542 118.438 L 162.479 120.729 161.396 118.729 C 159.948 116.054,159.209 115.355,158.842 116.312 M165.147 116.173 C 165.066 116.253,165.000 117.710,165.000 119.410 L 165.000 122.500 166.771 122.500 C 168.403 122.500,168.542 122.467,168.542 122.083 C 168.542 121.709,168.403 121.667,167.188 121.667 L 165.833 121.667 165.833 120.625 L 165.833 119.583 166.979 119.583 C 167.986 119.583,168.125 119.533,168.125 119.167 C 168.125 118.801,167.986 118.750,166.979 118.750 L 165.833 118.750 165.833 117.927 L 165.833 117.103 167.135 117.041 C 168.278 116.987,168.438 116.928,168.438 116.563 C 168.438 116.135,165.529 115.790,165.147 116.173 M170.147 116.173 C 170.066 116.253,170.000 117.710,170.000 119.410 L 170.000 122.500 171.771 122.500 C 173.403 122.500,173.542 122.467,173.542 122.083 C 173.542 121.709,173.403 121.667,172.188 121.667 L 170.833 121.667 170.833 120.625 L 170.833 119.583 171.979 119.583 C 172.986 119.583,173.125 119.533,173.125 119.167 C 173.125 118.801,172.986 118.750,171.979 118.750 L 170.833 118.750 170.833 117.927 L 170.833 117.103 172.135 117.041 C 173.278 116.987,173.438 116.928,173.438 116.563 C 173.438 116.135,170.529 115.790,170.147 116.173 M174.894 116.283 C 174.612 117.019,174.889 122.604,175.208 122.604 C 175.449 122.604,175.535 122.282,175.582 121.198 C 175.676 119.063,176.750 119.222,177.599 121.497 C 177.969 122.489,178.445 122.888,178.817 122.516 C 179.029 122.304,178.552 120.746,178.006 119.867 C 177.765 119.479,177.781 119.373,178.135 119.053 C 178.764 118.485,178.700 116.988,178.028 116.548 C 177.307 116.076,175.047 115.885,174.894 116.283 M180.047 119.323 C 180.095 122.075,180.155 122.604,180.417 122.604 C 180.679 122.604,180.738 122.075,180.787 119.323 C 180.842 116.135,180.832 116.042,180.417 116.042 C 180.002 116.042,179.991 116.135,180.047 119.323 M182.592 116.312 C 182.317 117.027,182.605 122.604,182.917 122.604 C 183.171 122.604,183.249 122.148,183.333 120.166 L 183.438 117.728 184.715 120.062 C 185.886 122.203,186.046 122.401,186.647 122.462 L 187.303 122.527 187.245 119.337 C 187.190 116.304,187.167 116.146,186.771 116.146 C 186.383 116.146,186.350 116.306,186.292 118.438 L 186.229 120.729 185.146 118.729 C 183.698 116.054,182.959 115.355,182.592 116.312 M190.212 116.407 C 187.049 117.996,188.520 123.111,192.003 122.633 C 193.664 122.405,193.776 122.269,193.707 120.561 L 193.646 119.063 192.344 119.000 C 191.150 118.944,191.042 118.974,191.042 119.365 C 191.042 119.724,191.174 119.792,191.875 119.792 L 192.708 119.792 192.708 120.630 C 192.708 122.010,191.139 122.233,190.102 121.001 C 188.501 119.098,190.373 116.242,192.608 117.176 C 193.617 117.597,193.750 117.585,193.750 117.073 C 193.750 116.162,191.530 115.744,190.212 116.407 M198.653 116.395 C 197.340 119.683,196.513 122.476,196.819 122.594 C 197.239 122.755,197.541 122.460,197.831 121.605 C 198.193 120.539,200.361 120.575,200.724 121.653 C 201.005 122.486,201.540 122.918,201.877 122.582 C 202.322 122.136,199.998 116.158,199.350 116.082 C 198.977 116.039,198.755 116.139,198.653 116.395 M203.008 116.312 C 202.734 117.027,203.022 122.604,203.333 122.604 C 203.587 122.604,203.665 122.148,203.750 120.166 L 203.854 117.728 205.131 120.062 C 206.303 122.203,206.463 122.401,207.064 122.462 L 207.719 122.527 207.662 119.337 C 207.607 116.304,207.584 116.146,207.188 116.146 C 206.800 116.146,206.766 116.306,206.708 118.438 L 206.646 120.729 205.563 118.729 C 204.114 116.054,203.375 115.355,203.008 116.312 M209.531 116.158 C 209.445 116.247,209.375 117.720,209.375 119.432 L 209.375 122.544 211.039 122.469 C 213.740 122.346,215.119 119.945,213.872 117.535 C 213.346 116.517,210.161 115.507,209.531 116.158 M219.070 116.395 C 217.757 119.683,216.930 122.476,217.235 122.594 C 217.655 122.755,217.957 122.460,218.248 121.605 C 218.610 120.539,220.778 120.575,221.141 121.653 C 221.422 122.486,221.957 122.918,222.293 122.582 C 222.739 122.136,220.414 116.158,219.766 116.082 C 219.394 116.039,219.172 116.139,219.070 116.395 M223.125 118.660 C 223.125 121.500,223.241 121.917,224.162 122.394 C 225.572 123.123,227.302 122.494,227.710 121.104 C 228.123 119.696,227.898 116.146,227.396 116.146 C 227.008 116.146,226.972 116.319,226.875 118.613 C 226.758 121.383,226.404 122.059,225.222 121.770 C 224.184 121.516,224.068 121.209,223.993 118.535 C 223.929 116.241,223.892 116.042,223.524 116.042 C 223.152 116.042,223.125 116.219,223.125 118.660 M228.889 116.181 C 228.407 116.662,228.780 117.083,229.688 117.083 L 230.625 117.083 230.625 119.769 C 230.625 122.475,230.715 122.797,231.406 122.556 C 231.596 122.490,231.667 121.740,231.667 119.774 L 231.667 117.083 232.604 117.083 C 233.465 117.083,233.542 117.041,233.542 116.563 L 233.542 116.042 231.285 116.042 C 230.043 116.042,228.965 116.104,228.889 116.181 M234.831 116.464 C 232.544 117.858,233.309 122.361,235.883 122.651 C 238.470 122.942,240.036 120.192,238.871 117.403 C 238.320 116.086,236.243 115.603,234.831 116.464 M240.508 116.312 C 240.234 117.027,240.522 122.604,240.833 122.604 C 241.089 122.604,241.165 122.134,241.250 120.038 L 241.354 117.473 242.292 119.983 C 243.615 123.526,243.828 123.524,245.227 119.950 L 246.146 117.604 246.204 120.032 C 246.263 122.471,246.415 122.913,247.056 122.517 C 247.595 122.184,247.269 116.157,246.707 116.078 C 245.978 115.974,245.738 116.293,244.768 118.655 C 244.276 119.853,243.807 120.762,243.725 120.677 C 243.642 120.591,243.226 119.630,242.800 118.542 C 242.374 117.453,241.879 116.445,241.702 116.302 C 241.282 115.963,240.640 115.968,240.508 116.312 M250.320 116.395 C 249.007 119.683,248.180 122.476,248.485 122.594 C 248.905 122.755,249.207 122.460,249.498 121.605 C 249.860 120.539,252.028 120.575,252.391 121.653 C 252.672 122.486,253.207 122.918,253.543 122.582 C 253.989 122.136,251.664 116.158,251.016 116.082 C 250.644 116.039,250.422 116.139,250.320 116.395 M253.056 116.181 C 252.574 116.662,252.947 117.083,253.854 117.083 L 254.792 117.083 254.792 119.769 C 254.792 122.475,254.882 122.797,255.573 122.556 C 255.763 122.490,255.833 121.740,255.833 119.774 L 255.833 117.083 256.771 117.083 C 257.632 117.083,257.708 117.041,257.708 116.563 L 257.708 116.042 255.451 116.042 C 254.210 116.042,253.132 116.104,253.056 116.181 M258.588 119.323 C 258.637 122.075,258.696 122.604,258.958 122.604 C 259.220 122.604,259.280 122.075,259.328 119.323 C 259.384 116.135,259.373 116.042,258.958 116.042 C 258.543 116.042,258.533 116.135,258.588 119.323 M261.915 116.464 C 259.627 117.858,260.393 122.361,262.967 122.651 C 265.554 122.942,267.119 120.192,265.954 117.403 C 265.403 116.086,263.327 115.603,261.915 116.464 M267.800 116.312 C 267.525 117.027,267.814 122.604,268.125 122.604 C 268.379 122.604,268.457 122.148,268.542 120.166 L 268.646 117.728 269.923 120.062 C 271.094 122.203,271.254 122.401,271.856 122.462 L 272.511 122.527 272.453 119.337 C 272.399 116.304,272.375 116.146,271.979 116.146 C 271.592 116.146,271.558 116.306,271.500 118.438 L 271.438 120.729 270.354 118.729 C 268.906 116.054,268.167 115.355,267.800 116.312 M276.250 119.271 L 276.250 122.500 277.917 122.500 C 279.444 122.500,279.583 122.465,279.583 122.083 C 279.583 121.713,279.444 121.667,278.333 121.667 L 277.083 121.667 277.083 118.854 C 277.083 116.181,277.063 116.042,276.667 116.042 C 276.268 116.042,276.250 116.181,276.250 119.271 M280.463 119.323 C 280.512 122.075,280.571 122.604,280.833 122.604 C 281.095 122.604,281.155 122.075,281.203 119.323 C 281.259 116.135,281.248 116.042,280.833 116.042 C 280.418 116.042,280.408 116.135,280.463 119.323 M283.008 116.312 C 282.734 117.027,283.022 122.604,283.333 122.604 C 283.589 122.604,283.665 122.134,283.750 120.038 L 283.854 117.473 284.792 119.983 C 286.115 123.526,286.328 123.524,287.727 119.950 L 288.646 117.604 288.704 120.032 C 288.763 122.471,288.915 122.913,289.556 122.517 C 290.095 122.184,289.769 116.157,289.207 116.078 C 288.478 115.974,288.238 116.293,287.268 118.655 C 286.776 119.853,286.307 120.762,286.225 120.677 C 286.142 120.591,285.726 119.630,285.300 118.542 C 284.874 117.453,284.379 116.445,284.202 116.302 C 283.782 115.963,283.140 115.968,283.008 116.312 M291.297 119.323 C 291.345 122.075,291.405 122.604,291.667 122.604 C 291.929 122.604,291.988 122.075,292.037 119.323 C 292.092 116.135,292.082 116.042,291.667 116.042 C 291.252 116.042,291.241 116.135,291.297 119.323 M293.056 116.181 C 292.574 116.662,292.947 117.083,293.854 117.083 L 294.792 117.083 294.792 119.769 C 294.792 122.475,294.882 122.797,295.573 122.556 C 295.763 122.490,295.833 121.740,295.833 119.774 L 295.833 117.083 296.771 117.083 C 297.632 117.083,297.708 117.041,297.708 116.563 L 297.708 116.042 295.451 116.042 C 294.210 116.042,293.132 116.104,293.056 116.181 M298.689 116.173 C 298.608 116.253,298.542 117.710,298.542 119.410 L 298.542 122.500 300.313 122.500 C 301.944 122.500,302.083 122.467,302.083 122.083 C 302.083 121.709,301.944 121.667,300.729 121.667 L 299.375 121.667 299.375 120.625 L 299.375 119.583 300.521 119.583 C 301.528 119.583,301.667 119.533,301.667 119.167 C 301.667 118.801,301.528 118.750,300.521 118.750 L 299.375 118.750 299.375 117.927 L 299.375 117.103 300.677 117.041 C 301.820 116.987,301.979 116.928,301.979 116.563 C 301.979 116.135,299.071 115.790,298.689 116.173 M303.490 116.158 C 303.404 116.247,303.333 117.720,303.333 119.432 L 303.333 122.544 304.997 122.469 C 307.698 122.346,309.077 119.945,307.831 117.535 C 307.304 116.517,304.120 115.507,303.490 116.158 M237.155 117.106 C 238.940 117.920,238.298 121.750,236.377 121.750 C 235.124 121.750,234.688 121.130,234.688 119.351 C 234.688 117.307,235.658 116.424,237.155 117.106 M264.238 117.106 C 266.023 117.920,265.381 121.750,263.460 121.750 C 262.208 121.750,261.771 121.130,261.771 119.351 C 261.771 117.307,262.741 116.424,264.238 117.106 M177.466 117.802 C 177.548 118.528,177.081 118.958,176.210 118.958 C 175.654 118.958,175.625 118.911,175.625 118.009 L 175.625 117.059 176.510 117.123 C 177.319 117.182,177.402 117.241,177.466 117.802 M212.178 117.213 C 214.079 117.942,213.176 121.644,211.094 121.660 L 210.208 121.667 210.208 119.375 L 210.208 117.083 211.025 117.083 C 211.474 117.083,211.993 117.142,212.178 117.213 M306.136 117.213 C 308.037 117.942,307.135 121.644,305.052 121.660 L 304.167 121.667 304.167 119.375 L 304.167 117.083 304.983 117.083 C 305.432 117.083,305.951 117.142,306.136 117.213 M127.379 119.740 C 127.519 120.180,127.469 120.208,126.554 120.208 C 125.861 120.208,125.609 120.133,125.680 119.948 C 125.735 119.805,125.952 119.140,126.163 118.471 L 126.546 117.255 126.888 118.263 C 127.077 118.817,127.298 119.482,127.379 119.740 M200.088 119.740 C 200.227 120.180,200.178 120.208,199.263 120.208 C 198.569 120.208,198.317 120.133,198.388 119.948 C 198.443 119.805,198.660 119.140,198.871 118.471 L 199.254 117.255 199.597 118.263 C 199.785 118.817,200.006 119.482,200.088 119.740 M220.504 119.740 C 220.644 120.180,220.594 120.208,219.679 120.208 C 218.986 120.208,218.734 120.133,218.805 119.948 C 218.860 119.805,219.077 119.140,219.288 118.471 L 219.671 117.255 220.013 118.263 C 220.202 118.817,220.423 119.482,220.504 119.740 M251.754 119.740 C 251.894 120.180,251.844 120.208,250.929 120.208 C 250.236 120.208,249.984 120.133,250.055 119.948 C 250.110 119.805,250.327 119.140,250.538 118.471 L 250.921 117.255 251.263 118.263 C 251.452 118.817,251.673 119.482,251.754 119.740 " stroke="none" fill="#7c7c7c" fill-rule="evenodd"></path><path id="path1" d="M156.513 54.980 C 156.651 55.508,155.027 57.292,154.408 57.292 C 153.867 57.292,153.775 58.130,154.271 58.542 C 154.963 59.116,154.145 61.195,153.329 60.936 C 152.955 60.818,152.917 60.904,152.917 61.854 C 152.917 62.668,152.982 62.878,153.208 62.792 C 153.703 62.602,153.780 63.068,153.391 63.896 C 153.113 64.489,152.877 64.704,152.448 64.753 C 151.687 64.841,151.537 66.875,152.292 66.875 C 152.828 66.875,152.819 67.288,152.262 68.232 C 151.895 68.854,151.728 68.967,151.325 68.865 C 150.890 68.756,150.833 68.814,150.833 69.371 C 150.833 69.797,150.936 70.000,151.152 70.000 C 151.681 70.000,151.721 70.535,151.260 71.438 C 150.927 72.091,150.703 72.292,150.308 72.292 C 149.716 72.292,149.577 73.488,150.022 74.764 C 150.297 75.554,149.838 76.458,149.162 76.458 C 148.670 76.458,148.564 78.041,149.008 78.752 C 149.218 79.088,149.199 79.352,148.904 80.183 C 148.704 80.743,148.542 81.396,148.542 81.633 C 148.542 82.617,147.682 83.958,147.051 83.958 C 146.614 83.958,146.513 85.196,146.854 86.384 C 147.101 87.246,146.714 88.040,146.081 87.971 C 145.545 87.913,145.415 88.941,145.906 89.349 C 146.643 89.960,145.714 92.412,144.831 92.190 C 144.345 92.068,144.326 92.096,144.467 92.749 C 144.896 94.735,144.878 94.969,144.282 95.241 C 143.819 95.452,143.687 95.445,143.530 95.196 C 143.411 95.009,143.339 96.411,143.337 98.920 C 143.334 102.658,143.359 102.937,143.698 102.831 C 144.401 102.612,145.000 103.520,145.000 104.805 C 145.000 105.197,145.107 105.417,145.299 105.417 C 145.470 105.417,145.626 105.662,145.663 105.990 C 145.710 106.400,145.862 106.581,146.198 106.629 C 146.641 106.692,146.754 106.875,146.688 107.425 C 146.641 107.810,148.072 107.879,148.448 107.510 C 148.851 107.113,149.399 107.675,149.232 108.315 C 149.061 108.969,150.187 109.041,150.434 108.393 L 150.629 107.879 151.318 108.471 C 151.747 108.840,151.973 109.200,151.916 109.427 C 151.835 109.756,152.031 109.792,153.934 109.792 L 156.042 109.792 156.042 109.271 L 156.042 108.750 169.896 108.750 L 183.750 108.750 183.750 109.271 C 183.750 109.764,183.811 109.792,184.911 109.792 C 185.907 109.792,186.061 109.740,185.996 109.427 C 185.946 109.188,186.134 108.955,186.539 108.750 C 187.055 108.490,187.205 108.231,187.438 107.199 C 187.591 106.518,187.903 105.787,188.129 105.576 C 188.431 105.295,188.542 104.920,188.542 104.181 C 188.542 103.136,188.725 102.917,189.600 102.917 C 189.928 102.917,190.000 102.766,190.000 102.083 C 190.000 101.389,189.931 101.250,189.583 101.250 C 189.354 101.250,189.167 101.150,189.167 101.028 C 189.167 100.900,189.344 100.862,189.583 100.937 C 189.958 101.057,190.000 100.975,190.000 100.118 L 190.000 99.167 185.819 99.167 C 181.757 99.167,181.642 99.178,181.769 99.576 C 181.921 100.057,181.326 100.281,180.185 100.172 C 179.637 100.119,179.464 99.999,179.413 99.635 C 179.354 99.222,179.225 99.167,178.321 99.167 C 177.383 99.167,177.301 99.206,177.346 99.635 C 177.386 100.007,177.277 100.118,176.823 100.170 C 176.330 100.227,176.250 100.162,176.250 99.701 C 176.250 98.930,174.238 98.868,174.129 99.635 C 174.065 100.085,173.968 100.107,171.771 100.165 C 168.983 100.238,168.469 100.142,168.648 99.576 C 168.774 99.181,168.665 99.167,165.528 99.167 C 162.353 99.167,162.274 99.156,162.090 98.698 C 161.909 98.249,161.901 98.254,161.888 98.809 C 161.872 99.514,161.301 99.804,160.929 99.295 C 160.786 99.099,160.717 98.756,160.776 98.532 C 160.839 98.288,160.777 98.125,160.620 98.125 C 160.476 98.125,160.234 97.961,160.082 97.760 C 159.831 97.430,159.804 97.450,159.798 97.984 C 159.788 98.922,159.133 98.616,158.817 97.526 C 158.672 97.026,158.397 96.503,158.206 96.363 C 157.209 95.634,157.776 92.083,158.889 92.083 C 159.431 92.083,159.434 92.076,159.304 90.833 L 159.173 89.583 159.822 89.583 L 160.470 89.583 160.332 88.542 C 160.206 87.588,160.230 87.500,160.618 87.500 C 160.921 87.500,161.042 87.364,161.042 87.021 C 161.042 86.032,160.937 86.042,171.722 86.042 C 178.686 86.042,182.037 85.970,182.328 85.814 C 182.635 85.649,182.816 85.649,182.981 85.814 C 183.700 86.534,187.292 85.947,187.292 85.109 C 187.292 84.413,187.967 83.748,188.526 83.894 C 189.117 84.048,189.127 82.885,188.542 82.140 C 187.886 81.307,188.268 80.625,189.390 80.625 C 190.207 80.625,190.334 79.260,189.531 79.105 L 189.063 79.015 189.531 78.987 C 189.935 78.962,190.000 78.842,190.000 78.125 L 190.000 77.292 176.915 77.292 C 162.155 77.292,162.917 77.374,163.246 75.810 C 163.410 75.025,163.518 74.887,164.010 74.830 C 164.706 74.750,164.910 72.495,164.255 72.129 C 163.822 71.886,164.057 70.526,164.632 69.951 C 164.915 69.668,165.006 69.372,164.927 68.990 C 164.774 68.241,165.360 66.730,165.854 66.601 C 166.089 66.539,166.250 66.314,166.250 66.047 C 166.250 64.693,164.949 64.792,182.789 64.792 C 200.223 64.792,200.208 64.793,200.208 63.730 C 200.208 63.053,200.923 62.202,201.353 62.367 C 201.708 62.503,201.875 62.066,201.875 61.004 C 201.875 59.537,202.657 58.366,203.245 58.953 C 203.609 59.318,204.641 58.886,204.726 58.333 C 204.768 58.056,204.891 57.776,205.000 57.708 C 205.108 57.641,205.260 56.911,205.337 56.085 L 205.476 54.583 204.211 54.583 C 203.057 54.583,202.940 54.625,202.879 55.052 L 202.813 55.521 180.521 55.521 L 158.229 55.521 158.279 55.052 C 158.324 54.627,158.240 54.583,157.369 54.583 C 156.529 54.583,156.423 54.633,156.513 54.980 M222.476 55.835 C 222.291 55.943,220.962 56.169,219.522 56.337 C 217.906 56.526,216.599 56.796,216.108 57.042 C 215.671 57.261,214.997 57.500,214.611 57.574 C 213.850 57.719,212.298 58.597,211.589 59.283 C 211.345 59.519,210.771 59.981,210.313 60.309 C 209.446 60.931,208.349 62.067,208.339 62.352 C 208.336 62.443,207.958 62.873,207.500 63.309 C 207.042 63.745,206.667 64.273,206.667 64.483 C 206.667 64.692,206.542 65.011,206.391 65.192 C 205.943 65.725,204.794 68.875,204.657 69.947 C 204.587 70.492,204.343 71.249,204.114 71.629 C 203.818 72.121,203.690 72.730,203.670 73.750 C 203.646 74.946,203.560 75.266,203.145 75.708 C 202.796 76.079,202.617 76.564,202.544 77.337 C 202.486 77.942,202.326 78.625,202.188 78.854 C 201.860 79.397,201.354 81.631,201.520 81.798 C 201.591 81.869,201.449 82.313,201.204 82.786 C 200.960 83.259,200.688 84.154,200.601 84.775 C 200.511 85.416,200.237 86.181,199.966 86.546 C 199.604 87.033,199.470 87.538,199.409 88.646 C 199.365 89.448,199.245 90.208,199.142 90.335 C 198.842 90.708,198.338 92.547,198.336 93.281 C 198.334 93.808,198.245 93.958,197.935 93.958 C 197.475 93.958,197.253 94.882,197.319 96.513 C 197.351 97.293,197.258 97.613,196.886 98.009 C 196.523 98.396,196.387 98.843,196.301 99.934 C 196.211 101.069,196.091 101.446,195.699 101.813 C 195.287 102.199,195.208 102.476,195.208 103.554 C 195.208 104.612,195.119 104.942,194.696 105.445 C 194.131 106.116,193.890 107.043,193.994 108.139 L 194.063 108.854 195.313 108.755 C 196.827 108.634,197.466 108.644,201.900 108.855 C 207.239 109.110,208.333 108.387,208.333 104.608 C 208.333 104.282,208.528 103.767,208.766 103.465 C 209.006 103.160,209.278 102.381,209.376 101.718 C 209.474 101.059,209.748 100.149,209.985 99.696 C 210.273 99.144,210.417 98.479,210.417 97.692 C 210.417 96.796,210.526 96.376,210.873 95.935 C 211.218 95.496,211.357 94.963,211.447 93.739 C 211.535 92.543,211.673 92.005,211.975 91.671 C 212.247 91.371,212.399 90.874,212.427 90.198 C 212.451 89.637,212.610 88.918,212.781 88.599 C 213.345 87.548,213.708 86.357,213.708 85.556 C 213.708 85.096,213.861 84.598,214.073 84.364 C 214.329 84.081,214.468 83.480,214.541 82.347 C 214.616 81.175,214.760 80.578,215.064 80.166 C 215.295 79.853,215.556 79.070,215.643 78.426 C 215.731 77.782,215.959 77.081,216.151 76.869 C 216.355 76.644,216.606 75.765,216.756 74.752 C 216.897 73.800,217.122 72.816,217.256 72.566 C 217.390 72.315,217.500 71.912,217.500 71.670 C 217.500 71.080,218.091 69.964,218.589 69.612 C 218.868 69.415,218.955 69.181,218.871 68.849 C 218.746 68.349,219.718 67.292,220.303 67.292 C 220.452 67.292,220.686 67.157,220.822 66.993 C 220.959 66.828,221.369 66.630,221.733 66.553 C 222.098 66.476,222.596 66.229,222.842 66.004 C 223.103 65.765,223.766 65.530,224.443 65.438 C 225.078 65.352,225.725 65.177,225.880 65.048 C 226.411 64.607,245.369 64.622,246.195 65.064 C 247.274 65.640,247.394 67.442,246.423 68.475 C 246.079 68.842,245.963 69.199,245.987 69.816 C 246.006 70.279,245.801 71.283,245.532 72.048 C 245.263 72.812,244.999 73.876,244.945 74.412 C 244.889 74.963,244.654 75.630,244.402 75.950 C 244.144 76.278,243.958 76.815,243.958 77.233 C 243.958 77.628,243.682 78.642,243.344 79.486 C 242.966 80.429,242.743 81.347,242.763 81.868 C 242.791 82.570,242.681 82.832,242.124 83.389 L 241.451 84.063 231.090 84.173 C 225.392 84.234,220.706 84.305,220.677 84.330 C 220.648 84.355,220.625 84.883,220.625 85.505 C 220.625 86.406,220.520 86.760,220.104 87.254 C 219.667 87.773,219.583 88.087,219.583 89.210 C 219.583 90.120,219.450 90.822,219.167 91.409 C 218.369 93.060,217.873 92.985,229.205 92.929 L 238.931 92.880 239.178 93.705 C 239.393 94.422,239.366 94.686,238.978 95.724 C 238.675 96.534,238.573 97.144,238.662 97.616 C 238.771 98.200,238.700 98.399,238.224 98.841 C 237.771 99.261,237.624 99.633,237.501 100.673 C 237.416 101.392,237.147 102.351,236.903 102.804 C 236.596 103.374,236.458 104.002,236.458 104.828 C 236.458 105.762,236.366 106.112,236.036 106.419 C 234.364 107.976,235.135 109.056,237.784 108.868 C 238.945 108.785,240.318 108.724,240.833 108.732 C 241.349 108.740,243.171 108.750,244.882 108.755 L 247.994 108.764 248.453 108.188 C 248.961 107.551,249.583 105.775,249.583 104.961 C 249.583 104.673,249.818 103.996,250.104 103.458 C 250.391 102.919,250.625 102.165,250.625 101.784 C 250.625 101.402,250.850 100.399,251.125 99.555 C 251.399 98.711,251.677 97.658,251.741 97.214 C 251.805 96.770,251.996 96.253,252.166 96.065 C 252.336 95.878,252.568 95.147,252.681 94.442 C 252.795 93.737,253.038 92.870,253.221 92.517 C 253.404 92.163,253.634 91.233,253.732 90.451 C 253.830 89.669,254.009 88.849,254.130 88.629 C 254.507 87.941,255.000 86.203,255.000 85.560 C 255.000 85.222,255.202 84.618,255.450 84.217 C 255.739 83.750,255.888 83.193,255.867 82.659 C 255.843 82.047,255.971 81.668,256.355 81.211 C 256.649 80.862,256.875 80.329,256.875 79.987 C 256.875 79.654,257.156 78.535,257.500 77.500 C 257.844 76.465,258.127 75.362,258.128 75.049 C 258.130 74.736,258.557 73.260,259.076 71.771 C 259.596 70.281,260.105 68.512,260.207 67.839 C 260.320 67.094,260.560 66.437,260.821 66.159 C 261.123 65.838,261.250 65.424,261.250 64.766 C 261.250 64.250,261.484 63.231,261.771 62.500 C 262.057 61.769,262.292 60.795,262.292 60.336 C 262.292 59.780,262.470 59.245,262.826 58.731 C 263.523 57.724,263.487 56.284,262.755 55.920 C 262.149 55.620,222.988 55.537,222.476 55.835 M159.544 87.695 C 159.596 87.852,159.518 87.930,159.362 87.878 C 159.212 87.827,159.048 87.663,158.997 87.513 C 158.945 87.357,159.023 87.279,159.180 87.331 C 159.330 87.381,159.494 87.545,159.544 87.695 " stroke="none" fill="#04b3c3" fill-rule="evenodd"></path><path id="path2" d="M219.733 55.065 C 219.856 55.708,219.393 56.054,218.295 56.139 C 216.708 56.262,215.639 56.503,215.400 56.791 C 215.271 56.946,214.824 57.134,214.406 57.208 C 213.988 57.283,213.501 57.470,213.324 57.625 C 212.748 58.125,211.015 58.967,210.816 58.843 C 210.364 58.564,209.754 58.987,209.881 59.492 C 209.975 59.869,209.882 60.068,209.490 60.324 C 207.612 61.555,204.373 67.381,204.347 69.575 C 204.339 70.231,204.174 70.760,203.807 71.302 C 203.378 71.934,203.271 72.359,203.242 73.536 C 203.214 74.723,203.122 75.080,202.743 75.483 C 202.433 75.814,202.239 76.349,202.157 77.103 C 202.089 77.722,201.908 78.431,201.755 78.677 C 201.602 78.923,201.360 79.755,201.218 80.526 C 200.935 82.061,200.587 82.582,199.974 82.387 C 199.486 82.233,199.473 83.343,199.955 84.106 C 200.320 84.685,200.126 85.670,199.451 86.663 C 199.071 87.222,198.958 87.669,198.958 88.610 C 198.958 89.477,198.843 89.993,198.562 90.389 C 198.343 90.695,198.096 91.413,198.012 91.983 C 197.922 92.587,197.653 93.267,197.367 93.610 C 196.949 94.110,196.875 94.427,196.875 95.717 C 196.875 96.939,196.790 97.343,196.442 97.785 C 196.192 98.104,195.935 98.861,195.833 99.583 C 195.731 100.305,195.475 101.063,195.224 101.381 C 194.888 101.808,194.792 102.230,194.792 103.271 C 194.792 104.356,194.698 104.737,194.297 105.274 C 193.216 106.725,193.508 109.548,194.708 109.247 C 195.060 109.159,195.363 109.242,195.658 109.507 C 196.081 109.888,196.088 109.887,196.012 109.479 C 195.949 109.144,195.741 109.050,194.946 108.999 L 193.958 108.936 193.958 107.571 C 193.958 106.419,194.040 106.109,194.479 105.587 C 194.915 105.069,195.000 104.752,195.000 103.646 C 195.000 102.561,195.088 102.218,195.493 101.735 C 195.845 101.314,196.013 100.802,196.083 99.941 C 196.150 99.123,196.336 98.527,196.665 98.083 C 197.060 97.549,197.153 97.148,197.172 95.914 C 197.192 94.654,197.274 94.317,197.660 93.905 C 197.916 93.633,198.125 93.240,198.125 93.032 C 198.125 92.432,198.587 90.969,198.890 90.609 C 199.051 90.418,199.168 89.762,199.170 89.046 C 199.173 88.056,199.296 87.607,199.792 86.771 C 200.274 85.957,200.410 85.477,200.413 84.578 C 200.416 83.687,200.511 83.345,200.833 83.069 C 201.227 82.732,201.349 82.341,201.261 81.699 C 201.219 81.391,201.800 79.513,202.138 78.862 C 202.254 78.638,202.372 78.000,202.398 77.446 C 202.433 76.717,202.584 76.292,202.940 75.913 C 203.343 75.484,203.455 75.085,203.554 73.741 C 203.640 72.574,203.785 71.974,204.051 71.679 C 204.287 71.419,204.479 70.764,204.566 69.924 C 204.642 69.188,204.806 68.458,204.929 68.303 C 205.053 68.148,205.271 67.646,205.415 67.188 C 206.207 64.657,208.080 61.850,209.977 60.349 C 210.286 60.105,210.420 59.826,210.352 59.568 C 210.233 59.113,210.422 59.047,210.790 59.415 C 210.983 59.608,211.171 59.538,211.625 59.103 C 211.947 58.794,212.304 58.542,212.419 58.542 C 212.534 58.542,212.945 58.307,213.333 58.021 C 213.722 57.734,214.288 57.500,214.593 57.500 C 214.897 57.500,215.587 57.266,216.126 56.979 C 216.708 56.669,217.460 56.455,217.980 56.451 C 221.034 56.424,223.401 55.149,221.211 54.711 C 219.958 54.460,219.633 54.538,219.733 55.065 M263.585 56.262 C 263.548 57.797,263.469 58.142,263.021 58.750 C 262.660 59.239,262.500 59.725,262.500 60.332 C 262.500 60.829,262.275 61.692,261.981 62.323 C 261.667 62.999,261.462 63.815,261.460 64.398 C 261.459 65.088,261.305 65.585,260.914 66.161 C 260.537 66.715,260.373 67.224,260.383 67.805 C 260.391 68.267,260.215 68.998,259.993 69.429 C 259.770 69.860,259.453 70.861,259.287 71.654 C 259.122 72.447,258.839 73.322,258.658 73.599 C 258.477 73.875,258.288 74.626,258.239 75.268 C 258.190 75.910,257.997 76.669,257.810 76.953 C 257.624 77.238,257.336 78.246,257.171 79.193 C 256.977 80.305,256.723 81.073,256.456 81.357 C 256.161 81.670,256.042 82.086,256.042 82.796 C 256.042 83.557,255.918 83.941,255.521 84.413 C 255.123 84.886,255.000 85.269,255.000 86.037 C 255.000 86.671,254.808 87.454,254.481 88.156 C 254.118 88.937,253.962 89.632,253.960 90.477 C 253.959 91.388,253.847 91.834,253.504 92.299 C 253.225 92.676,252.992 93.393,252.903 94.154 C 252.812 94.922,252.589 95.607,252.316 95.954 C 252.051 96.291,251.875 96.816,251.875 97.271 C 251.875 97.687,251.681 98.389,251.444 98.831 C 251.180 99.323,250.968 100.212,250.896 101.120 C 250.809 102.232,250.655 102.771,250.286 103.267 C 249.953 103.714,249.792 104.211,249.792 104.789 C 249.792 105.261,249.602 106.064,249.370 106.573 C 248.644 108.168,248.549 108.524,248.677 109.167 C 248.842 109.993,249.121 109.975,249.000 109.146 C 248.939 108.733,249.075 108.160,249.378 107.553 C 249.639 107.031,249.912 106.026,249.985 105.320 C 250.074 104.461,250.271 103.840,250.580 103.448 C 250.899 103.042,251.042 102.575,251.042 101.937 C 251.042 101.430,251.156 100.810,251.296 100.559 C 251.653 99.921,252.063 98.352,252.074 97.580 C 252.079 97.223,252.278 96.684,252.516 96.381 C 252.778 96.048,253.025 95.290,253.143 94.456 C 253.257 93.649,253.509 92.863,253.752 92.554 C 254.050 92.175,254.167 91.710,254.167 90.897 C 254.167 90.126,254.331 89.419,254.683 88.674 C 254.988 88.030,255.229 87.096,255.271 86.393 C 255.320 85.568,255.486 85.008,255.812 84.568 C 256.124 84.145,256.295 83.594,256.323 82.915 C 256.353 82.200,256.500 81.753,256.815 81.417 C 257.106 81.106,257.313 80.534,257.403 79.792 C 257.480 79.161,257.767 78.067,258.042 77.360 C 258.317 76.653,258.542 75.713,258.542 75.271 C 258.542 74.829,258.687 74.260,258.865 74.007 C 259.042 73.753,259.313 72.959,259.467 72.241 C 259.621 71.524,259.944 70.484,260.186 69.931 C 260.427 69.377,260.625 68.528,260.625 68.044 C 260.625 67.433,260.784 66.949,261.146 66.458 C 261.506 65.970,261.667 65.483,261.667 64.881 C 261.667 64.402,261.901 63.480,262.188 62.832 C 262.498 62.130,262.708 61.266,262.708 60.691 C 262.708 59.980,262.847 59.545,263.237 59.034 C 263.730 58.387,263.761 58.210,263.697 56.410 L 263.628 54.479 263.585 56.262 M154.237 56.160 C 154.168 56.339,154.211 56.586,154.333 56.708 C 154.657 57.032,155.208 56.748,155.208 56.257 C 155.208 55.743,154.427 55.665,154.237 56.160 M153.542 58.935 C 152.629 59.187,152.663 60.467,153.579 60.379 C 154.214 60.318,154.276 60.248,154.335 59.531 C 154.403 58.715,154.386 58.702,153.542 58.935 M202.294 59.788 C 202.017 60.305,202.095 61.789,202.396 61.731 C 202.510 61.709,202.665 61.475,202.740 61.210 C 202.814 60.946,202.884 60.811,202.896 60.911 C 202.907 61.011,203.042 60.988,203.196 60.861 C 203.350 60.733,203.545 60.698,203.630 60.783 C 203.715 60.868,203.753 60.609,203.715 60.208 C 203.629 59.305,202.699 59.030,202.294 59.788 M152.500 63.186 C 151.871 63.505,151.771 64.433,152.354 64.546 C 152.904 64.651,153.333 64.200,153.333 63.516 C 153.333 62.845,153.244 62.810,152.500 63.186 M200.695 63.243 C 200.510 63.725,200.919 64.044,201.235 63.664 C 201.502 63.342,201.381 62.917,201.023 62.917 C 200.911 62.917,200.764 63.064,200.695 63.243 M183.392 64.740 C 165.156 64.799,165.926 64.747,166.369 65.901 C 166.439 66.084,166.186 66.509,165.743 66.951 C 165.335 67.360,165.000 67.827,165.000 67.988 C 165.000 68.383,165.557 68.849,165.660 68.541 C 165.701 68.417,165.938 68.300,166.187 68.281 C 166.435 68.262,166.633 68.196,166.628 68.134 C 166.622 68.072,166.628 67.622,166.642 67.135 L 166.667 66.250 183.430 66.250 C 200.084 66.250,200.195 66.247,200.421 65.825 C 200.646 65.404,200.519 64.537,200.246 64.634 C 200.168 64.662,192.584 64.710,183.392 64.740 M226.195 65.085 C 226.034 65.246,225.356 65.446,224.690 65.530 C 223.966 65.620,223.185 65.879,222.751 66.174 C 222.352 66.445,221.856 66.667,221.649 66.667 C 221.218 66.667,220.625 67.417,220.625 67.963 C 220.625 68.167,220.757 68.333,220.918 68.333 C 221.101 68.333,221.173 68.188,221.110 67.948 C 220.992 67.495,221.540 66.875,222.058 66.875 C 222.256 66.875,222.737 66.641,223.125 66.354 C 223.895 65.786,225.152 65.652,225.592 66.092 C 225.798 66.298,225.886 66.293,226.024 66.070 C 226.145 65.874,226.241 65.859,226.340 66.019 C 226.642 66.507,245.365 66.326,245.521 65.833 C 245.594 65.604,245.769 65.417,245.910 65.417 C 246.804 65.417,246.957 67.199,246.146 68.163 C 245.760 68.622,245.625 69.024,245.625 69.715 C 245.625 70.228,245.424 71.088,245.178 71.626 C 244.931 72.164,244.671 73.173,244.598 73.868 C 244.510 74.705,244.309 75.330,244.004 75.719 C 243.707 76.096,243.542 76.595,243.542 77.116 C 243.542 77.561,243.307 78.502,243.021 79.207 C 242.734 79.912,242.500 80.904,242.500 81.411 C 242.500 82.182,242.384 82.449,241.792 83.042 L 241.083 83.750 230.973 83.750 C 219.497 83.750,220.208 83.638,220.208 85.451 C 220.208 86.197,220.076 86.684,219.749 87.144 C 219.469 87.537,219.231 88.279,219.141 89.041 C 218.982 90.396,218.510 91.031,217.986 90.596 C 217.764 90.412,217.708 90.512,217.708 91.098 C 217.708 91.949,219.102 92.434,219.170 91.607 C 219.383 89.036,219.613 87.840,219.988 87.364 C 220.298 86.970,220.417 86.514,220.417 85.716 C 220.417 83.836,219.661 83.958,231.254 83.958 L 241.437 83.958 242.072 83.281 C 242.567 82.753,242.707 82.415,242.707 81.745 C 242.708 81.272,242.943 80.355,243.229 79.707 C 243.537 79.011,243.750 78.140,243.750 77.576 C 243.750 76.863,243.881 76.467,244.271 76.004 C 244.657 75.545,244.792 75.143,244.792 74.450 C 244.792 73.895,245.003 73.052,245.313 72.376 C 245.624 71.695,245.833 70.858,245.833 70.293 C 245.833 69.349,246.068 68.694,246.595 68.167 C 247.240 67.522,246.919 65.459,246.107 65.031 C 245.374 64.645,226.584 64.696,226.195 65.085 M151.528 67.457 C 151.062 67.527,150.743 68.019,150.949 68.352 C 151.150 68.677,151.851 68.560,152.061 68.166 C 152.323 67.677,152.095 67.373,151.528 67.457 M219.450 68.762 C 219.564 69.330,219.510 69.422,218.951 69.617 C 218.286 69.849,217.917 70.342,217.917 70.997 C 217.917 71.217,217.682 71.837,217.396 72.376 C 217.017 73.089,216.875 73.678,216.874 74.542 C 216.873 75.438,216.747 75.934,216.360 76.563 C 216.011 77.129,215.844 77.708,215.840 78.369 C 215.835 79.098,215.702 79.499,215.313 79.962 C 214.885 80.471,214.792 80.802,214.792 81.822 C 214.792 82.746,214.658 83.313,214.271 84.042 C 213.954 84.639,213.750 85.364,213.750 85.896 C 213.750 86.443,213.508 87.278,213.105 88.125 C 212.558 89.273,212.476 89.646,212.569 90.573 C 212.651 91.390,212.609 91.667,212.406 91.667 C 211.880 91.667,211.640 92.277,211.598 93.723 C 211.566 94.828,211.450 95.326,211.123 95.769 C 210.825 96.171,210.654 96.800,210.576 97.783 C 210.494 98.795,210.328 99.393,210.005 99.829 C 209.697 100.245,209.529 100.816,209.486 101.583 C 209.441 102.398,209.268 102.944,208.878 103.507 C 208.520 104.024,208.333 104.569,208.333 105.101 C 208.333 105.859,208.130 106.701,207.655 107.917 C 207.197 109.090,207.454 109.029,203.204 108.977 C 198.945 108.926,198.417 109.045,198.936 109.937 C 199.135 110.279,199.155 110.271,199.160 109.844 C 199.164 109.586,199.284 109.367,199.427 109.357 C 199.570 109.346,201.370 109.323,203.426 109.305 L 207.165 109.271 207.733 108.438 C 208.280 107.635,208.547 106.619,208.657 104.931 C 208.688 104.444,208.892 103.938,209.181 103.631 C 209.521 103.268,209.681 102.795,209.752 101.932 C 209.814 101.187,210.010 100.521,210.272 100.167 C 210.563 99.773,210.731 99.125,210.819 98.046 C 210.910 96.928,211.060 96.367,211.352 96.044 C 211.654 95.710,211.780 95.209,211.840 94.099 C 211.930 92.437,212.148 92.007,212.834 92.138 C 213.351 92.237,213.382 91.853,212.945 90.768 C 212.641 90.015,212.611 90.187,213.333 88.542 C 213.733 87.631,213.958 86.770,213.958 86.152 C 213.958 85.465,214.109 84.965,214.479 84.420 C 214.906 83.791,215.000 83.403,215.000 82.259 C 215.000 81.099,215.082 80.767,215.493 80.276 C 215.841 79.860,216.013 79.344,216.080 78.518 C 216.143 77.742,216.328 77.154,216.629 76.771 C 216.985 76.318,217.083 75.914,217.083 74.896 C 217.083 73.915,217.185 73.469,217.499 73.070 C 217.727 72.779,217.985 72.040,218.072 71.427 C 218.210 70.447,218.309 70.275,218.889 70.000 C 219.972 69.487,220.609 68.125,219.766 68.125 C 219.383 68.125,219.340 68.211,219.450 68.762 M164.417 70.250 C 164.121 70.545,164.082 71.590,164.361 71.762 C 164.467 71.828,164.613 71.787,164.685 71.670 C 164.757 71.554,164.998 71.458,165.221 71.458 C 165.528 71.458,165.625 71.313,165.625 70.856 C 165.625 70.080,164.933 69.733,164.417 70.250 M150.833 70.374 C 150.833 70.458,150.622 70.619,150.365 70.732 C 149.711 71.018,149.631 71.796,150.235 71.988 C 151.057 72.249,151.943 70.647,151.146 70.341 C 150.974 70.275,150.833 70.290,150.833 70.374 M149.162 74.963 C 148.988 75.040,148.859 75.221,148.876 75.365 C 148.893 75.508,148.918 75.710,148.932 75.815 C 148.947 75.919,149.122 75.973,149.323 75.935 C 149.523 75.897,149.758 75.858,149.844 75.849 C 149.930 75.841,150.000 75.599,150.000 75.313 C 150.000 74.793,149.763 74.694,149.162 74.963 M163.391 76.191 C 163.111 76.922,163.847 77.154,166.250 77.093 C 167.241 77.067,187.602 76.873,189.115 76.874 C 190.007 76.875,190.130 76.777,189.830 76.305 C 189.593 75.931,163.534 75.819,163.391 76.191 M188.906 80.850 C 188.420 81.133,188.388 82.395,188.871 82.210 C 189.052 82.140,189.381 82.083,189.600 82.083 C 190.112 82.083,190.172 80.944,189.670 80.751 C 189.277 80.600,189.352 80.591,188.906 80.850 M147.708 82.057 C 147.708 82.170,147.497 82.293,147.240 82.329 C 146.612 82.418,146.453 83.437,147.043 83.591 C 147.881 83.811,148.634 82.422,147.917 81.979 C 147.802 81.908,147.708 81.943,147.708 82.057 M187.842 83.996 C 187.628 84.116,187.500 84.456,187.500 84.906 C 187.500 85.599,187.676 85.796,188.003 85.469 C 188.089 85.383,188.246 85.301,188.351 85.286 C 188.456 85.272,188.615 85.249,188.706 85.234 C 188.796 85.220,188.890 84.938,188.915 84.608 C 188.966 83.945,188.455 83.653,187.842 83.996 M184.103 86.175 C 184.029 86.248,178.881 86.319,172.662 86.331 L 161.354 86.354 161.288 86.927 L 161.222 87.500 172.082 87.500 C 178.054 87.500,182.896 87.426,182.840 87.336 C 182.784 87.246,182.920 87.173,183.140 87.173 C 183.361 87.173,183.542 87.246,183.542 87.336 C 183.542 87.426,184.104 87.500,184.792 87.500 C 185.981 87.500,186.042 87.475,186.042 86.986 C 186.042 86.267,184.610 85.668,184.103 86.175 M145.954 86.712 C 145.527 86.951,145.532 87.420,145.964 87.585 C 146.381 87.745,146.875 87.365,146.875 86.884 C 146.875 86.496,146.473 86.421,145.954 86.712 M145.578 89.491 C 145.510 89.559,145.282 89.640,145.071 89.671 C 144.389 89.771,144.520 91.771,145.208 91.771 C 145.664 91.771,145.753 91.647,145.921 90.776 C 146.100 89.849,145.915 89.155,145.578 89.491 M158.175 92.465 C 157.907 92.635,157.676 95.663,157.904 96.010 C 158.019 96.185,158.842 96.667,159.025 96.667 C 159.076 96.667,159.161 96.441,159.214 96.166 C 159.339 95.511,159.040 95.000,158.531 95.000 C 158.219 95.000,158.125 94.856,158.125 94.375 C 158.125 93.893,158.218 93.750,158.534 93.750 C 159.065 93.750,159.406 93.129,159.139 92.651 C 158.922 92.263,158.592 92.200,158.175 92.465 M217.708 93.279 C 217.708 93.366,222.192 93.410,227.672 93.377 C 239.738 93.303,239.365 93.217,238.426 95.859 C 238.244 96.371,238.154 97.053,238.221 97.415 C 238.315 97.925,238.209 98.224,237.712 98.850 C 237.204 99.489,237.083 99.838,237.083 100.674 C 237.083 101.406,236.949 101.895,236.622 102.355 C 236.293 102.817,236.135 103.395,236.073 104.366 C 236.010 105.353,235.851 105.928,235.493 106.454 C 234.200 108.357,234.966 109.501,237.409 109.316 C 238.972 109.198,239.426 109.361,239.239 109.973 C 239.159 110.234,239.191 110.226,239.376 109.937 C 239.829 109.229,239.301 108.979,237.220 108.914 L 235.313 108.854 235.331 107.966 C 235.343 107.380,235.494 106.920,235.777 106.612 C 236.096 106.265,236.227 105.787,236.289 104.744 C 236.350 103.732,236.498 103.174,236.821 102.736 C 237.125 102.325,237.302 101.714,237.370 100.832 C 237.450 99.803,237.582 99.416,238.006 98.974 C 238.440 98.521,238.542 98.210,238.542 97.338 C 238.542 96.650,238.709 95.917,239.005 95.307 C 239.432 94.428,239.444 94.309,239.154 93.791 L 238.838 93.229 228.273 93.175 C 222.463 93.145,217.708 93.192,217.708 93.279 M143.681 94.097 C 143.287 94.490,143.556 95.026,144.115 94.962 C 144.896 94.872,145.083 93.958,144.320 93.958 C 144.045 93.958,143.757 94.021,143.681 94.097 M160.930 98.565 C 160.772 99.063,161.279 99.719,161.647 99.492 C 161.772 99.414,161.875 99.075,161.875 98.738 C 161.875 97.993,161.154 97.861,160.930 98.565 M188.802 103.055 C 188.493 103.179,188.451 104.502,188.750 104.688 C 188.865 104.758,188.958 104.739,188.958 104.645 C 188.958 104.551,189.169 104.381,189.427 104.268 C 190.558 103.772,189.950 102.591,188.802 103.055 M143.681 103.264 C 143.261 103.683,143.705 104.375,144.392 104.375 C 144.722 104.375,144.600 103.384,144.254 103.251 C 143.846 103.095,143.850 103.095,143.681 103.264 M187.934 106.524 C 187.545 106.914,187.651 107.715,188.073 107.569 C 188.447 107.439,188.958 106.909,188.958 106.651 C 188.958 106.391,188.165 106.293,187.934 106.524 M150.662 109.074 C 150.756 109.526,151.126 109.554,151.210 109.115 C 151.254 108.887,151.152 108.750,150.938 108.750 C 150.737 108.750,150.623 108.885,150.662 109.074 M242.542 109.208 C 242.152 109.598,242.248 109.892,242.656 109.561 C 243.367 108.985,247.336 109.177,247.652 109.802 C 247.886 110.264,247.911 110.272,247.914 109.885 C 247.919 109.088,247.527 108.958,245.104 108.958 C 243.583 108.958,242.706 109.044,242.542 109.208 " stroke="none" fill="#4bb9b8" fill-rule="evenodd"></path><path id="path3" d="M100.000 54.361 C 100.000 54.467,99.789 54.584,99.531 54.621 C 98.832 54.720,98.674 58.002,99.360 58.181 C 100.218 58.406,99.866 58.958,98.865 58.958 L 97.938 58.958 97.990 60.447 C 98.036 61.732,97.991 61.949,97.667 62.034 C 97.337 62.120,97.292 62.382,97.292 64.191 L 97.292 66.250 109.881 66.250 L 122.470 66.250 122.869 66.757 C 123.247 67.238,123.352 67.258,124.859 67.144 C 126.405 67.027,127.170 67.425,126.761 68.134 C 126.725 68.196,126.887 68.261,127.121 68.279 C 127.637 68.318,127.650 68.330,127.741 68.854 C 127.780 69.083,128.000 69.322,128.229 69.386 C 128.618 69.493,128.641 69.646,128.574 71.700 C 128.506 73.788,128.524 73.905,128.938 74.013 C 129.530 74.168,129.505 74.786,128.906 74.814 C 127.539 74.878,127.601 74.824,127.646 75.929 C 127.678 76.731,127.793 77.042,128.163 77.321 C 128.768 77.777,128.607 77.930,127.471 77.981 L 126.563 78.021 126.549 79.219 C 126.541 79.878,126.612 80.417,126.705 80.417 C 126.799 80.417,126.875 80.547,126.875 80.707 C 126.875 80.952,125.989 81.366,125.611 81.297 C 125.402 81.259,125.392 83.085,125.601 83.214 C 125.724 83.290,125.733 83.582,125.624 83.961 C 125.491 84.426,125.515 84.583,125.718 84.583 C 126.018 84.583,126.575 85.162,126.422 85.314 C 126.369 85.367,125.888 85.427,125.353 85.447 L 124.381 85.484 124.485 87.051 C 124.553 88.086,124.703 88.746,124.927 88.992 C 125.301 89.406,125.089 89.584,124.096 89.690 C 123.362 89.769,123.333 89.782,123.333 90.026 C 123.333 90.180,123.457 90.163,123.698 89.977 C 124.045 89.708,124.045 89.715,123.698 90.124 C 123.343 90.542,123.174 92.108,123.490 92.059 C 123.919 91.991,124.167 92.114,124.167 92.396 C 124.167 92.594,123.958 92.714,123.594 92.723 C 122.398 92.754,121.853 94.000,122.504 95.217 C 122.792 95.754,122.587 96.022,121.843 96.083 C 121.093 96.146,120.932 98.982,121.656 99.369 C 122.599 99.874,122.000 100.359,120.599 100.224 C 119.834 100.150,119.765 102.326,120.521 102.670 C 121.295 103.023,121.152 103.333,120.216 103.333 C 119.159 103.333,118.958 103.693,118.958 105.592 C 118.958 106.965,118.982 107.038,119.396 106.930 C 119.743 106.839,119.817 106.897,119.753 107.210 C 119.704 107.447,119.529 107.580,119.313 107.542 C 119.000 107.489,118.957 107.658,118.982 108.844 L 119.012 110.208 127.527 110.208 C 136.454 110.208,136.473 110.206,135.781 109.335 C 135.638 109.154,135.380 108.956,135.208 108.895 C 135.036 108.833,135.276 108.775,135.740 108.766 C 136.917 108.743,137.083 108.491,137.083 106.729 C 137.083 105.544,137.017 105.208,136.783 105.208 C 135.801 105.208,136.270 104.402,137.301 104.318 C 138.058 104.257,138.420 102.667,137.848 101.918 C 137.588 101.577,137.862 101.288,138.546 101.183 C 139.014 101.111,139.058 101.018,139.017 100.187 C 138.992 99.683,138.963 98.919,138.954 98.490 C 138.942 97.984,138.838 97.708,138.657 97.708 C 138.504 97.708,138.324 97.568,138.258 97.396 C 138.164 97.150,138.316 97.083,138.965 97.083 C 139.420 97.083,139.792 96.984,139.792 96.863 C 139.792 96.741,139.867 96.689,139.959 96.746 C 140.179 96.881,140.219 95.399,140.005 95.018 C 139.915 94.855,139.914 94.465,140.004 94.151 C 140.138 93.685,140.095 93.561,139.772 93.476 C 139.283 93.348,139.245 92.917,139.723 92.917 C 139.915 92.917,140.259 92.753,140.488 92.552 C 140.721 92.349,140.830 92.315,140.736 92.475 C 140.620 92.672,140.658 92.732,140.856 92.666 C 141.214 92.546,141.211 90.559,140.853 90.128 C 140.577 89.796,140.942 89.583,141.788 89.583 C 142.320 89.583,142.577 87.909,142.090 87.608 C 141.979 87.540,141.944 87.208,142.011 86.870 C 142.102 86.418,142.045 86.222,141.796 86.127 C 141.074 85.850,141.542 85.252,142.365 85.399 C 143.223 85.553,143.692 83.907,143.075 82.910 C 142.770 82.418,143.099 82.092,143.906 82.087 C 144.602 82.082,144.615 79.345,143.923 78.608 C 143.368 78.017,143.446 77.926,144.549 77.882 L 145.417 77.848 145.417 76.112 C 145.417 74.707,145.357 74.375,145.104 74.375 C 144.391 74.375,144.815 73.773,145.573 73.710 C 146.061 73.670,146.335 73.548,146.302 73.385 C 146.273 73.242,146.344 73.125,146.458 73.125 C 146.590 73.125,146.667 71.597,146.667 68.958 C 146.667 66.319,146.590 64.792,146.458 64.792 C 146.344 64.792,146.273 64.674,146.302 64.531 C 146.336 64.363,146.041 64.248,145.469 64.207 C 144.494 64.136,144.277 63.720,145.010 63.328 C 145.411 63.114,145.608 61.039,145.224 61.079 C 144.359 61.169,144.250 61.043,144.298 60.005 C 144.324 59.435,144.282 58.977,144.204 58.988 C 143.647 59.066,143.323 58.886,143.211 58.438 C 143.099 57.992,142.961 57.917,142.257 57.917 C 141.667 57.917,141.471 57.990,141.566 58.177 C 141.638 58.320,141.553 58.250,141.377 58.021 C 141.200 57.792,140.962 57.494,140.847 57.359 C 140.704 57.192,140.718 57.084,140.892 57.020 C 141.031 56.969,140.893 56.859,140.585 56.777 C 140.230 56.682,140.000 56.462,139.960 56.178 C 139.906 55.801,139.737 55.719,138.906 55.666 C 138.013 55.608,137.917 55.553,137.917 55.093 C 137.917 54.588,137.899 54.583,135.990 54.600 C 134.930 54.609,134.180 54.664,134.323 54.721 C 134.690 54.870,134.647 55.348,134.252 55.499 C 133.777 55.682,133.488 55.436,133.614 54.956 C 133.700 54.624,133.640 54.564,133.306 54.651 C 133.058 54.716,132.845 54.640,132.777 54.463 C 132.642 54.109,100.000 54.007,100.000 54.361 M269.583 54.375 C 269.583 54.490,269.401 54.583,269.179 54.583 C 268.957 54.583,268.708 54.692,268.626 54.824 C 268.526 54.985,268.574 55.009,268.770 54.897 C 269.007 54.762,269.013 54.784,268.802 55.011 C 268.375 55.472,268.475 56.830,268.958 57.132 C 269.685 57.586,269.457 57.917,268.419 57.917 L 267.463 57.917 267.531 59.407 C 267.598 60.855,267.273 61.484,266.643 61.125 C 266.572 61.085,266.498 61.835,266.476 62.791 C 266.445 64.223,266.498 64.554,266.774 64.660 C 267.313 64.867,266.914 65.208,266.134 65.208 L 265.417 65.208 265.417 66.289 C 265.417 67.111,265.525 67.484,265.870 67.851 L 266.323 68.333 265.495 68.333 C 265.039 68.333,264.554 68.446,264.417 68.583 C 264.126 68.874,264.078 70.545,264.355 70.717 C 264.735 70.952,264.334 71.643,263.781 71.707 C 262.975 71.800,262.811 74.657,263.579 75.236 L 264.052 75.593 263.537 75.705 C 263.253 75.767,262.833 75.847,262.604 75.882 C 262.095 75.962,262.113 78.102,262.626 78.396 C 263.157 78.700,262.927 78.934,262.031 78.998 L 261.146 79.063 261.182 80.677 C 261.220 82.351,261.165 82.443,260.184 82.326 C 259.852 82.286,259.992 85.379,260.339 85.726 C 260.818 86.205,260.319 86.571,259.323 86.469 C 259.122 86.449,258.958 86.537,258.958 86.666 C 258.958 86.794,259.076 86.833,259.219 86.753 C 259.427 86.635,259.427 86.662,259.219 86.886 C 258.773 87.366,258.885 88.890,259.375 89.019 C 259.988 89.179,259.882 89.580,259.219 89.607 C 258.904 89.621,258.505 89.644,258.333 89.659 C 258.065 89.684,258.012 90.509,257.960 95.454 L 257.900 101.221 258.481 101.287 C 259.034 101.351,259.061 101.403,259.024 102.357 C 258.997 103.054,259.060 103.332,259.232 103.270 C 259.830 103.055,260.154 103.513,260.082 104.472 C 260.013 105.397,260.025 105.417,260.631 105.417 C 261.152 105.417,261.250 105.499,261.250 105.938 C 261.250 106.354,261.354 106.458,261.771 106.458 C 262.083 106.458,262.302 106.583,262.318 106.771 C 262.332 106.943,262.355 107.201,262.370 107.344 C 262.384 107.487,262.583 107.604,262.813 107.604 C 263.090 107.604,263.264 107.778,263.334 108.125 C 263.426 108.581,263.564 108.654,264.428 108.709 C 264.972 108.744,265.428 108.861,265.443 108.970 C 265.457 109.078,265.480 109.278,265.495 109.414 C 265.512 109.574,266.035 109.679,266.973 109.709 C 267.791 109.736,268.459 109.855,268.501 109.982 C 268.554 110.142,273.680 110.208,286.059 110.208 C 304.772 110.208,304.088 110.249,303.117 109.206 C 302.676 108.733,302.818 108.619,303.703 108.736 C 304.426 108.831,304.907 107.084,304.384 106.257 C 304.125 105.847,304.501 105.417,305.118 105.417 C 305.588 105.417,305.599 105.374,305.516 103.854 C 305.446 102.581,305.487 102.292,305.736 102.292 C 305.984 102.292,306.042 101.901,306.042 100.208 L 306.042 98.125 292.507 98.125 C 279.186 98.125,278.969 98.118,278.750 97.708 C 278.627 97.479,278.601 97.277,278.691 97.259 C 278.781 97.241,278.385 97.171,277.813 97.103 C 276.878 96.992,276.778 96.931,276.837 96.506 C 276.873 96.245,276.826 96.046,276.733 96.062 C 276.206 96.152,275.846 95.992,275.725 95.613 C 275.651 95.377,275.361 95.098,275.082 94.991 C 274.675 94.837,274.599 94.698,274.701 94.291 C 274.797 93.910,274.720 93.726,274.393 93.551 C 273.445 93.044,274.129 92.525,275.536 92.684 C 276.028 92.740,275.893 90.568,275.380 90.181 C 274.781 89.729,274.913 89.592,275.991 89.550 L 276.843 89.516 276.821 88.134 C 276.795 86.565,276.916 86.245,277.481 86.393 C 277.846 86.488,277.878 86.371,277.873 84.976 C 277.868 83.572,277.905 83.439,278.361 83.244 C 279.255 82.861,279.575 80.438,278.829 79.692 C 278.421 79.284,278.522 79.160,279.417 78.979 C 280.347 78.790,280.594 76.458,279.684 76.458 C 279.098 76.458,279.352 75.834,279.948 75.809 C 281.172 75.758,281.146 75.783,281.146 74.688 C 281.146 73.838,281.050 73.561,280.625 73.185 L 280.104 72.723 280.625 72.692 C 280.911 72.675,281.310 72.677,281.510 72.697 C 281.711 72.718,281.875 72.629,281.875 72.501 C 281.875 72.372,281.954 72.316,282.051 72.376 C 282.147 72.435,282.192 71.784,282.150 70.930 C 282.070 69.312,282.148 69.191,283.174 69.349 C 283.258 69.362,283.305 68.694,283.278 67.863 C 283.230 66.378,283.238 66.353,283.772 66.291 C 284.596 66.195,284.663 62.708,283.840 62.708 C 283.339 62.708,283.503 62.085,284.010 62.061 C 285.370 61.997,285.309 62.053,285.376 60.808 C 285.431 59.775,285.388 59.625,285.011 59.526 C 284.107 59.289,284.684 58.893,286.198 58.712 C 286.725 58.649,286.535 56.116,285.990 55.935 L 285.521 55.780 285.990 55.688 C 286.367 55.614,286.458 55.456,286.458 54.881 L 286.458 54.167 278.021 54.167 C 272.535 54.167,269.583 54.240,269.583 54.375 M219.107 55.003 C 219.247 55.538,219.039 55.596,216.805 55.650 C 215.692 55.676,214.895 55.768,215.033 55.854 C 215.565 56.183,214.788 56.667,213.728 56.667 C 212.811 56.667,212.704 56.717,212.580 57.211 C 212.453 57.714,212.375 57.748,211.553 57.656 C 210.599 57.548,209.920 57.761,210.503 57.985 C 210.685 58.055,210.833 58.302,210.833 58.535 C 210.833 58.768,210.875 58.958,210.926 58.958 C 211.106 58.958,213.004 57.902,213.324 57.625 C 213.501 57.470,213.988 57.283,214.406 57.208 C 214.824 57.134,215.271 56.946,215.400 56.791 C 215.639 56.503,216.708 56.262,218.295 56.139 C 219.630 56.036,220.440 55.010,219.401 54.738 C 219.108 54.662,219.035 54.727,219.107 55.003 M263.892 54.719 C 263.814 54.797,263.750 55.649,263.750 56.611 C 263.750 58.157,263.689 58.441,263.229 59.044 C 262.847 59.545,262.708 59.984,262.708 60.691 C 262.708 61.266,262.498 62.130,262.188 62.832 C 261.901 63.480,261.667 64.402,261.667 64.881 C 261.667 65.483,261.506 65.970,261.146 66.458 C 260.784 66.949,260.625 67.433,260.625 68.044 C 260.625 68.528,260.427 69.377,260.186 69.931 C 259.944 70.484,259.621 71.524,259.467 72.241 C 259.313 72.959,259.042 73.753,258.865 74.007 C 258.687 74.260,258.542 74.829,258.542 75.271 C 258.542 75.713,258.317 76.653,258.042 77.360 C 257.767 78.067,257.480 79.161,257.403 79.792 C 257.313 80.534,257.106 81.106,256.815 81.417 C 256.500 81.753,256.353 82.200,256.323 82.915 C 256.295 83.594,256.124 84.145,255.812 84.568 C 255.486 85.008,255.320 85.568,255.271 86.393 C 255.229 87.096,254.988 88.030,254.683 88.674 C 254.331 89.419,254.167 90.126,254.167 90.897 C 254.167 91.710,254.050 92.175,253.752 92.554 C 253.509 92.863,253.257 93.649,253.143 94.456 C 253.025 95.290,252.778 96.048,252.516 96.381 C 252.278 96.684,252.079 97.223,252.074 97.580 C 252.063 98.352,251.653 99.921,251.296 100.559 C 251.156 100.810,251.042 101.430,251.042 101.937 C 251.042 102.575,250.899 103.042,250.580 103.448 C 250.269 103.842,250.074 104.462,249.983 105.337 C 249.909 106.053,249.648 107.023,249.403 107.492 C 248.931 108.399,248.818 109.472,249.172 109.691 C 249.289 109.763,249.372 109.745,249.355 109.651 C 249.261 109.108,249.432 108.781,249.867 108.672 C 250.459 108.523,250.702 107.289,250.491 105.498 C 250.356 104.346,250.494 104.190,251.510 104.350 C 251.596 104.364,251.625 103.672,251.574 102.813 C 251.484 101.301,251.497 101.250,251.952 101.250 C 252.462 101.250,252.448 101.321,252.530 98.385 C 252.563 97.199,252.606 97.083,253.019 97.083 C 253.268 97.083,253.484 96.966,253.499 96.823 C 253.531 96.520,253.729 94.137,253.741 93.906 C 253.746 93.820,253.926 93.750,254.141 93.750 C 254.619 93.750,254.792 93.025,254.792 91.016 C 254.792 89.752,254.838 89.583,255.184 89.583 C 255.660 89.583,255.790 89.030,255.789 86.995 C 255.788 85.544,255.798 85.519,256.372 85.417 C 256.693 85.359,256.937 85.242,256.915 85.156 C 256.613 83.983,256.916 82.083,257.405 82.083 C 257.708 82.083,257.920 81.972,257.901 81.823 C 257.720 80.432,257.943 78.958,258.333 78.958 C 258.563 78.958,258.764 78.841,258.782 78.698 C 258.799 78.555,258.835 78.344,258.862 78.229 C 258.888 78.115,258.921 77.301,258.934 76.421 C 258.957 74.928,258.990 74.816,259.427 74.754 C 259.856 74.693,259.901 74.562,259.956 73.207 C 260.011 71.864,260.065 71.704,260.529 71.492 C 261.021 71.268,261.042 71.179,261.042 69.289 L 261.042 67.319 261.615 67.253 C 262.186 67.188,262.187 67.183,262.139 65.677 C 262.092 64.197,262.101 64.167,262.606 64.167 C 263.186 64.167,263.188 64.155,263.162 61.627 C 263.145 60.037,263.149 60.025,263.708 59.961 L 264.271 59.896 264.336 57.420 C 264.396 55.150,264.264 54.347,263.892 54.719 M131.284 55.432 C 132.010 55.670,133.334 55.938,134.225 56.027 C 135.445 56.149,135.964 56.300,136.322 56.636 C 136.584 56.882,137.061 57.083,137.382 57.083 C 137.734 57.083,138.249 57.332,138.678 57.708 C 139.069 58.052,139.518 58.333,139.675 58.333 C 140.197 58.333,142.631 60.900,143.083 61.927 C 143.322 62.471,143.617 62.917,143.738 62.917 C 143.859 62.917,143.958 63.222,143.958 63.595 C 143.958 63.969,144.200 64.729,144.496 65.284 C 145.226 66.655,145.282 70.714,144.590 72.071 C 144.319 72.601,144.167 73.306,144.167 74.025 C 144.167 74.884,144.014 75.436,143.519 76.363 C 143.013 77.311,142.895 77.749,142.978 78.367 C 143.052 78.920,142.959 79.395,142.668 79.944 C 142.439 80.376,142.126 81.418,141.973 82.260 C 141.820 83.102,141.530 83.973,141.329 84.195 C 141.092 84.456,140.931 85.055,140.872 85.893 C 140.813 86.726,140.634 87.395,140.370 87.769 C 140.113 88.133,139.918 88.837,139.851 89.644 C 139.783 90.463,139.562 91.257,139.247 91.808 C 138.917 92.386,138.750 93.008,138.750 93.658 C 138.750 94.309,138.594 94.891,138.285 95.391 C 137.986 95.875,137.774 96.639,137.692 97.529 C 137.604 98.489,137.428 99.089,137.116 99.485 C 136.776 99.918,136.667 100.343,136.667 101.238 C 136.667 102.171,136.557 102.567,136.146 103.125 C 135.777 103.624,135.625 104.097,135.625 104.741 C 135.625 105.270,135.407 106.129,135.104 106.790 C 134.818 107.417,134.583 108.049,134.583 108.196 C 134.583 109.208,134.462 109.225,127.497 109.182 C 120.525 109.138,120.094 109.079,120.423 108.212 C 120.534 107.920,120.625 107.289,120.626 106.809 C 120.626 106.294,120.839 105.519,121.147 104.913 C 121.448 104.319,121.667 103.530,121.667 103.038 C 121.668 102.531,121.850 101.893,122.118 101.458 C 122.426 100.961,122.579 100.351,122.601 99.537 C 122.624 98.697,122.749 98.217,123.024 97.913 C 123.282 97.628,123.468 96.985,123.571 96.024 C 123.690 94.912,123.852 94.418,124.259 93.934 C 124.674 93.441,124.792 93.072,124.792 92.267 C 124.792 91.538,124.923 91.056,125.237 90.631 C 125.544 90.215,125.694 89.680,125.721 88.897 C 125.749 88.098,125.924 87.486,126.318 86.814 C 126.722 86.125,126.875 85.576,126.875 84.816 C 126.875 84.042,127.011 83.568,127.396 83.001 C 127.764 82.458,127.917 81.953,127.918 81.273 C 127.918 80.618,128.082 80.047,128.432 79.479 C 128.796 78.888,128.947 78.339,128.952 77.593 C 128.957 76.803,129.089 76.362,129.479 75.833 C 129.877 75.294,130.000 74.872,130.000 74.048 C 130.000 73.455,130.150 72.559,130.333 72.057 C 130.703 71.044,130.753 70.099,130.457 69.725 C 130.350 69.590,130.152 69.135,130.016 68.714 C 129.675 67.653,127.789 66.057,126.728 65.931 C 126.293 65.880,125.047 65.692,123.958 65.513 C 122.297 65.241,120.110 65.198,110.367 65.250 C 100.845 65.301,98.735 65.263,98.648 65.035 C 98.461 64.546,98.533 64.105,98.860 63.743 C 99.046 63.538,99.203 62.909,99.235 62.235 C 99.277 61.382,99.439 60.868,99.854 60.268 C 100.294 59.634,100.417 59.214,100.417 58.344 C 100.417 57.417,100.540 57.044,101.157 56.115 L 101.897 55.000 115.930 55.000 C 129.571 55.000,130.000 55.012,131.284 55.432 M284.750 55.250 C 285.145 55.645,285.044 56.523,284.479 57.584 C 284.152 58.199,283.958 58.903,283.958 59.474 C 283.958 60.141,283.819 60.550,283.438 61.004 C 283.049 61.466,282.917 61.863,282.917 62.571 C 282.917 63.183,282.732 63.868,282.396 64.499 C 282.109 65.038,281.875 65.769,281.874 66.125 C 281.874 66.480,281.677 67.094,281.436 67.488 C 281.195 67.883,280.919 68.768,280.822 69.455 C 280.722 70.164,280.454 70.962,280.202 71.304 C 279.905 71.705,279.737 72.285,279.694 73.049 C 279.647 73.895,279.506 74.326,279.156 74.699 C 278.804 75.074,278.676 75.468,278.661 76.228 C 278.648 76.929,278.514 77.394,278.237 77.700 C 277.969 77.996,277.784 78.605,277.692 79.502 C 277.597 80.414,277.416 81.005,277.136 81.313 C 276.865 81.611,276.680 82.190,276.604 82.973 C 276.540 83.633,276.306 84.477,276.083 84.848 C 275.860 85.218,275.616 85.931,275.541 86.433 C 275.465 86.934,275.172 87.739,274.889 88.222 C 274.525 88.843,274.375 89.408,274.375 90.159 C 274.375 90.985,274.260 91.354,273.854 91.837 C 273.392 92.387,273.333 92.646,273.333 94.160 L 273.333 95.864 274.516 97.203 C 275.452 98.262,275.824 98.542,276.295 98.542 C 276.623 98.542,277.286 98.753,277.769 99.010 C 278.645 99.479,278.658 99.479,291.667 99.583 C 304.672 99.687,304.688 99.688,304.750 100.122 C 304.784 100.362,304.667 100.678,304.489 100.825 C 304.286 100.993,304.167 101.437,304.167 102.020 C 304.167 102.613,303.988 103.259,303.671 103.817 C 303.398 104.296,303.117 105.141,303.047 105.695 C 302.977 106.249,302.732 106.966,302.502 107.289 C 302.272 107.613,302.083 108.067,302.083 108.299 C 302.083 109.422,302.695 109.381,286.147 109.371 L 270.870 109.362 269.903 108.847 C 269.371 108.565,268.603 108.333,268.196 108.333 C 267.711 108.333,267.243 108.154,266.837 107.813 C 266.497 107.526,266.029 107.292,265.799 107.292 C 265.388 107.292,261.458 103.573,261.458 103.184 C 261.458 103.082,261.224 102.680,260.938 102.292 C 260.608 101.846,260.417 101.309,260.417 100.833 C 260.417 100.358,260.225 99.821,259.896 99.375 C 259.394 98.694,259.375 98.555,259.375 95.473 C 259.375 92.478,259.408 92.214,259.896 91.250 C 260.238 90.575,260.417 89.876,260.417 89.214 C 260.417 88.466,260.551 88.024,260.938 87.500 C 261.301 87.008,261.458 86.526,261.458 85.908 C 261.458 85.363,261.659 84.645,261.979 84.042 C 262.292 83.454,262.500 82.720,262.500 82.205 C 262.500 81.624,262.675 81.089,263.041 80.551 C 263.447 79.953,263.594 79.449,263.633 78.519 C 263.671 77.622,263.801 77.156,264.107 76.819 C 264.378 76.520,264.577 75.921,264.664 75.144 C 264.738 74.478,264.956 73.693,265.149 73.399 C 265.342 73.104,265.564 72.319,265.642 71.654 C 265.731 70.903,265.969 70.186,266.273 69.759 C 266.588 69.316,266.775 68.739,266.799 68.130 C 266.855 66.715,266.854 66.717,267.155 66.417 C 267.657 65.915,267.870 65.328,267.880 64.421 C 267.886 63.919,268.069 63.235,268.299 62.858 C 268.523 62.489,268.775 61.673,268.859 61.044 C 268.945 60.399,269.227 59.583,269.506 59.173 C 269.880 58.621,270.000 58.163,270.000 57.280 C 270.000 56.099,270.369 55.469,271.250 55.147 C 271.932 54.898,284.494 54.994,284.750 55.250 M209.421 59.462 C 209.252 59.833,209.013 60.000,208.650 60.000 C 208.229 60.000,208.125 60.103,208.125 60.521 C 208.125 60.946,208.023 61.042,207.569 61.042 C 207.264 61.042,207.073 61.101,207.145 61.173 C 207.418 61.446,206.846 62.083,206.328 62.083 C 205.823 62.083,205.799 62.133,205.867 63.062 C 205.927 63.897,205.876 64.058,205.521 64.156 C 205.071 64.280,204.972 64.545,204.806 66.069 C 204.798 66.142,204.592 66.254,204.348 66.317 C 204.052 66.395,203.946 66.541,204.029 66.758 C 204.097 66.937,204.063 67.083,203.952 67.083 C 203.838 67.083,203.750 67.843,203.750 68.832 C 203.750 70.523,203.733 70.584,203.229 70.711 C 202.719 70.838,202.708 70.883,202.708 72.816 C 202.708 74.784,202.706 74.792,202.188 74.792 C 201.679 74.792,201.667 74.827,201.667 76.340 C 201.667 77.786,201.636 77.892,201.198 77.954 C 200.774 78.014,200.723 78.151,200.668 79.375 C 200.592 81.060,200.527 81.250,200.033 81.250 C 199.559 81.250,199.465 82.202,199.922 82.377 C 200.664 82.662,200.852 82.374,201.260 80.321 C 201.395 79.638,201.625 78.888,201.770 78.654 C 201.915 78.420,202.089 77.722,202.157 77.103 C 202.239 76.349,202.433 75.814,202.743 75.483 C 203.122 75.080,203.214 74.723,203.242 73.536 C 203.271 72.359,203.378 71.934,203.807 71.302 C 204.174 70.760,204.339 70.231,204.347 69.575 C 204.372 67.441,206.811 62.891,209.104 60.702 C 209.846 59.993,209.975 59.760,209.835 59.383 C 209.666 58.926,209.665 58.926,209.421 59.462 M245.543 65.746 C 245.360 66.224,245.375 66.250,245.833 66.250 C 246.541 66.250,246.397 67.247,245.677 67.330 L 245.104 67.396 245.154 69.010 C 245.202 70.586,245.191 70.625,244.708 70.625 C 244.121 70.625,243.959 71.366,244.079 73.490 L 244.153 74.792 243.507 74.792 L 242.862 74.792 242.961 76.344 C 243.054 77.789,243.032 77.900,242.633 77.958 C 242.082 78.039,241.805 79.230,241.946 80.910 C 242.032 81.939,241.992 82.146,241.693 82.224 C 241.498 82.276,241.248 82.506,241.138 82.738 C 240.941 83.151,240.746 83.159,230.313 83.194 L 219.688 83.229 219.719 84.844 C 219.750 86.418,219.739 86.458,219.250 86.458 C 218.715 86.458,218.665 86.657,218.691 88.698 C 218.701 89.471,218.645 89.583,218.249 89.583 C 217.734 89.583,217.571 90.252,218.000 90.608 C 218.508 91.030,218.984 90.377,219.141 89.041 C 219.231 88.279,219.469 87.537,219.749 87.144 C 220.076 86.684,220.208 86.197,220.208 85.451 C 220.208 83.638,219.497 83.750,230.973 83.750 L 241.083 83.750 241.792 83.042 C 242.384 82.449,242.500 82.182,242.500 81.411 C 242.500 80.904,242.734 79.912,243.021 79.207 C 243.307 78.502,243.542 77.561,243.542 77.116 C 243.542 76.595,243.707 76.096,244.004 75.719 C 244.309 75.330,244.510 74.705,244.598 73.868 C 244.671 73.173,244.931 72.164,245.178 71.626 C 245.424 71.088,245.625 70.228,245.625 69.715 C 245.625 69.024,245.760 68.622,246.146 68.163 C 246.953 67.204,246.805 65.417,245.918 65.417 C 245.781 65.417,245.613 65.565,245.543 65.746 M223.254 66.268 C 222.950 66.507,222.381 66.791,221.988 66.899 C 221.277 67.095,220.878 67.691,221.156 68.142 C 221.243 68.282,221.392 68.183,221.543 67.883 C 221.751 67.471,221.939 67.399,222.759 67.419 C 223.655 67.440,223.733 67.401,223.791 66.898 C 223.847 66.419,223.960 66.347,224.744 66.290 C 225.828 66.212,225.708 65.833,224.599 65.833 C 224.111 65.833,223.594 66.000,223.254 66.268 M218.618 70.095 C 218.316 70.307,218.147 70.717,218.060 71.457 C 217.990 72.042,217.744 72.758,217.509 73.057 C 217.184 73.470,217.083 73.904,217.083 74.896 C 217.083 75.914,216.985 76.318,216.629 76.771 C 216.328 77.154,216.143 77.742,216.080 78.518 C 216.013 79.344,215.841 79.860,215.493 80.276 C 215.082 80.767,215.000 81.099,215.000 82.259 C 215.000 83.403,214.906 83.791,214.479 84.420 C 214.109 84.965,213.958 85.465,213.958 86.152 C 213.958 86.771,213.732 87.633,213.328 88.554 C 212.900 89.530,212.740 90.159,212.830 90.518 C 213.047 91.379,213.333 91.337,213.333 90.443 C 213.333 89.740,213.405 89.602,213.802 89.546 C 214.356 89.467,214.447 89.076,214.416 86.927 C 214.395 85.495,214.418 85.417,214.861 85.417 C 215.414 85.417,215.530 84.884,215.486 82.552 C 215.457 80.990,215.558 80.844,216.541 81.027 C 216.647 81.047,216.677 80.377,216.609 79.489 C 216.492 77.942,216.498 77.917,216.982 77.917 C 217.541 77.917,217.542 77.913,217.577 75.469 C 217.600 73.858,217.630 73.750,218.048 73.750 C 218.551 73.750,218.737 73.054,218.643 71.522 C 218.597 70.769,218.651 70.639,219.032 70.584 C 219.516 70.515,219.790 69.792,219.332 69.792 C 219.178 69.792,218.856 69.928,218.618 70.095 M199.590 84.517 C 199.584 85.259,199.514 85.398,199.115 85.454 C 198.670 85.517,198.643 85.625,198.586 87.552 C 198.529 89.502,198.508 89.583,198.058 89.583 C 197.543 89.583,197.396 90.125,197.452 91.823 C 197.476 92.555,197.414 92.708,197.096 92.708 C 196.558 92.708,196.458 93.101,196.458 95.225 C 196.458 97.068,196.454 97.083,195.938 97.083 C 195.377 97.083,195.316 97.320,195.361 99.323 C 195.379 100.126,195.334 100.208,194.878 100.208 C 194.561 100.208,194.375 100.329,194.375 100.533 C 194.375 100.717,194.475 100.796,194.605 100.716 C 194.731 100.638,194.690 100.796,194.512 101.068 C 194.286 101.415,194.205 101.978,194.241 102.959 C 194.291 104.316,194.277 104.357,193.761 104.417 C 193.234 104.479,193.229 104.499,193.170 106.603 C 193.117 108.503,193.068 108.740,192.701 108.856 C 192.402 108.951,192.296 109.165,192.306 109.649 C 192.319 110.209,192.349 110.247,192.500 109.896 C 192.653 109.540,192.681 109.532,192.694 109.844 C 192.713 110.327,195.833 110.404,195.833 109.921 C 195.833 109.454,195.255 109.110,194.703 109.248 C 193.507 109.548,193.219 106.721,194.297 105.274 C 194.698 104.737,194.792 104.356,194.792 103.271 C 194.792 102.230,194.888 101.808,195.224 101.381 C 195.475 101.063,195.731 100.305,195.833 99.583 C 195.935 98.861,196.192 98.104,196.442 97.785 C 196.790 97.343,196.875 96.939,196.875 95.717 C 196.875 94.427,196.949 94.110,197.367 93.610 C 197.653 93.267,197.922 92.587,198.012 91.983 C 198.096 91.413,198.343 90.695,198.562 90.389 C 198.843 89.993,198.958 89.477,198.958 88.610 C 198.958 87.660,199.071 87.223,199.463 86.645 C 200.141 85.649,200.324 84.600,199.914 84.063 C 199.614 83.668,199.596 83.693,199.590 84.517 M212.140 92.334 C 212.020 92.482,211.885 93.277,211.840 94.099 C 211.780 95.209,211.654 95.710,211.352 96.044 C 211.060 96.367,210.910 96.928,210.819 98.046 C 210.731 99.125,210.563 99.773,210.272 100.167 C 210.010 100.521,209.814 101.187,209.752 101.932 C 209.681 102.795,209.521 103.268,209.181 103.631 C 208.892 103.938,208.688 104.444,208.657 104.931 C 208.547 106.619,208.280 107.635,207.733 108.438 L 207.165 109.271 203.426 109.305 C 201.370 109.323,199.570 109.346,199.427 109.357 C 199.284 109.367,199.167 109.563,199.167 109.792 C 199.167 110.194,199.306 110.208,203.333 110.208 C 206.526 110.208,207.501 110.147,207.503 109.948 C 207.505 109.767,207.564 109.779,207.695 109.986 C 207.834 110.205,207.903 110.096,207.953 109.578 C 208.006 109.022,208.132 108.844,208.542 108.748 C 209.117 108.613,209.112 108.634,209.145 106.094 C 209.166 104.405,209.176 104.375,209.688 104.375 C 210.196 104.375,210.208 104.339,210.208 102.827 C 210.208 101.380,210.239 101.275,210.677 101.212 C 211.121 101.149,211.149 101.041,211.205 99.128 C 211.261 97.225,211.291 97.107,211.726 97.045 C 212.252 96.970,212.231 97.067,212.266 94.598 C 212.290 92.836,212.317 92.734,212.760 92.671 C 213.018 92.634,213.229 92.510,213.229 92.396 C 213.229 92.076,212.388 92.028,212.140 92.334 M217.969 93.475 C 216.902 93.889,218.584 93.971,227.703 93.950 C 238.101 93.927,238.263 93.937,237.917 94.582 C 237.802 94.797,237.708 95.682,237.708 96.549 C 237.708 98.091,237.697 98.125,237.188 98.125 C 236.679 98.125,236.667 98.161,236.667 99.673 C 236.667 101.120,236.636 101.225,236.198 101.288 C 235.674 101.362,235.682 101.326,235.649 103.683 C 235.626 105.284,235.596 105.392,235.156 105.454 C 234.724 105.516,234.683 105.643,234.627 107.089 C 234.574 108.478,234.515 108.681,234.107 108.860 C 233.796 108.996,233.632 109.267,233.605 109.688 C 233.566 110.287,233.571 110.291,233.740 109.792 C 233.910 109.290,233.918 109.288,233.938 109.740 C 233.963 110.320,239.013 110.493,239.232 109.921 C 239.444 109.368,238.939 109.200,237.409 109.316 C 234.966 109.501,234.200 108.357,235.493 106.454 C 235.851 105.928,236.010 105.353,236.073 104.366 C 236.135 103.395,236.293 102.817,236.622 102.355 C 236.949 101.895,237.083 101.406,237.083 100.674 C 237.083 99.838,237.204 99.489,237.712 98.850 C 238.209 98.224,238.315 97.925,238.221 97.415 C 238.154 97.053,238.244 96.371,238.426 95.859 C 238.921 94.466,238.856 93.780,238.206 93.533 C 237.661 93.326,218.495 93.271,217.969 93.475 M242.698 109.469 C 242.087 110.080,242.506 110.208,245.104 110.208 C 247.677 110.208,248.338 109.997,247.459 109.454 C 247.089 109.225,242.928 109.238,242.698 109.469 " stroke="none" fill="#a9b8b8" fill-rule="evenodd"></path><path id="path4" d="M155.335 55.089 C 155.265 55.367,155.044 55.637,154.844 55.690 C 154.509 55.777,154.510 55.787,154.858 55.809 C 155.411 55.844,155.246 56.771,154.688 56.771 C 154.392 56.771,154.275 56.637,154.286 56.312 C 154.295 56.060,154.224 55.902,154.130 55.960 C 153.723 56.212,153.949 57.292,154.408 57.292 C 155.027 57.292,156.651 55.508,156.513 54.980 C 156.356 54.379,155.493 54.459,155.335 55.089 M158.245 54.931 C 157.985 55.607,158.676 55.626,180.636 55.574 L 202.813 55.521 202.879 55.052 L 202.946 54.583 180.662 54.583 C 160.053 54.583,158.368 54.609,158.245 54.931 M205.338 56.071 C 205.262 56.890,205.242 57.603,205.294 57.655 C 205.483 57.845,205.833 57.465,205.833 57.071 C 205.833 56.783,205.977 56.667,206.332 56.667 C 207.419 56.667,207.191 54.712,206.094 54.628 L 205.477 54.581 205.338 56.071 M221.389 54.728 C 222.010 54.849,222.198 55.439,221.730 55.800 C 221.393 56.060,221.419 56.072,221.979 55.920 C 223.012 55.640,262.186 55.638,262.751 55.918 C 263.459 56.270,263.532 57.756,262.883 58.628 C 262.587 59.026,262.356 59.708,262.277 60.417 C 262.206 61.047,262.080 61.750,261.997 61.979 C 261.901 62.245,261.962 62.207,262.166 61.875 C 262.341 61.589,262.489 60.927,262.493 60.405 C 262.498 59.728,262.649 59.254,263.021 58.750 C 263.478 58.130,263.542 57.832,263.542 56.314 L 263.542 54.583 242.240 54.612 C 230.523 54.627,221.141 54.680,221.389 54.728 M154.350 59.212 C 154.446 59.791,154.475 59.820,154.541 59.403 C 154.584 59.132,154.533 58.824,154.428 58.719 C 154.312 58.604,154.282 58.798,154.350 59.212 M202.211 59.459 C 201.586 60.776,201.943 62.946,202.607 61.870 C 202.680 61.752,202.615 61.682,202.463 61.714 C 202.105 61.788,201.975 60.383,202.287 59.800 C 202.426 59.540,202.724 59.375,203.054 59.375 C 203.509 59.375,203.553 59.327,203.333 59.063 C 202.924 58.569,202.575 58.693,202.211 59.459 M210.291 59.776 L 210.270 60.384 210.864 59.944 C 211.520 59.459,211.608 59.331,211.167 59.500 C 211.007 59.561,210.814 59.512,210.738 59.389 C 210.494 58.995,210.313 59.152,210.291 59.776 M152.917 60.603 C 152.917 60.963,153.617 61.056,153.936 60.737 C 154.224 60.449,154.189 60.417,153.586 60.417 C 153.218 60.417,152.917 60.500,152.917 60.603 M208.521 61.719 C 207.464 62.994,207.345 63.222,207.892 62.930 C 208.135 62.800,208.333 62.597,208.333 62.479 C 208.333 62.361,208.579 61.942,208.879 61.549 C 209.648 60.540,209.400 60.658,208.521 61.719 M200.638 62.695 C 200.400 62.933,200.208 63.397,200.208 63.733 C 200.208 64.201,200.077 64.392,199.635 64.568 C 199.080 64.789,199.084 64.792,199.781 64.686 C 200.177 64.626,200.552 64.496,200.615 64.396 C 200.678 64.296,200.917 64.179,201.146 64.136 C 201.478 64.073,201.563 63.892,201.563 63.244 C 201.563 62.289,201.237 62.096,200.638 62.695 M153.287 63.255 C 153.375 63.711,153.423 63.746,153.582 63.462 C 153.776 63.115,153.651 62.708,153.350 62.708 C 153.258 62.708,153.230 62.954,153.287 63.255 M201.360 63.134 C 201.555 63.450,201.026 64.026,200.773 63.773 C 200.539 63.539,200.721 62.917,201.023 62.917 C 201.134 62.917,201.286 63.015,201.360 63.134 M261.310 64.479 C 261.311 65.052,261.352 65.262,261.399 64.945 C 261.447 64.628,261.446 64.160,261.397 63.903 C 261.347 63.647,261.308 63.906,261.310 64.479 M153.009 64.395 C 152.931 64.520,152.644 64.580,152.371 64.528 C 152.098 64.475,151.875 64.514,151.875 64.612 C 151.875 64.915,152.850 64.811,153.125 64.479 C 153.268 64.307,153.332 64.167,153.267 64.167 C 153.202 64.167,153.086 64.269,153.009 64.395 M239.955 64.737 C 240.560 64.779,241.498 64.779,242.038 64.736 C 242.579 64.693,242.083 64.659,240.938 64.659 C 239.792 64.660,239.349 64.695,239.955 64.737 M225.741 65.111 C 225.514 65.282,225.452 65.417,225.600 65.417 C 225.745 65.417,226.004 65.276,226.176 65.104 C 226.575 64.705,226.272 64.709,225.741 65.111 M246.932 66.667 C 246.932 67.182,246.972 67.393,247.022 67.135 C 247.072 66.878,247.072 66.456,247.022 66.198 C 246.972 65.940,246.932 66.151,246.932 66.667 M165.799 66.599 C 165.608 66.649,165.400 66.826,165.337 66.992 C 165.242 67.237,165.317 67.230,165.735 66.956 C 166.140 66.691,166.464 66.359,166.198 66.483 C 166.169 66.496,165.990 66.548,165.799 66.599 M220.833 66.979 C 220.691 67.151,220.452 67.292,220.303 67.292 C 219.759 67.292,218.730 68.360,218.865 68.784 C 218.935 69.005,218.878 69.325,218.738 69.493 C 218.521 69.755,218.557 69.772,218.982 69.612 C 219.384 69.461,219.467 69.300,219.414 68.775 C 219.360 68.236,219.422 68.125,219.778 68.125 C 220.255 68.125,220.317 68.367,219.993 68.972 C 219.826 69.284,219.845 69.375,220.079 69.375 C 220.272 69.375,220.431 69.058,220.523 68.490 C 220.601 68.003,220.799 67.393,220.962 67.135 C 221.300 66.603,221.223 66.510,220.833 66.979 M152.121 67.454 C 152.182 68.255,151.918 68.598,151.330 68.486 C 150.775 68.380,150.651 68.636,151.163 68.832 C 151.714 69.043,151.818 68.986,152.271 68.217 C 152.787 67.342,152.830 66.875,152.393 66.875 C 152.176 66.875,152.091 67.056,152.121 67.454 M260.086 68.643 C 259.970 69.146,259.946 69.513,260.033 69.459 C 260.213 69.347,260.512 67.942,260.382 67.813 C 260.336 67.767,260.203 68.140,260.086 68.643 M164.902 68.816 C 165.017 69.426,164.973 69.661,164.710 69.854 C 164.418 70.069,164.458 70.107,164.998 70.126 C 165.791 70.154,165.913 69.075,165.190 68.421 L 164.754 68.027 164.902 68.816 M204.713 68.654 C 204.642 68.840,204.591 69.149,204.601 69.340 C 204.611 69.531,204.702 69.411,204.803 69.073 C 204.999 68.415,204.930 68.090,204.713 68.654 M151.161 70.390 C 151.612 70.828,151.779 70.801,151.595 70.321 C 151.527 70.145,151.311 70.000,151.116 70.000 C 150.797 70.000,150.802 70.040,151.161 70.390 M217.650 70.902 C 217.568 71.112,217.506 71.487,217.513 71.736 C 217.526 72.164,217.537 72.162,217.729 71.680 C 217.841 71.400,217.902 71.025,217.866 70.846 C 217.812 70.579,217.774 70.589,217.650 70.902 M258.892 72.254 C 258.688 72.905,258.468 73.578,258.405 73.750 C 258.342 73.922,258.435 73.866,258.613 73.627 C 258.939 73.186,259.498 71.303,259.347 71.152 C 259.302 71.107,259.097 71.603,258.892 72.254 M163.958 71.605 C 163.958 71.843,164.099 72.093,164.271 72.159 C 164.662 72.309,164.660 72.098,164.264 71.575 C 163.964 71.178,163.958 71.178,163.958 71.605 M149.792 72.113 C 149.792 72.333,150.772 72.352,150.905 72.135 C 150.958 72.049,150.729 71.969,150.396 71.957 C 150.064 71.945,149.792 72.015,149.792 72.113 M244.848 74.167 C 244.848 74.682,244.889 74.893,244.939 74.635 C 244.988 74.378,244.988 73.956,244.939 73.698 C 244.889 73.440,244.848 73.651,244.848 74.167 M257.958 76.068 C 257.838 76.541,257.816 76.845,257.910 76.745 C 258.105 76.537,258.417 75.208,258.271 75.208 C 258.219 75.208,258.078 75.595,257.958 76.068 M148.766 75.990 C 148.747 76.547,149.384 76.637,149.800 76.136 C 150.032 75.856,149.996 75.826,149.525 75.911 C 149.219 75.967,148.939 75.903,148.883 75.765 C 148.828 75.631,148.775 75.732,148.766 75.990 M163.264 75.764 C 163.075 75.953,163.088 76.828,163.281 76.946 C 163.367 76.999,163.445 76.723,163.453 76.333 C 163.470 75.564,163.468 75.559,163.264 75.764 M173.698 75.989 C 176.362 76.022,180.721 76.022,183.385 75.989 C 186.049 75.956,183.870 75.929,178.542 75.929 C 173.214 75.929,171.034 75.956,173.698 75.989 M243.833 76.543 C 243.771 76.704,243.753 77.149,243.793 77.532 C 243.857 78.143,243.879 78.107,243.966 77.240 C 244.068 76.225,244.030 76.028,243.833 76.543 M163.958 77.083 C 163.732 77.229,163.905 77.282,164.583 77.274 C 165.297 77.265,165.421 77.220,165.104 77.083 C 164.546 76.844,164.329 76.844,163.958 77.083 M167.500 77.086 C 167.214 77.176,172.159 77.259,178.490 77.271 C 185.916 77.284,190.000 77.219,190.000 77.087 C 190.000 76.838,168.285 76.837,167.500 77.086 M215.625 78.451 C 215.625 78.860,215.526 79.399,215.405 79.649 C 215.193 80.089,215.196 80.090,215.509 79.700 C 215.802 79.335,215.981 77.708,215.729 77.708 C 215.672 77.708,215.625 78.043,215.625 78.451 M148.750 78.686 C 148.750 78.811,148.516 78.972,148.229 79.044 C 147.607 79.200,147.469 81.159,148.008 82.197 L 148.308 82.776 148.412 82.273 C 148.470 81.997,148.563 81.536,148.621 81.250 C 148.678 80.964,148.844 80.331,148.989 79.845 C 149.194 79.155,149.197 78.905,149.001 78.709 C 148.834 78.542,148.750 78.535,148.750 78.686 M256.923 79.792 C 256.923 80.193,256.966 80.357,257.019 80.156 C 257.071 79.956,257.071 79.628,257.019 79.427 C 256.966 79.227,256.923 79.391,256.923 79.792 M188.452 80.952 C 188.073 81.332,188.058 81.449,188.333 81.875 C 188.491 82.119,188.536 82.065,188.538 81.625 C 188.540 81.312,188.703 80.968,188.906 80.850 C 189.107 80.733,189.160 80.635,189.025 80.631 C 188.890 80.628,188.632 80.772,188.452 80.952 M214.650 81.875 C 214.650 82.620,214.688 82.924,214.734 82.552 C 214.780 82.180,214.780 81.570,214.734 81.198 C 214.688 80.826,214.650 81.130,214.650 81.875 M256.288 81.275 C 255.963 81.676,255.834 82.059,255.892 82.446 L 255.979 83.021 256.010 82.409 C 256.028 82.073,256.245 81.581,256.494 81.316 C 256.743 81.052,256.907 80.800,256.858 80.757 C 256.810 80.715,256.554 80.948,256.288 81.275 M201.290 81.780 C 201.306 82.186,201.382 82.414,201.461 82.287 C 201.596 82.069,201.493 81.042,201.336 81.042 C 201.296 81.042,201.275 81.374,201.290 81.780 M200.556 83.264 C 200.479 83.340,200.429 83.879,200.445 84.462 L 200.472 85.521 200.606 84.583 C 200.680 84.068,200.813 83.529,200.903 83.385 C 201.072 83.115,200.800 83.020,200.556 83.264 M255.580 83.923 L 255.222 84.662 255.652 84.232 C 255.889 83.995,256.050 83.663,256.010 83.493 C 255.966 83.306,255.796 83.476,255.580 83.923 M146.667 83.752 C 146.667 83.996,147.430 84.031,147.577 83.794 C 147.633 83.704,147.451 83.611,147.172 83.588 C 146.894 83.565,146.667 83.639,146.667 83.752 M220.905 84.118 C 220.687 84.256,231.332 84.250,238.333 84.107 C 239.880 84.076,236.646 84.031,231.146 84.007 C 225.646 83.984,221.037 84.034,220.905 84.118 M187.280 85.104 C 187.200 85.647,187.066 85.759,186.263 85.952 C 185.617 86.108,185.444 86.216,185.690 86.310 C 185.895 86.389,186.042 86.670,186.042 86.985 C 186.042 88.088,187.795 87.635,187.877 86.510 C 187.912 86.021,187.848 85.625,187.734 85.625 C 187.621 85.625,187.493 85.367,187.450 85.052 L 187.373 84.479 187.280 85.104 M220.479 85.625 C 220.479 86.255,220.518 86.513,220.566 86.198 C 220.614 85.883,220.614 85.367,220.566 85.052 C 220.518 84.737,220.479 84.995,220.479 85.625 M182.292 85.833 C 182.101 85.957,177.998 86.037,171.760 86.038 C 160.855 86.042,161.018 86.026,161.066 87.073 C 161.089 87.566,161.101 87.559,161.225 86.979 L 161.358 86.354 172.664 86.331 C 178.882 86.319,184.029 86.248,184.103 86.175 C 184.176 86.102,183.992 86.042,183.693 86.042 C 183.394 86.042,183.092 85.948,183.021 85.833 C 182.861 85.575,182.692 85.575,182.292 85.833 M254.731 86.908 C 254.651 87.212,254.532 87.634,254.467 87.845 C 254.402 88.056,254.501 87.966,254.687 87.644 C 254.873 87.322,254.992 86.901,254.951 86.707 C 254.899 86.459,254.833 86.519,254.731 86.908 M146.566 87.495 C 146.487 87.621,146.244 87.668,146.024 87.599 C 145.534 87.443,145.488 87.820,145.974 88.006 C 146.330 88.142,147.059 87.615,146.831 87.387 C 146.764 87.319,146.644 87.368,146.566 87.495 M158.997 87.513 C 159.048 87.663,159.212 87.827,159.362 87.878 C 159.518 87.930,159.596 87.852,159.544 87.695 C 159.494 87.545,159.330 87.381,159.180 87.331 C 159.023 87.279,158.945 87.357,158.997 87.513 M199.233 88.958 C 199.233 89.703,199.271 90.008,199.317 89.635 C 199.364 89.263,199.364 88.654,199.317 88.281 C 199.271 87.909,199.233 88.214,199.233 88.958 M219.372 89.730 C 219.316 90.441,219.347 90.946,219.439 90.853 C 219.531 90.761,219.577 90.179,219.540 89.561 L 219.473 88.438 219.372 89.730 M253.789 90.106 C 253.768 90.565,253.657 91.263,253.544 91.658 C 253.359 92.305,253.370 92.344,253.660 92.055 C 253.897 91.817,253.961 91.412,253.905 90.502 C 253.852 89.642,253.817 89.522,253.789 90.106 M198.685 90.781 C 198.636 90.867,198.480 91.453,198.338 92.083 C 198.196 92.714,197.996 93.393,197.893 93.594 C 197.754 93.863,197.787 93.958,198.019 93.958 C 198.234 93.958,198.334 93.745,198.336 93.281 C 198.337 92.909,198.473 92.159,198.638 91.615 C 198.908 90.727,198.928 90.356,198.685 90.781 M212.039 91.546 C 211.685 92.033,211.686 92.035,212.194 91.800 C 212.475 91.669,212.706 91.445,212.707 91.302 C 212.709 90.902,212.434 91.003,212.039 91.546 M144.583 91.934 C 144.583 92.255,145.246 92.343,145.530 92.060 C 145.776 91.813,145.727 91.771,145.201 91.771 C 144.861 91.771,144.583 91.844,144.583 91.934 M217.708 92.535 C 217.708 93.117,217.725 93.125,218.906 93.106 C 220.032 93.089,220.062 93.075,219.406 92.886 C 218.884 92.736,218.732 92.592,218.804 92.315 C 218.880 92.024,218.774 91.944,218.305 91.944 C 217.789 91.944,217.708 92.024,217.708 92.535 M158.231 92.289 C 158.155 92.411,158.248 92.440,158.457 92.360 C 158.679 92.274,158.915 92.367,159.093 92.610 C 159.362 92.978,159.375 92.975,159.375 92.540 C 159.375 92.057,158.494 91.864,158.231 92.289 M230.502 93.073 C 236.143 93.113,238.695 93.202,238.893 93.365 C 239.116 93.551,239.149 93.528,239.045 93.259 C 238.926 92.948,238.148 92.921,230.655 92.966 L 222.396 93.016 230.502 93.073 M211.511 94.063 C 211.513 94.521,211.556 94.684,211.606 94.425 C 211.656 94.166,211.654 93.791,211.601 93.591 C 211.549 93.392,211.509 93.604,211.511 94.063 M252.739 94.063 C 252.719 94.406,252.654 94.922,252.595 95.208 L 252.488 95.729 252.712 95.216 C 252.836 94.933,252.900 94.418,252.856 94.070 L 252.775 93.438 252.739 94.063 M143.418 94.861 C 143.486 95.071,143.542 95.282,143.542 95.330 C 143.542 95.523,144.111 95.399,144.487 95.124 C 144.860 94.851,144.847 94.839,144.297 94.944 C 143.920 95.016,143.631 94.952,143.500 94.768 C 143.342 94.547,143.323 94.568,143.418 94.861 M197.140 95.833 C 197.140 96.349,197.181 96.560,197.230 96.302 C 197.280 96.044,197.280 95.622,197.230 95.365 C 197.181 95.107,197.140 95.318,197.140 95.833 M158.674 97.037 C 159.067 98.662,159.663 99.097,159.840 97.889 C 159.915 97.381,159.851 97.214,159.551 97.135 C 159.340 97.080,159.167 96.962,159.167 96.873 C 159.167 96.784,159.025 96.657,158.852 96.590 C 158.600 96.494,158.564 96.584,158.674 97.037 M210.479 97.500 C 210.479 98.130,210.518 98.388,210.566 98.073 C 210.614 97.758,210.614 97.242,210.566 96.927 C 210.518 96.612,210.479 96.870,210.479 97.500 M251.715 97.500 C 251.715 97.901,251.758 98.065,251.810 97.865 C 251.863 97.664,251.863 97.336,251.810 97.135 C 251.758 96.935,251.715 97.099,251.715 97.500 M196.173 99.010 C 196.104 99.268,196.046 99.848,196.045 100.299 C 196.043 100.860,195.894 101.277,195.573 101.618 C 195.118 102.102,194.630 105.333,195.052 105.072 C 195.138 105.019,195.208 104.367,195.208 103.624 C 195.208 102.473,195.281 102.204,195.699 101.813 C 196.090 101.447,196.211 101.069,196.300 99.948 C 196.416 98.474,196.383 98.228,196.173 99.010 M168.661 99.515 C 168.438 100.096,168.956 100.211,171.563 100.157 C 173.978 100.106,174.065 100.088,174.129 99.635 C 174.219 99.002,168.903 98.884,168.661 99.515 M176.250 99.688 C 176.250 100.101,176.355 100.208,176.759 100.208 C 177.347 100.208,177.555 99.968,177.374 99.498 C 177.154 98.925,176.250 99.078,176.250 99.688 M179.413 99.635 C 179.469 100.032,179.623 100.112,180.417 100.158 C 181.501 100.221,181.945 100.008,181.756 99.515 C 181.522 98.905,179.325 99.018,179.413 99.635 M189.167 101.042 C 189.167 101.156,189.378 101.249,189.635 101.247 C 190.014 101.244,190.044 101.205,189.792 101.042 C 189.388 100.781,189.167 100.781,189.167 101.042 M250.621 101.813 C 250.566 102.409,250.597 102.820,250.690 102.727 C 250.784 102.633,250.829 102.145,250.791 101.643 L 250.722 100.729 250.621 101.813 M143.594 102.846 C 143.451 102.904,143.333 103.149,143.333 103.391 C 143.333 103.798,143.353 103.803,143.599 103.466 C 144.093 102.791,144.583 103.254,144.583 104.397 C 144.583 104.958,144.677 105.417,144.792 105.417 C 145.277 105.417,144.862 103.223,144.310 102.872 C 144.035 102.697,143.969 102.695,143.594 102.846 M236.315 104.896 C 236.316 105.583,236.355 105.839,236.401 105.465 C 236.447 105.091,236.446 104.528,236.399 104.215 C 236.351 103.902,236.313 104.208,236.315 104.896 M249.608 104.934 C 249.594 105.299,249.490 105.844,249.376 106.144 C 249.248 106.481,249.245 106.643,249.368 106.567 C 249.623 106.409,249.861 105.160,249.731 104.656 C 249.672 104.428,249.622 104.542,249.608 104.934 M188.542 104.875 C 188.542 105.050,188.356 105.365,188.129 105.576 C 187.903 105.787,187.591 106.518,187.438 107.199 C 187.205 108.231,187.055 108.490,186.539 108.750 C 185.630 109.209,185.825 109.792,186.886 109.792 C 187.563 109.792,187.717 109.713,187.797 109.323 C 188.004 108.324,188.042 107.527,187.879 107.627 C 187.785 107.685,187.708 107.499,187.708 107.212 C 187.708 106.632,188.043 106.334,188.594 106.425 C 189.005 106.492,189.145 104.932,188.750 104.688 C 188.635 104.617,188.542 104.701,188.542 104.875 M148.261 107.673 C 147.699 108.295,147.946 108.750,148.847 108.750 C 149.201 108.750,149.373 108.070,149.129 107.634 C 148.883 107.193,148.687 107.202,148.261 107.673 M150.384 108.471 C 149.953 109.512,150.030 109.682,150.962 109.750 C 152.126 109.835,152.276 109.294,151.318 108.471 L 150.629 107.879 150.384 108.471 M248.333 108.333 C 248.141 108.692,247.873 108.756,246.399 108.791 L 244.688 108.832 246.098 108.905 C 247.222 108.963,247.560 109.060,247.763 109.385 C 248.251 110.166,248.722 109.894,248.682 108.854 C 248.641 107.781,248.634 107.772,248.333 108.333 M207.308 108.255 C 207.299 108.384,206.987 108.556,206.615 108.637 C 205.953 108.781,205.948 108.789,206.415 109.011 C 206.962 109.271,207.636 108.803,207.436 108.302 C 207.375 108.147,207.317 108.126,207.308 108.255 M195.833 108.732 C 195.107 108.842,195.013 108.895,195.417 108.968 C 195.835 109.044,195.930 109.175,195.899 109.631 L 195.860 110.199 196.299 109.791 C 196.592 109.518,196.817 109.449,196.977 109.582 C 197.354 109.894,198.617 109.726,198.918 109.323 C 199.075 109.112,199.464 108.958,199.838 108.958 C 201.082 108.958,200.299 108.799,198.542 108.695 C 197.568 108.637,196.349 108.654,195.833 108.732 M239.167 108.771 C 238.651 108.840,238.429 108.910,238.672 108.927 C 239.262 108.969,239.626 109.438,239.442 109.922 C 239.304 110.286,239.318 110.289,239.642 109.968 C 240.079 109.535,242.015 109.569,242.323 110.016 C 242.476 110.238,242.497 110.203,242.405 109.873 C 242.273 109.401,242.557 109.066,243.229 108.901 C 243.605 108.808,243.167 108.767,240.833 108.675 C 240.432 108.659,239.682 108.702,239.167 108.771 M151.210 109.115 C 151.126 109.554,150.756 109.526,150.662 109.074 C 150.623 108.885,150.737 108.750,150.938 108.750 C 151.152 108.750,151.254 108.887,151.210 109.115 M156.042 109.271 L 156.042 109.792 169.896 109.792 L 183.750 109.792 183.750 109.271 L 183.750 108.750 169.896 108.750 L 156.042 108.750 156.042 109.271 " stroke="none" fill="#2db4b3" fill-rule="evenodd"></path></g></svg>