<?xml version="1.0" encoding="UTF-8" standalone="no"?>
<!-- Created with Inkscape (http://www.inkscape.org/) -->

<svg
   xmlns:dc="http://purl.org/dc/elements/1.1/"
   xmlns:cc="http://creativecommons.org/ns#"
   xmlns:rdf="http://www.w3.org/1999/02/22-rdf-syntax-ns#"
   xmlns:svg="http://www.w3.org/2000/svg"
   xmlns="http://www.w3.org/2000/svg"
   xmlns:sodipodi="http://sodipodi.sourceforge.net/DTD/sodipodi-0.dtd"
   xmlns:inkscape="http://www.inkscape.org/namespaces/inkscape"
   width="297mm"
   height="80mm"
   viewBox="0 0 297 80"
   version="1.1"
   id="svg4878"
   inkscape:version="0.92.1 r15371"
   sodipodi:docname="teal.svg">
  <defs
     id="defs4872" />
  <sodipodi:namedview
     id="base"
     pagecolor="#ffffff"
     bordercolor="#666666"
     borderopacity="1.0"
     inkscape:pageopacity="0.0"
     inkscape:pageshadow="2"
     inkscape:zoom="0.35"
     inkscape:cx="-64.285714"
     inkscape:cy="560"
     inkscape:document-units="mm"
     inkscape:current-layer="layer1"
     showgrid="false"
     units="mm"
     inkscape:window-width="1366"
     inkscape:window-height="705"
     inkscape:window-x="-8"
     inkscape:window-y="-8"
     inkscape:window-maximized="1" />
  <metadata
     id="metadata4875">
    <rdf:RDF>
      <cc:Work
         rdf:about="">
        <dc:format>image/svg+xml</dc:format>
        <dc:type
           rdf:resource="http://purl.org/dc/dcmitype/StillImage" />
        <dc:title></dc:title>
      </cc:Work>
    </rdf:RDF>
  </metadata>
  <g
     inkscape:label="Layer 1"
     inkscape:groupmode="layer"
     id="layer1"
     transform="translate(0,-217)">
    <path
       d="m 205.54803,270.78798 h 20.52226 l 2.42734,-7.87696 h -18.23962 c -5.1975,0 -6.75154,-2.27146 -5.76038,-5.477 l 8.82104,-28.53335 h -11.27166 l -8.04177,27.11908 c -1.81489,6.12007 0.42287,14.76823 11.54279,14.76823 z"
       style="fill:#868688;fill-rule:evenodd;stroke-width:0.63126165"
       id="path2"
       inkscape:connector-curvature="0"
       inkscape:export-xdpi="96"
       inkscape:export-ydpi="96" />
    <path
       d="m 92.525492,228.90079 h -20.36627 l -2.245018,7.84654 h 18.745 c 5.197809,0 6.695036,2.64421 5.774529,5.8497 l -8.094227,28.19102 H 97.59629 l 7.50331,-27.27277 c 2.62788,-9.55081 -3.30409,-14.61449 -12.574108,-14.61449 z"
       style="fill:#868688;fill-rule:evenodd;stroke-width:0.63126165"
       id="path4"
       inkscape:connector-curvature="0"
       inkscape:export-xdpi="96"
       inkscape:export-ydpi="96" />
    <path
       d="m 113.60023,270.7881 h 24.69586 l 2.2111,-7.8467 h -20.13263 c -4.41606,0 -4.90422,-2.89497 -4.23905,-5.23083 l 1.27697,-4.4843 h 20.94003 l 2.22084,-7.8467 h -20.92613 l 2.45825,-8.63205 h 25.82662 c 1.1821,-3.35289 3.10366,-5.94827 5.55555,-7.84673 h -39.96726 l -8.69115,31.67659 c -1.67631,6.11005 2.63672,10.21072 8.771,10.21072 z"
       style="fill:#00afb2;fill-rule:evenodd;stroke-width:0.63126165"
       id="path6"
       inkscape:connector-curvature="0"
       inkscape:export-xdpi="96"
       inkscape:export-ydpi="96" />
    <path
       d="m 197.30643,228.90079 c -10.47479,0 -19.93868,0 -30.4132,0 -8.84877,0 -13.74572,4.10069 -15.4681,10.21067 l -8.92619,31.67664 h 11.32799 c 2.74063,-10.07341 5.24396,-19.34968 7.9842,-29.42297 0.63531,-2.33541 3.94072,-4.61761 6.98555,-4.61761 h 15.02402 c -2.37695,8.63224 -3.00367,10.97441 -3.81716,13.92878 h -16.24995 l -2.13485,7.8467 h 16.21552 c -0.52489,1.89018 -1.80806,6.53008 -3.39669,12.2651 h 11.00351 c 4.16204,-14.69861 7.6805,-27.19266 11.86535,-41.88731 z"
       style="fill:#00afb2;fill-rule:evenodd;stroke-width:0.63126165"
       id="path8"
       inkscape:connector-curvature="0"
       inkscape:export-xdpi="96"
       inkscape:export-ydpi="96" />
    <path
       d="M 10.952407,279.14425 H 8.6712777 v -0.56562 h 5.1846173 v 0.56562 h -2.281318 v 6.10826 h -0.62217 z m 5.882854,-0.56562 h 0.62217 v 6.67388 h -0.62217 z m 5.882663,0.56562 h -2.281127 v -0.56562 h 5.184615 v 0.56562 h -2.281315 v 6.10826 h -0.622173 z m 7.928268,-0.56562 h 0.640983 l 2.809177,6.67388 h -0.697669 l -0.725763,-1.7722 h -3.534811 l -0.754233,1.7722 h -0.650451 z m 0.292212,0.67866 -1.555304,3.65762 h 3.063639 z m 6.071285,-0.67866 h 0.801324 l 4.062611,5.84436 h 0.01909 v -5.84436 h 0.621982 v 6.67388 h -0.801135 l -4.062799,-5.84433 h -0.01885 v 5.84433 h -0.622171 z m 14.187479,0 h 4.081612 v 0.56562 h -3.459441 v 2.37542 h 3.242539 v 0.56562 h -3.242539 v 2.60163 h 3.610311 v 0.56559 h -4.232482 z m 7.54181,0 h 0.801261 l 4.062673,5.84436 h 0.01885 v -5.84436 h 0.622044 v 6.67388 h -0.801134 l -4.062862,-5.84433 h -0.01885 v 5.84433 h -0.622171 z m 14.790462,6.24034 c -0.389553,0.21998 -0.793245,0.37542 -1.211266,0.46651 -0.417833,0.0914 -0.843682,0.13671 -1.277231,0.13671 -0.509114,0 -0.975616,-0.0864 -1.399886,-0.25915 -0.424081,-0.17274 -0.786994,-0.41478 -1.088675,-0.72595 -0.301679,-0.31102 -0.537329,-0.68176 -0.70695,-1.11227 -0.169683,-0.43053 -0.254461,-0.90026 -0.254461,-1.40916 0,-0.50913 0.08477,-0.97721 0.254461,-1.40469 0.169611,-0.42731 0.405271,-0.79647 0.70695,-1.10749 0.301681,-0.31114 0.664594,-0.55469 1.088675,-0.73056 0.42427,-0.17584 0.890772,-0.26399 1.399886,-0.26399 0.992911,0 1.794235,0.30799 2.403655,0.92392 l -0.452363,0.47129 c -0.100565,-0.11954 -0.224725,-0.23096 -0.372318,-0.33477 -0.147661,-0.10378 -0.307992,-0.19158 -0.480831,-0.26397 -0.172833,-0.072 -0.353443,-0.12884 -0.542001,-0.16963 -0.188436,-0.0408 -0.373835,-0.0611 -0.556142,-0.0611 -0.433615,0 -0.824743,0.0754 -1.173517,0.22618 -0.34896,0.15079 -0.645781,0.35824 -0.890963,0.62216 -0.244928,0.26393 -0.433551,0.57495 -0.56542,0.93314 -0.132058,0.35824 -0.198099,0.74475 -0.198099,1.15956 0,0.4148 0.06602,0.80112 0.198099,1.15936 0.131867,0.35824 0.320492,0.66922 0.56542,0.93314 0.245182,0.26393 0.542003,0.47135 0.890963,0.62216 0.348774,0.15079 0.739902,0.22619 1.173517,0.22619 0.358241,0 0.694451,-0.0282 1.008692,-0.0847 0.314178,-0.0565 0.600142,-0.16009 0.857823,-0.31103 v -2.24355 h -1.602585 v -0.56543 h 2.224567 z m 3.780625,-6.24034 h 0.622173 v 6.67388 h -0.622173 z m 4.402862,0 h 0.801259 l 4.062676,5.84436 h 0.01909 v -5.84436 h 0.621982 v 6.67388 h -0.801135 l -4.062802,-5.84433 h -0.01885 v 5.84433 h -0.62222 z m 9.285543,0 h 4.081674 v 0.56562 H 91.62064 v 2.37542 h 3.242604 v 0.56562 H 91.62064 v 2.60163 h 3.610312 v 0.56559 H 90.99847 Z m 7.541809,0 h 4.081621 v 0.56562 h -3.45945 v 2.37542 h 3.24261 v 0.56562 h -3.24261 v 2.60163 h 3.61032 v 0.56559 h -4.232491 z m 8.163991,2.94104 h 1.31971 c 0.32674,0 0.59225,-0.0408 0.79647,-0.12263 0.20415,-0.0816 0.36285,-0.18204 0.47597,-0.30148 0.11325,-0.11953 0.1902,-0.24842 0.23097,-0.38653 0.0408,-0.13839 0.0612,-0.26393 0.0612,-0.37704 0,-0.11333 -0.0205,-0.23888 -0.0612,-0.37719 -0.0408,-0.13814 -0.11774,-0.26695 -0.23097,-0.38634 -0.11312,-0.11953 -0.27183,-0.22022 -0.47597,-0.30167 -0.20421,-0.0818 -0.46973,-0.12263 -0.79647,-0.12263 h -1.31971 z m -0.62217,-2.94104 h 1.75326 c 0.088,0 0.20736,0.002 0.35824,0.01 0.15081,0.007 0.31418,0.025 0.49011,0.0565 0.17606,0.0315 0.35521,0.0818 0.53734,0.15079 0.18218,0.0692 0.34574,0.16963 0.49011,0.30167 0.14463,0.13194 0.26393,0.29854 0.35824,0.49965 0.0943,0.20089 0.14141,0.44611 0.14141,0.73523 0,0.32049 -0.055,0.58442 -0.16501,0.79184 -0.10985,0.20734 -0.24815,0.37542 -0.41461,0.50426 -0.16658,0.12884 -0.35035,0.22451 -0.55147,0.28754 -0.20113,0.0627 -0.39277,0.10689 -0.57514,0.13194 l 1.94188,3.20499 h -0.70701 l -1.8758,-3.16724 h -1.15937 v 3.16724 h -0.62217 z m 7.54181,0 h 0.62217 v 6.67388 h -0.62217 z m 4.40279,0 h 0.80133 l 4.06267,5.84436 h 0.0189 v -5.84436 h 0.62198 v 6.67388 h -0.80107 l -4.06286,-5.84433 h -0.0189 v 5.84433 h -0.62217 z m 14.79053,6.24034 c -0.38955,0.21998 -0.79324,0.37542 -1.21127,0.46651 -0.41783,0.0914 -0.84368,0.13671 -1.27729,0.13671 -0.50905,0 -0.97556,-0.0864 -1.39983,-0.25915 -0.42408,-0.17274 -0.78699,-0.41478 -1.08867,-0.72595 -0.30168,-0.31102 -0.53739,-0.68176 -0.70701,-1.11227 -0.16961,-0.43053 -0.25446,-0.90026 -0.25446,-1.40916 0,-0.50913 0.0848,-0.97721 0.25446,-1.40469 0.16961,-0.42731 0.40533,-0.79647 0.70701,-1.10749 0.30168,-0.31114 0.66459,-0.55469 1.08867,-0.73056 0.42427,-0.17584 0.89078,-0.26399 1.39983,-0.26399 0.99297,0 1.79423,0.30799 2.40372,0.92392 l -0.45237,0.47129 c -0.10056,-0.11954 -0.22472,-0.23096 -0.37238,-0.33477 -0.14759,-0.10378 -0.30793,-0.19158 -0.48083,-0.26397 -0.17283,-0.072 -0.35338,-0.12884 -0.542,-0.16963 -0.18844,-0.0408 -0.37377,-0.0611 -0.55614,-0.0611 -0.43355,0 -0.82475,0.0754 -1.17345,0.22618 -0.34897,0.15079 -0.64585,0.35824 -0.89097,0.62216 -0.24499,0.26393 -0.43355,0.57495 -0.56548,0.93314 -0.13206,0.35824 -0.19803,0.74475 -0.19803,1.15956 0,0.4148 0.066,0.80112 0.19803,1.15936 0.13194,0.35824 0.32049,0.66922 0.56548,0.93314 0.24512,0.26393 0.542,0.47135 0.89097,0.62216 0.3487,0.15079 0.7399,0.22619 1.17345,0.22619 0.35824,0 0.69451,-0.0282 1.00869,-0.0847 0.31424,-0.0565 0.6002,-0.16009 0.85782,-0.31103 v -2.24355 h -1.60258 v -0.56543 h 2.22463 z m 12.35885,-1.50827 0.96145,-1.73446 h 0.64092 l -1.20658,2.13044 1.51779,1.59293 h -0.83906 l -0.99915,-1.07453 c -0.27025,0.36449 -0.56708,0.65512 -0.89079,0.87197 -0.32369,0.21663 -0.71794,0.32514 -1.18299,0.32514 -0.28291,0 -0.54829,-0.0453 -0.79664,-0.13671 -0.2482,-0.0911 -0.46348,-0.22141 -0.64559,-0.39118 -0.18228,-0.16964 -0.32675,-0.37377 -0.43361,-0.61265 -0.10689,-0.23873 -0.16033,-0.50587 -0.16033,-0.80132 0,-0.25767 0.0441,-0.48385 0.13194,-0.67873 0.0878,-0.19469 0.20256,-0.36752 0.34397,-0.51838 0.14148,-0.15078 0.30327,-0.28754 0.48543,-0.40994 0.18228,-0.12263 0.37074,-0.24355 0.56562,-0.36306 -0.0942,-0.11309 -0.18992,-0.23095 -0.28755,-0.35344 -0.0973,-0.12263 -0.18371,-0.24978 -0.25913,-0.38183 -0.0754,-0.13194 -0.13838,-0.2686 -0.18848,-0.40994 -0.0503,-0.14125 -0.0754,-0.28755 -0.0754,-0.43843 0,-0.23868 0.0456,-0.45236 0.13671,-0.64097 0.0911,-0.18848 0.21377,-0.34714 0.36752,-0.47598 0.15389,-0.12883 0.33307,-0.22785 0.53739,-0.29682 0.20423,-0.0692 0.41619,-0.10379 0.63631,-0.10379 0.19468,0 0.38331,0.0346 0.56543,0.10379 0.18228,0.0692 0.34409,0.16486 0.4855,0.28735 0.14124,0.12264 0.25299,0.27018 0.33457,0.44308 0.0818,0.17274 0.12263,0.36607 0.12263,0.57977 0,0.23866 -0.0425,0.44611 -0.12717,0.62216 -0.0849,0.17584 -0.19779,0.333 -0.33929,0.47131 -0.14148,0.13814 -0.30005,0.2607 -0.47617,0.36756 -0.17584,0.10689 -0.35824,0.21068 -0.54668,0.31117 z m -1.68744,-4.33608 c -0.28267,0 -0.52161,0.0864 -0.71628,0.25908 -0.19492,0.17297 -0.29234,0.40066 -0.29234,0.6836 0,0.11309 0.0239,0.22928 0.0709,0.34869 0.047,0.1193 0.10689,0.23573 0.17894,0.34877 0.0723,0.11309 0.15079,0.21998 0.23573,0.32049 0.0849,0.10045 0.162,0.19159 0.23095,0.2734 0.13194,-0.0692 0.27024,-0.14458 0.4148,-0.22642 0.14459,-0.0816 0.27648,-0.17584 0.39579,-0.28268 0.11954,-0.10688 0.21855,-0.22785 0.29707,-0.36291 0.0785,-0.13504 0.11762,-0.29055 0.11762,-0.46668 0,-0.26392 -0.0878,-0.4792 -0.26392,-0.64559 -0.17584,-0.16653 -0.39902,-0.2498 -0.66926,-0.2498 z m -0.46182,2.93159 c -0.15079,0.088 -0.30005,0.18204 -0.44769,0.28268 -0.14768,0.10068 -0.28294,0.2121 -0.40548,0.33461 -0.12239,0.12264 -0.22165,0.26092 -0.29687,0.41481 -0.0754,0.15413 -0.11309,0.32839 -0.11309,0.5232 0,0.21377 0.0391,0.40533 0.11786,0.57495 0.0785,0.16987 0.18538,0.31581 0.32042,0.4384 0.13528,0.12263 0.29544,0.21688 0.48085,0.28275 0.18538,0.0661 0.38184,0.099 0.58929,0.099 0.17583,0 0.34086,-0.0282 0.4947,-0.0847 0.15413,-0.0565 0.29707,-0.13193 0.42894,-0.22618 0.13217,-0.0942 0.25447,-0.20279 0.36771,-0.32517 0.11309,-0.12263 0.21663,-0.25299 0.31102,-0.3913 z m 14.00832,-3.32758 h 0.64099 l 2.80917,6.67388 h -0.69767 l -0.72576,-1.7722 h -3.53481 l -0.75425,1.7722 h -0.65043 z m 0.2922,0.67866 -1.5553,3.65762 h 3.06365 z m 10.8127,3.44069 c 0,0.35826 -0.0408,0.70078 -0.1224,1.02753 -0.0818,0.32674 -0.21854,0.61584 -0.41013,0.86709 -0.19159,0.25143 -0.44308,0.45255 -0.75403,0.60341 -0.31121,0.15079 -0.69288,0.22618 -1.14543,0.22618 -0.45236,0 -0.83422,-0.0754 -1.14525,-0.22618 -0.31114,-0.15078 -0.56237,-0.35198 -0.75422,-0.60341 -0.19158,-0.25125 -0.32832,-0.54035 -0.40994,-0.86709 -0.0818,-0.32675 -0.12263,-0.66927 -0.12263,-1.02753 v -4.11935 h 0.62216 v 3.95902 c 0,0.23888 0.0215,0.49333 0.0661,0.76358 0.0439,0.27036 0.13027,0.52162 0.25913,0.75422 0.12884,0.23238 0.31117,0.42409 0.54687,0.5749 0.23572,0.15078 0.54825,0.22618 0.93781,0.22618 0.38973,0 0.70233,-0.0754 0.93798,-0.22618 0.23573,-0.15079 0.41784,-0.34247 0.54668,-0.5749 0.12883,-0.23262 0.2152,-0.48386 0.25932,-0.75422 0.0439,-0.27025 0.0659,-0.5247 0.0659,-0.76358 v -3.95902 H 168.14 Z m 5.1379,-3.55373 h -2.28113 v -0.56562 h 5.18461 v 0.56562 h -2.28129 v 6.10826 h -0.62219 z m 5.44923,2.77143 c 0,-0.50912 0.0849,-0.97721 0.25448,-1.40468 0.16963,-0.42731 0.40533,-0.79648 0.707,-1.1075 0.3017,-0.31114 0.66461,-0.55469 1.08868,-0.73055 0.42428,-0.17584 0.89079,-0.264 1.39983,-0.264 0.5091,0 0.97561,0.088 1.39989,0.264 0.42426,0.17584 0.7871,0.41941 1.08867,0.73055 0.30167,0.31102 0.53733,0.68019 0.70694,1.1075 0.16987,0.42747 0.25466,0.89556 0.25466,1.40468 0,0.50891 -0.0847,0.97864 -0.25466,1.40917 -0.16964,0.4305 -0.40527,0.80124 -0.70694,1.11227 -0.30157,0.31116 -0.66441,0.55311 -1.08867,0.72594 -0.42428,0.17274 -0.89079,0.25913 -1.39989,0.25913 -0.50904,0 -0.97555,-0.0864 -1.39983,-0.25913 -0.42407,-0.17273 -0.78698,-0.41478 -1.08868,-0.72594 -0.30167,-0.31103 -0.53739,-0.68177 -0.707,-1.11227 -0.16964,-0.43053 -0.25448,-0.90026 -0.25448,-1.40917 z m 0.62207,0 c 0,0.41478 0.0661,0.80113 0.19803,1.15937 0.13194,0.35823 0.32042,0.66921 0.5654,0.93313 0.24512,0.26393 0.542,0.47136 0.89098,0.62217 0.3487,0.15078 0.73988,0.22618 1.17344,0.22618 0.43361,0 0.82494,-0.0754 1.17371,-0.22618 0.34877,-0.15079 0.64559,-0.35824 0.89076,-0.62217 0.24494,-0.26392 0.43356,-0.5749 0.56562,-0.93313 0.13194,-0.35824 0.19803,-0.74459 0.19803,-1.15937 0,-0.41481 -0.0661,-0.80134 -0.19803,-1.15958 -0.13194,-0.35817 -0.32068,-0.66919 -0.56562,-0.93312 -0.24517,-0.26394 -0.54199,-0.47137 -0.89076,-0.62218 -0.34877,-0.15079 -0.7401,-0.22618 -1.17371,-0.22618 -0.43356,0 -0.82474,0.0754 -1.17344,0.22618 -0.34898,0.15078 -0.64586,0.35824 -0.89098,0.62218 -0.24498,0.26393 -0.43354,0.57495 -0.5654,0.93312 -0.13218,0.35824 -0.19803,0.74477 -0.19803,1.15958 z m 9.55892,-3.33705 h 0.93321 l 2.43218,5.59936 2.43194,-5.59936 h 0.88609 v 6.67388 h -0.62216 v -5.88208 h -0.0191 l -2.54506,5.88208 h -0.27346 l -2.58281,-5.88208 h -0.0191 v 5.88208 h -0.62217 z m 12.44356,0 h 0.64094 l 2.80917,6.67388 h -0.69768 l -0.72575,-1.7722 h -3.53482 l -0.75424,1.7722 h -0.65044 z m 0.29222,0.67866 -1.55537,3.65762 h 3.06364 z m 7.55109,-0.11309 h -2.28113 v -0.56559 h 5.18462 v 0.56559 h -2.28133 v 6.10829 h -0.62216 z m 5.88284,-0.56559 h 0.62219 v 6.67388 h -0.62219 z m 3.96926,3.33702 c 0,-0.5091 0.0847,-0.97718 0.25447,-1.40468 0.16964,-0.42729 0.40527,-0.79645 0.70694,-1.10747 0.30174,-0.31117 0.6646,-0.55469 1.08867,-0.73056 0.42428,-0.17584 0.89079,-0.26399 1.39989,-0.26399 0.50904,0 0.97555,0.088 1.39983,0.26399 0.42426,0.17584 0.78717,0.41939 1.08868,0.73056 0.30167,0.31102 0.53739,0.68018 0.707,1.10747 0.16988,0.4275 0.25465,0.89558 0.25465,1.40468 0,0.50893 -0.0849,0.97866 -0.25465,1.40917 -0.16963,0.43053 -0.40533,0.80127 -0.707,1.11229 -0.30151,0.31114 -0.66442,0.55312 -1.08868,0.72595 -0.42428,0.17274 -0.89079,0.25913 -1.39983,0.25913 -0.5091,0 -0.97561,-0.0864 -1.39989,-0.25913 -0.42407,-0.17274 -0.78693,-0.41481 -1.08867,-0.72595 -0.30167,-0.31102 -0.53733,-0.68176 -0.70694,-1.11229 -0.16963,-0.43051 -0.25447,-0.90024 -0.25447,-1.40917 z m 0.62199,0 c 0,0.41481 0.0661,0.80115 0.19803,1.15939 0.13194,0.35824 0.32047,0.66919 0.5654,0.93312 0.2452,0.26394 0.54207,0.47137 0.89098,0.62218 0.34877,0.15079 0.73989,0.22618 1.17352,0.22618 0.43353,0 0.82486,-0.0754 1.17363,-0.22618 0.34877,-0.15078 0.64567,-0.35824 0.89077,-0.62218 0.245,-0.26393 0.43356,-0.57488 0.56561,-0.93312 0.13194,-0.35824 0.19779,-0.74458 0.19779,-1.15939 0,-0.41478 -0.0661,-0.80132 -0.19779,-1.15956 -0.13217,-0.35816 -0.32061,-0.66918 -0.56561,-0.93313 -0.2451,-0.26393 -0.542,-0.47136 -0.89077,-0.62217 -0.34877,-0.15078 -0.7401,-0.22618 -1.17363,-0.22618 -0.43363,0 -0.82475,0.0754 -1.17352,0.22618 -0.34891,0.15079 -0.64578,0.35824 -0.89098,0.62217 -0.24493,0.26395 -0.43353,0.57497 -0.5654,0.93313 -0.13218,0.35824 -0.19803,0.74478 -0.19803,1.15956 z m 9.62504,-3.33702 h 0.80124 l 4.06269,5.84433 h 0.0191 v -5.84433 h 0.62198 v 6.67388 h -0.80123 l -4.06285,-5.84434 h -0.0191 v 5.84434 h -0.62216 z m 14.18741,0 h 0.62223 v 6.10826 h 3.11068 v 0.56562 h -3.73291 z m 6.66517,0 h 0.62219 v 6.67388 h -0.62219 z m 4.33684,0 h 0.93312 l 2.4322,5.59935 2.43199,-5.59935 h 0.88611 v 6.67388 h -0.62218 v -5.88211 h -0.0191 l -2.54506,5.88211 h -0.27339 l -2.58287,-5.88211 h -0.0191 v 5.88211 h -0.62217 z m 10.39801,0 h 0.62216 v 6.67388 h -0.62216 z m 5.88268,0.56559 h -2.28113 v -0.56559 h 5.18461 v 0.56559 h -2.28132 v 6.10829 h -0.62216 z m 5.88284,-0.56559 h 4.0816 v 0.56559 h -3.45944 v 2.37545 h 3.24262 v 0.56562 h -3.24262 v 2.6016 h 3.61033 v 0.56562 h -4.23249 z m 7.45697,0 h 2.06428 c 0.57812,0 1.06841,0.0706 1.47053,0.2121 0.40223,0.14125 0.73687,0.32188 1.00402,0.542 0.26695,0.21998 0.47763,0.46341 0.63144,0.73044 0.15413,0.26714 0.26722,0.52317 0.33951,0.76837 0.0723,0.24493 0.11763,0.46651 0.13648,0.66439 0.0191,0.19803 0.0284,0.33786 0.0284,0.4196 0,0.0816 -0.01,0.22141 -0.0284,0.41941 -0.0191,0.19803 -0.0642,0.41949 -0.13648,0.66459 -0.0723,0.245 -0.18538,0.50103 -0.33951,0.76818 -0.15388,0.26722 -0.36449,0.51069 -0.63144,0.73062 -0.26715,0.21998 -0.60179,0.40066 -1.00402,0.542 -0.40212,0.14148 -0.89241,0.21211 -1.47053,0.21211 h -2.06428 z m 0.62216,6.10826 h 1.28198 c 0.43981,0 0.85156,-0.0549 1.23488,-0.16487 0.38324,-0.10998 0.71628,-0.27804 0.99915,-0.50423 0.28275,-0.22618 0.5059,-0.51379 0.66926,-0.86249 0.16343,-0.34879 0.24513,-0.76195 0.24513,-1.23955 0,-0.47761 -0.0818,-0.89096 -0.24513,-1.23968 -0.16343,-0.34876 -0.38651,-0.63619 -0.66926,-0.86249 -0.28287,-0.22618 -0.61591,-0.39441 -0.99915,-0.50425 -0.38332,-0.10999 -0.79507,-0.16511 -1.23488,-0.16511 h -1.28198 z"
       style="fill:#868688;fill-rule:evenodd;stroke-width:0.63126165"
       id="path10"
       inkscape:connector-curvature="0"
       inkscape:export-xdpi="96"
       inkscape:export-ydpi="96" />
  </g>
</svg>
